<?xml version="1.0" encoding="utf-8"?>
<!-- Generator: Adobe Illustrator 22.0.1, SVG Export Plug-In . SVG Version: 6.00 Build 0)  -->
<svg version="1.1" id="Lager_1" xmlns="http://www.w3.org/2000/svg" xmlns:xlink="http://www.w3.org/1999/xlink" x="0px" y="0px"
	 viewBox="0 0 1056.6 1061.6" style="enable-background:new 0 0 1056.6 1061.6;" xml:space="preserve">
<style type="text/css">
	.st0{fill:#FFFFFF;}
</style>
<g>
	<path class="st0" d="M514.2,4.9C514.2,4.9,514.2,4.9,514.2,4.9c-5.1,0.2-10.1,0.4-15.1,0.7c-1.1,0.1-1.9,1-1.9,2.1
		c0.1,1.1,0.9,1.9,2,1.9c0,0,0.1,0,0.1,0c4.9-0.3,9.9-0.5,14.9-0.7c1.1,0,2-1,1.9-2.1C516.2,5.8,515.3,4.9,514.2,4.9L514.2,4.9z
		 M469.5,8.3c-0.1,0-0.2,0-0.2,0C462.6,9.1,456,10,449.5,11c-1.1,0.2-1.8,1.2-1.7,2.3c0.2,1,1,1.7,2,1.7c0.1,0,0.2,0,0.3,0
		c6.5-1,13.1-1.9,19.7-2.7c1.1-0.1,1.9-1.1,1.8-2.2C471.4,9,470.5,8.3,469.5,8.3L469.5,8.3z M440,12.7c-0.1,0-0.2,0-0.3,0
		c-1.1,0.2-2.3,0.4-3.4,0.6c0,0,0,0,0,0c-0.1,0-0.1,0-0.2,0c0,0-0.1,0-0.1,0c-0.1,0-0.1,0-0.2,0c-0.2,0-0.3,0.1-0.5,0.1c0,0,0,0,0,0
		c-0.1,0-0.1,0-0.2,0c0,0,0,0,0,0c-1.1,0.2-2.2,0.4-3.3,0.6c-1.1,0.2-1.8,1.3-1.6,2.3c0.2,1,1,1.6,2,1.6c0.1,0,0.3,0,0.4,0
		c2.6-0.5,5.2-1,7.8-1.4c1.1-0.2,1.8-1.2,1.6-2.3C441.7,13.3,440.9,12.7,440,12.7L440,12.7z M422.3,16.1c-0.1,0-0.3,0-0.4,0
		c-0.8,0.2-1.5,0.3-2.2,0.5c0,0,0,0,0,0c-0.1,0-0.1,0-0.1,0c0,0-0.1,0-0.1,0c0,0-0.1,0-0.1,0c0,0-0.1,0-0.1,0c0,0-0.1,0-0.1,0
		c0,0-0.1,0-0.1,0c0,0-0.1,0-0.1,0c-0.1,0-0.1,0-0.2,0l0,0c-3,0.7-5.9,1.3-8.9,2c0,0,0,0,0,0c-0.1,0-0.1,0-0.2,0l0,0
		c-0.1,0-0.1,0-0.2,0c0,0,0,0,0,0c-0.1,0-0.1,0-0.2,0c0,0,0,0,0,0c-0.2,0.1-0.4,0.1-0.7,0.2c0,0,0,0-0.1,0c-0.1,0-0.1,0-0.2,0
		c0,0-0.1,0-0.1,0c0,0-0.1,0-0.1,0c0,0,0,0-0.1,0c0,0-0.1,0-0.1,0c0,0-0.1,0-0.1,0c0,0-0.1,0-0.1,0c0,0-0.1,0-0.1,0c0,0-0.1,0-0.1,0
		c0,0-0.1,0-0.1,0c-1.1,0.3-1.7,1.3-1.5,2.4c0.2,0.9,1,1.5,1.9,1.5c0.2,0,0.3,0,0.5-0.1c4.8-1.2,9.7-2.3,14.5-3.3
		c1.1-0.2,1.8-1.3,1.5-2.4C424.1,16.7,423.3,16.1,422.3,16.1L422.3,16.1z M378.9,27.2c-0.2,0-0.4,0-0.6,0.1
		c-6.4,1.9-12.8,4-19.1,6.2c-1,0.4-1.6,1.5-1.2,2.5c0.3,0.8,1.1,1.3,1.9,1.3c0.2,0,0.4,0,0.7-0.1c6.2-2.2,12.6-4.2,18.9-6.1
		c1.1-0.3,1.7-1.4,1.3-2.5C380.6,27.8,379.8,27.2,378.9,27.2L378.9,27.2z M350.6,36.7c-0.2,0-0.5,0-0.7,0.1c-0.5,0.2-1,0.4-1.6,0.6
		c0,0,0,0,0,0c-0.1,0-0.1,0-0.2,0.1c0,0,0,0,0,0c-0.1,0-0.1,0-0.2,0.1c0,0,0,0,0,0c-0.2,0.1-0.3,0.1-0.5,0.2c0,0-0.1,0-0.1,0
		c0,0-0.1,0-0.1,0c0,0-0.1,0-0.1,0c0,0-0.1,0-0.1,0c0,0-0.1,0-0.1,0c0,0-0.1,0-0.1,0c-0.1,0-0.1,0-0.2,0.1c0,0-0.1,0-0.1,0
		c0,0-0.1,0-0.1,0c0,0-0.1,0-0.1,0c0,0-0.1,0-0.1,0c0,0-0.1,0-0.1,0c0,0-0.1,0-0.1,0c0,0-0.1,0-0.1,0c-0.1,0-0.1,0-0.2,0.1
		c0,0-0.1,0-0.1,0c-0.1,0-0.1,0-0.2,0.1c0,0-0.1,0-0.1,0c0,0-0.1,0-0.1,0c0,0-0.1,0-0.1,0c0,0-0.1,0-0.1,0c0,0-0.1,0-0.1,0
		c0,0-0.1,0-0.1,0.1c0,0-0.1,0-0.1,0c-0.1,0-0.1,0-0.2,0.1c0,0-0.1,0-0.1,0c0,0-0.1,0-0.1,0c0,0-0.1,0-0.1,0c0,0-0.1,0-0.1,0
		c0,0-0.1,0-0.1,0c0,0-0.1,0-0.1,0c0,0-0.1,0-0.1,0c-0.1,0-0.1,0-0.2,0.1c0,0-0.1,0-0.1,0c0,0-0.1,0-0.1,0c0,0-0.1,0-0.1,0
		c0,0-0.1,0-0.1,0c0,0-0.1,0-0.1,0c0,0-0.1,0-0.1,0c-0.2,0.1-0.3,0.1-0.4,0.2c0,0,0,0-0.1,0c0,0,0,0-0.1,0c-1,0.4-1.5,1.6-1.1,2.6
		c0.3,0.8,1.1,1.3,1.9,1.3c0.2,0,0.5,0,0.7-0.1c2.5-0.9,5-1.9,7.4-2.8c1-0.4,1.6-1.5,1.2-2.6C352.2,37.2,351.4,36.7,350.6,36.7
		L350.6,36.7z M333.9,43.2c-0.2,0-0.5,0-0.7,0.1c-1.6,0.6-3.1,1.3-4.7,1.9c0,0,0,0,0,0c-0.1,0-0.1,0-0.2,0.1c0,0,0,0,0,0
		c-0.1,0-0.1,0-0.2,0.1c0,0,0,0,0,0c-0.2,0.1-0.3,0.1-0.4,0.2c0,0-0.1,0-0.1,0c0,0-0.1,0-0.1,0c0,0-0.1,0-0.1,0.1c0,0-0.1,0-0.1,0
		c0,0-0.1,0-0.1,0.1c0,0,0,0-0.1,0c-0.1,0-0.1,0-0.2,0.1c0,0,0,0,0,0c-2.5,1.1-5,2.1-7.5,3.2c-1,0.4-1.5,1.6-1,2.6
		c0.3,0.7,1.1,1.2,1.8,1.2c0.3,0,0.5-0.1,0.8-0.2c4.5-2,9.1-3.9,13.7-5.8c1-0.4,1.5-1.6,1.1-2.6C335.4,43.7,334.7,43.2,333.9,43.2
		L333.9,43.2z M293.1,61.8c-0.3,0-0.6,0.1-0.9,0.2c-3.1,1.6-6.2,3.2-9.2,4.8c0,0,0,0,0,0c-0.1,0.1-0.2,0.1-0.3,0.2c0,0,0,0,0,0
		c-0.1,0-0.1,0-0.1,0.1c0,0,0,0,0,0c0,0-0.1,0.1-0.1,0.1c0,0,0,0,0,0c0,0-0.1,0.1-0.1,0.1c0,0-0.1,0-0.1,0c0,0-0.1,0-0.1,0
		c0,0-0.1,0-0.1,0c0,0,0,0-0.1,0c0,0-0.1,0-0.1,0.1c0,0,0,0-0.1,0c-0.1,0.1-0.2,0.1-0.4,0.2c0,0,0,0,0,0c0,0-0.1,0-0.1,0.1l0,0
		c-2.2,1.2-4.4,2.4-6.6,3.6c-1,0.5-1.3,1.8-0.8,2.7c0.4,0.7,1,1,1.7,1c0.3,0,0.7-0.1,1-0.3c5.8-3.2,11.6-6.4,17.5-9.3
		c1-0.5,1.4-1.7,0.9-2.7C294.5,62.2,293.8,61.8,293.1,61.8L293.1,61.8z M266.9,76.1c-0.3,0-0.7,0.1-1,0.3c-2.3,1.3-4.6,2.7-6.9,4.1
		c-0.9,0.6-1.2,1.8-0.7,2.7c0.4,0.6,1,1,1.7,1c0.4,0,0.7-0.1,1-0.3c2.3-1.4,4.6-2.7,6.8-4.1c1-0.6,1.3-1.8,0.7-2.7
		C268.3,76.5,267.6,76.1,266.9,76.1L266.9,76.1z M251.6,85.4c-0.4,0-0.7,0.1-1.1,0.3c-4.2,2.7-8.4,5.4-12.6,8.2
		c-0.9,0.6-1.2,1.9-0.5,2.8c0.4,0.6,1,0.9,1.7,0.9c0.4,0,0.8-0.1,1.1-0.3c4.1-2.8,8.3-5.5,12.5-8.1c0.9-0.6,1.2-1.8,0.6-2.8
		C252.9,85.8,252.2,85.4,251.6,85.4L251.6,85.4z M214.7,110.9c-0.4,0-0.8,0.1-1.2,0.4c-0.2,0.1-0.4,0.3-0.6,0.4c0,0,0,0,0,0
		c-0.1,0-0.1,0.1-0.2,0.1l0,0c-0.1,0.1-0.2,0.2-0.3,0.2c0,0,0,0,0,0c-0.1,0-0.1,0.1-0.1,0.1c0,0,0,0,0,0c-0.1,0-0.1,0.1-0.1,0.1
		c0,0,0,0,0,0c-0.1,0-0.1,0.1-0.2,0.1c0,0,0,0,0,0c0,0-0.1,0.1-0.1,0.1c0,0,0,0,0,0c0,0-0.1,0.1-0.1,0.1c0,0,0,0,0,0
		c-0.1,0-0.1,0.1-0.1,0.1c0,0,0,0,0,0c-0.1,0-0.1,0.1-0.1,0.1c0,0,0,0,0,0c0,0-0.1,0.1-0.1,0.1c0,0,0,0-0.1,0c0,0-0.1,0.1-0.1,0.1
		c0,0,0,0,0,0c-0.1,0-0.1,0.1-0.1,0.1c0,0,0,0,0,0c-0.1,0-0.1,0.1-0.1,0.1c0,0,0,0-0.1,0c0,0-0.1,0-0.1,0.1c0,0,0,0-0.1,0
		c0,0-0.1,0.1-0.1,0.1c0,0,0,0,0,0c-0.1,0-0.1,0.1-0.1,0.1c0,0,0,0,0,0c0,0-0.1,0.1-0.1,0.1c0,0,0,0,0,0c0,0-0.1,0.1-0.1,0.1
		c0,0,0,0,0,0c-0.1,0-0.1,0.1-0.1,0.1c0,0,0,0,0,0c-0.1,0-0.1,0.1-0.1,0.1c0,0,0,0,0,0c-0.1,0-0.1,0.1-0.1,0.1c0,0,0,0,0,0
		c-0.1,0-0.1,0.1-0.1,0.1c0,0,0,0,0,0c-0.1,0.1-0.2,0.2-0.3,0.2c0,0,0,0,0,0c-0.1,0-0.1,0.1-0.1,0.1c0,0,0,0,0,0
		c-0.1,0-0.1,0.1-0.1,0.1c0,0,0,0,0,0c-0.1,0.1-0.2,0.2-0.3,0.2c0,0,0,0,0,0c-0.1,0-0.1,0.1-0.2,0.1c0,0,0,0,0,0
		c-2.7,2.1-5.3,4.2-7.9,6.3c0,0,0,0,0,0c0,0-0.1,0.1-0.1,0.1c0,0,0,0,0,0c0,0-0.1,0.1-0.1,0.1c0,0,0,0,0,0c-0.1,0-0.1,0.1-0.1,0.1
		c0,0,0,0-0.1,0c0,0,0,0-0.1,0.1c0,0-0.1,0-0.1,0.1c0,0,0,0,0,0c-0.6,0.5-1.2,1-1.8,1.5c-0.9,0.7-1,2-0.3,2.8c0.4,0.5,1,0.7,1.6,0.7
		c0.4,0,0.9-0.1,1.3-0.5c5.1-4.2,10.4-8.3,15.6-12.3c0.9-0.7,1.1-1.9,0.4-2.8C215.9,111.2,215.3,110.9,214.7,110.9L214.7,110.9z
		 M191.4,129.6c-0.5,0-0.9,0.2-1.3,0.5c0,0,0,0,0,0c-0.1,0-0.1,0.1-0.2,0.1l0,0c-0.1,0.1-0.1,0.1-0.2,0.2c0,0,0,0,0,0
		c-0.1,0-0.1,0.1-0.2,0.1c0,0,0,0,0,0c0,0-0.1,0.1-0.1,0.1c0,0,0,0,0,0c-0.1,0-0.1,0.1-0.2,0.1c0,0,0,0,0,0
		c-0.1,0.1-0.1,0.1-0.2,0.2c0,0,0,0,0,0c-0.1,0-0.1,0.1-0.2,0.1c0,0,0,0,0,0c-0.1,0-0.1,0.1-0.2,0.1c0,0,0,0,0,0
		c-1.5,1.3-3,2.6-4.5,3.9c-0.8,0.7-0.9,2-0.2,2.8c0.4,0.5,0.9,0.7,1.5,0.7c0.5,0,0.9-0.2,1.3-0.5c2-1.7,4-3.5,6-5.2
		c0.8-0.7,0.9-2,0.2-2.8C192.5,129.8,191.9,129.6,191.4,129.6L191.4,129.6z M177.9,141.4c-0.5,0-1,0.2-1.3,0.5
		c-0.6,0.5-1.2,1-1.7,1.6c0,0,0,0,0,0c0,0-0.1,0.1-0.1,0.1c0,0-0.1,0.1-0.1,0.1c0,0,0,0-0.1,0.1c0,0-0.1,0.1-0.1,0.1c0,0,0,0,0,0
		c0,0-0.1,0.1-0.1,0.1c0,0,0,0,0,0c-2.1,2-4.3,3.9-6.4,5.9c0,0,0,0,0,0c0,0-0.1,0.1-0.1,0.1c0,0,0,0-0.1,0.1c0,0-0.1,0.1-0.1,0.1
		c0,0-0.1,0.1-0.1,0.1c0,0,0,0,0,0c-0.6,0.6-1.2,1.2-1.9,1.8c-0.8,0.8-0.8,2-0.1,2.8c0.4,0.4,0.9,0.6,1.4,0.6c0.5,0,1-0.2,1.4-0.6
		c3.6-3.4,7.2-6.8,10.9-10.2c0.8-0.7,0.9-2,0.1-2.8C179,141.6,178.4,141.4,177.9,141.4L177.9,141.4z M146,172.9
		c-0.5,0-1.1,0.2-1.5,0.6c-3.3,3.5-6.5,7.1-9.6,10.7l0,0c-0.1,0.1-0.1,0.2-0.2,0.2l0,0c-0.1,0.1-0.1,0.1-0.2,0.2l0,0
		c-0.1,0.1-0.1,0.1-0.2,0.2c0,0,0,0,0,0c-0.1,0.1-0.1,0.1-0.2,0.2l0,0c-0.1,0.1-0.1,0.1-0.2,0.2c0,0,0,0,0,0.1
		c-0.1,0.1-0.1,0.1-0.2,0.2c0,0,0,0,0,0c0,0.1-0.1,0.1-0.1,0.2c0,0,0,0-0.1,0.1c-0.1,0.1-0.1,0.1-0.2,0.2c0,0,0,0-0.1,0.1
		c0,0-0.1,0.1-0.1,0.1c0,0,0,0-0.1,0.1c-0.1,0.1-0.1,0.1-0.2,0.2c0,0-0.1,0.1-0.1,0.1c0,0-0.1,0.1-0.1,0.1c0,0-0.1,0.1-0.1,0.1
		c0,0-0.1,0.1-0.1,0.1c0,0-0.1,0.1-0.1,0.1c0,0.1-0.1,0.1-0.1,0.2c0,0-0.1,0.1-0.1,0.1c0,0-0.1,0.1-0.1,0.1c0,0-0.1,0.1-0.1,0.1
		c0,0.1-0.1,0.1-0.1,0.2c0,0-0.1,0.1-0.1,0.1c0,0-0.1,0.1-0.1,0.1c0,0-0.1,0.1-0.1,0.1c0,0-0.1,0.1-0.1,0.1c0,0-0.1,0.1-0.1,0.1
		c0,0-0.1,0.1-0.1,0.1c0,0-0.1,0.1-0.1,0.1c-0.7,0.8-0.6,2.1,0.2,2.8c0.4,0.3,0.8,0.5,1.3,0.5c0.6,0,1.1-0.2,1.5-0.7
		c4.3-5,8.8-10,13.2-14.8c0.8-0.8,0.7-2.1-0.1-2.8C147,173.1,146.5,172.9,146,172.9L146,172.9z M126.3,195.4c-0.6,0-1.1,0.2-1.5,0.7
		c-0.5,0.6-1,1.2-1.4,1.7l0,0c-0.1,0.1-0.2,0.2-0.3,0.4c0,0,0,0.1-0.1,0.1c0,0-0.1,0.1-0.1,0.1c0,0-0.1,0.1-0.1,0.1c0,0,0,0-0.1,0.1
		c-0.8,1-1.6,1.9-2.3,2.9c0,0,0,0,0,0c-0.1,0.1-0.2,0.3-0.3,0.4c0,0,0,0,0,0.1c0,0,0,0.1-0.1,0.1c0,0-0.1,0.1-0.1,0.1
		c0,0,0,0-0.1,0.1c0,0-0.1,0.1-0.1,0.1c0,0,0,0,0,0c-0.7,0.9-0.6,2.1,0.3,2.8c0.4,0.3,0.8,0.4,1.3,0.4c0.6,0,1.2-0.3,1.6-0.7
		c1.7-2.1,3.3-4.1,5-6.1c0.7-0.9,0.6-2.1-0.3-2.8C127.2,195.5,126.8,195.4,126.3,195.4L126.3,195.4z M115.1,209.4
		c-0.6,0-1.2,0.3-1.6,0.8c-1.1,1.5-2.3,2.9-3.4,4.4c0,0,0,0,0,0c0,0.1-0.1,0.1-0.1,0.1c0,0,0,0,0,0c0,0.1-0.1,0.1-0.1,0.1
		c0,0,0,0,0,0c0,0.1-0.1,0.1-0.1,0.1l0,0c-0.1,0.1-0.2,0.3-0.3,0.4c0,0,0,0,0,0c0,0-0.1,0.1-0.1,0.1c0,0,0,0,0,0.1
		c0,0-0.1,0.1-0.1,0.1c0,0,0,0-0.1,0.1c0,0,0,0.1-0.1,0.1c0,0,0,0-0.1,0.1c0,0,0,0.1-0.1,0.1c0,0,0,0.1-0.1,0.1c0,0-0.1,0.1-0.1,0.1
		c0,0-0.1,0.1-0.1,0.1c0,0,0,0-0.1,0.1c0,0-0.1,0.1-0.1,0.1c0,0,0,0.1-0.1,0.1c0,0-0.1,0.1-0.1,0.1c0,0,0,0,0,0.1
		c0,0-0.1,0.1-0.1,0.1c0,0,0,0,0,0c0,0.1-0.1,0.1-0.1,0.2l0,0c-0.1,0.1-0.2,0.2-0.3,0.4c0,0,0,0,0,0c0,0.1-0.1,0.1-0.1,0.2l0,0
		c0,0.1-0.1,0.1-0.1,0.2c0,0,0,0,0,0c-1,1.4-2,2.8-3.1,4.1c-0.7,0.9-0.5,2.1,0.4,2.8c0.4,0.3,0.8,0.4,1.2,0.4c0.6,0,1.2-0.3,1.6-0.8
		c2.9-4,5.9-8,8.9-11.9c0.7-0.9,0.5-2.1-0.4-2.8C116,209.5,115.5,209.4,115.1,209.4L115.1,209.4z M89.2,246c-0.7,0-1.3,0.3-1.7,0.9
		c-1.3,2-2.6,4-3.8,6c0,0,0,0,0,0c0,0-0.1,0.1-0.1,0.1c0,0,0,0,0,0c0,0.1-0.1,0.1-0.1,0.1c0,0,0,0,0,0c0,0,0,0.1-0.1,0.1
		c0,0,0,0.1-0.1,0.1c0,0,0,0,0,0.1c0,0,0,0.1-0.1,0.1c0,0,0,0,0,0c-2.1,3.4-4.2,6.8-6.3,10.3c-0.6,0.9-0.3,2.2,0.7,2.7
		c0.3,0.2,0.7,0.3,1,0.3c0.7,0,1.3-0.3,1.7-1c3.4-5.7,6.9-11.3,10.5-16.9c0.6-0.9,0.3-2.2-0.6-2.8C89.9,246.1,89.6,246,89.2,246
		L89.2,246z M73.7,271.5c-0.7,0-1.4,0.4-1.7,1c-1.2,2.1-2.4,4.2-3.5,6.3c0,0,0,0,0,0c0,0-0.1,0.1-0.1,0.1c0,0,0,0.1-0.1,0.1
		c0,0,0,0,0,0c-0.1,0.1-0.1,0.2-0.2,0.3c-0.5,1-0.2,2.2,0.8,2.7c0.3,0.2,0.6,0.2,1,0.2c0.7,0,1.4-0.4,1.8-1c1.3-2.3,2.6-4.6,3.9-6.9
		c0.5-1,0.2-2.2-0.8-2.7C74.4,271.6,74,271.5,73.7,271.5L73.7,271.5z M65.1,287.2c-0.7,0-1.4,0.4-1.8,1.1c-0.9,1.8-1.9,3.6-2.8,5.4
		c0,0,0,0,0,0.1c0,0,0,0.1-0.1,0.1c0,0,0,0.1,0,0.1c0,0,0,0.1-0.1,0.1c0,0,0,0.1-0.1,0.1c0,0,0,0.1,0,0.1c0,0,0,0.1-0.1,0.1
		c0,0,0,0,0,0c-1.2,2.4-2.4,4.9-3.6,7.3c-0.5,1-0.1,2.2,0.9,2.7c0.3,0.1,0.6,0.2,0.9,0.2c0.7,0,1.5-0.4,1.8-1.1
		c2.2-4.4,4.4-8.9,6.7-13.3c0.5-1,0.1-2.2-0.8-2.7C65.7,287.3,65.4,287.2,65.1,287.2L65.1,287.2z M46,327.8c-0.8,0-1.5,0.5-1.8,1.2
		c-1.2,2.9-2.4,5.8-3.6,8.8c0,0,0,0,0,0c0,0.1-0.1,0.2-0.1,0.4c0,0,0,0,0,0c0,0.1,0,0.1-0.1,0.2c0,0,0,0,0,0c0,0,0,0.1-0.1,0.1
		c0,0,0,0,0,0c0,0.1,0,0.1-0.1,0.2c0,0,0,0,0,0c0,0,0,0.1,0,0.1c0,0,0,0.1,0,0.1c0,0,0,0.1,0,0.1c0,0,0,0.1,0,0.1c0,0,0,0,0,0.1
		c0,0.1-0.1,0.2-0.1,0.2l0,0c0,0,0,0.1,0,0.1c0,0,0,0,0,0c0,0,0,0.1,0,0.1c0,0,0,0,0,0c-0.1,0.2-0.1,0.4-0.2,0.6l0,0
		c-0.7,1.7-1.3,3.4-2,5.1c0,0,0,0,0,0c0,0,0,0.1-0.1,0.1c0,0,0,0,0,0c0,0.1-0.1,0.3-0.1,0.4c0,0,0,0,0,0c0,0,0,0.1,0,0.1
		c0,0,0,0,0,0.1c0,0,0,0.1,0,0.1c0,0,0,0.1,0,0.1c0,0,0,0,0,0.1c0,0.1,0,0.1-0.1,0.2c0,0,0,0,0,0.1c0,0,0,0.1,0,0.1c0,0,0,0,0,0.1
		c0,0.1,0,0.1-0.1,0.2c0,0,0,0,0,0c0,0.1-0.1,0.3-0.1,0.4l0,0c0,0.1-0.1,0.2-0.1,0.2c-0.4,1,0.1,2.2,1.2,2.6
		c0.2,0.1,0.5,0.1,0.7,0.1c0.8,0,1.6-0.5,1.9-1.3c2.3-6.2,4.8-12.4,7.3-18.4c0.4-1-0.1-2.2-1.1-2.6C46.5,327.8,46.3,327.8,46,327.8
		L46,327.8z M35.2,355.7c-0.8,0-1.6,0.5-1.9,1.3c-0.2,0.6-0.4,1.2-0.6,1.8c0,0,0,0,0,0c0,0.1,0,0.1-0.1,0.2c0,0,0,0,0,0
		c-0.1,0.2-0.1,0.3-0.2,0.5c0,0,0,0.1,0,0.1c0,0,0,0.1,0,0.1c0,0,0,0.1,0,0.1c0,0,0,0.1,0,0.1c0,0,0,0.1,0,0.1c0,0,0,0.1,0,0.1
		c0,0.1,0,0.1-0.1,0.2c0,0,0,0,0,0c0,0.1-0.1,0.1-0.1,0.2c0,0,0,0,0,0c0,0.1,0,0.1-0.1,0.2c0,0,0,0,0,0.1c0,0.1,0,0.1-0.1,0.2
		c0,0,0,0,0,0.1c0,0.1,0,0.1-0.1,0.2c0,0,0,0,0,0.1c0,0.1,0,0.1-0.1,0.2c0,0,0,0,0,0.1c0,0.1,0,0.1-0.1,0.2c0,0,0,0.1,0,0.1
		c0,0,0,0.1,0,0.1c0,0,0,0.1,0,0.1c0,0,0,0.1,0,0.1c-0.3,0.8-0.6,1.7-0.8,2.5c-0.3,1,0.2,2.2,1.3,2.5c0.2,0.1,0.4,0.1,0.6,0.1
		c0.8,0,1.6-0.5,1.9-1.4c0.8-2.5,1.7-5,2.6-7.5c0.4-1-0.2-2.2-1.2-2.6C35.7,355.7,35.4,355.7,35.2,355.7L35.2,355.7z M29.5,372.7
		c-0.8,0-1.6,0.5-1.9,1.4c0,0,0,0,0,0.1c0,0,0,0.1,0,0.1c0,0,0,0.1,0,0.1c0,0,0,0.1,0,0.1c0,0,0,0.1,0,0.1c0,0,0,0,0,0
		c-1.4,4.6-2.8,9.2-4.2,13.9c-0.3,1.1,0.3,2.2,1.4,2.5c0.2,0.1,0.4,0.1,0.5,0.1c0.9,0,1.7-0.6,1.9-1.5c1.4-4.8,2.8-9.5,4.3-14.3
		c0.3-1.1-0.3-2.2-1.3-2.5C29.9,372.7,29.7,372.7,29.5,372.7L29.5,372.7z M17.9,415.9c-0.9,0-1.7,0.6-1.9,1.6
		c-0.3,1.3-0.6,2.6-0.9,3.9c0,0,0,0,0,0c0,0.1,0,0.1,0,0.2c0,0,0,0,0,0c0,0.1-0.1,0.2-0.1,0.4c0,0,0,0,0,0.1c0,0,0,0.1,0,0.1
		c0,0,0,0.1,0,0.1c0,0,0,0.1,0,0.1c0,0,0,0.1,0,0.1c0,0,0,0.1,0,0.1c0,0,0,0.1,0,0.1c0,0,0,0,0,0.1c0,0,0,0.1,0,0.1c0,0,0,0,0,0
		c0,0.1-0.1,0.3-0.1,0.4l0,0c-1,4.6-1.9,9.2-2.7,13.8c-0.2,1.1,0.5,2.1,1.6,2.3c0.1,0,0.2,0,0.4,0c0.9,0,1.8-0.7,2-1.6
		c1.2-6.5,2.5-13,4-19.4c0.2-1.1-0.4-2.1-1.5-2.4C18.2,416,18,415.9,17.9,415.9L17.9,415.9z M12.2,445.3c-1,0-1.8,0.7-2,1.7
		c0,0,0,0.1,0,0.1c0,0,0,0,0,0c0,0.1,0,0.1,0,0.2c0,0,0,0,0,0c-0.2,1.2-0.4,2.3-0.6,3.4c0,0,0,0,0,0c0,0.1,0,0.1,0,0.2
		c0,0,0,0,0,0.1c0,0.1,0,0.1,0,0.2c0,0,0,0,0,0c0,0.2-0.1,0.4-0.1,0.5c0,0,0,0,0,0.1c0,0.1,0,0.1,0,0.2c0,0,0,0,0,0.1
		c0,0,0,0.1,0,0.1c0,0,0,0,0,0.1c0,0.1,0,0.1,0,0.2c0,0,0,0,0,0c-0.1,0.8-0.2,1.6-0.4,2.4c-0.2,1.1,0.6,2.1,1.7,2.3
		c0.1,0,0.2,0,0.3,0c1,0,1.8-0.7,2-1.7c0.4-2.6,0.8-5.2,1.2-7.8c0.2-1.1-0.6-2.1-1.6-2.3C12.4,445.3,12.3,445.3,12.2,445.3
		L12.2,445.3z M9.6,463c-1,0-1.8,0.7-2,1.7c-0.6,4.9-1.2,9.9-1.7,14.9c-0.1,1.1,0.7,2.1,1.8,2.2c0.1,0,0.1,0,0.2,0
		c1,0,1.9-0.8,2-1.8c0.5-4.9,1.1-9.9,1.7-14.8c0.1-1.1-0.6-2.1-1.7-2.2C9.7,463,9.6,463,9.6,463L9.6,463z M5.7,507.7
		c-1.1,0-1.9,0.8-2,1.9c-0.1,1.8-0.2,3.7-0.2,5.5v0c0,0.2,0,0.4,0,0.6c0,0,0,0,0,0c0,0.1,0,0.1,0,0.2c0,0,0,0,0,0c0,0.1,0,0.1,0,0.2
		c0,0,0,0,0,0c0,0.1,0,0.1,0,0.2c0,0,0,0,0,0c0,0.1,0,0.1,0,0.2c0,0,0,0,0,0c0,0.1,0,0.1,0,0.2c0,0,0,0,0,0c0,0.1,0,0.1,0,0.2
		c0,0,0,0,0,0c0,0.1,0,0.2,0,0.4c0,0,0,0,0,0.1c0,0,0,0.1,0,0.1c0,0,0,0,0,0.1c0,0.1,0,0.1,0,0.2c0,0,0,0,0,0c0,0.1,0,0.1,0,0.2
		c0,0,0,0,0,0.1c0,0,0,0.1,0,0.2c0,0,0,0,0,0c0,0.1,0,0.1,0,0.2c0,0,0,0,0,0c0,0.1,0,0.1,0,0.2c0,0,0,0,0,0.1c0,0.1,0,0.1,0,0.2
		c0,0,0,0,0,0c0,0.1,0,0.1,0,0.2c0,0,0,0,0,0c0,0.1,0,0.1,0,0.2c0,0,0,0,0,0c0,0.1,0,0.2,0,0.4c0,0,0,0,0,0.1c0,0,0,0.1,0,0.1
		c0,0,0,0,0,0.1c0,0.1,0,0.1,0,0.2c0,0,0,0,0,0c0,0.1,0,0.1,0,0.2c0,0,0,0,0,0.1c0,0,0,0.1,0,0.1c0,0,0,0,0,0c0,0.1,0,0.1,0,0.2
		c0,0,0,0,0,0c0,0.1,0,0.1,0,0.2c0,0,0,0,0,0c0,0.1,0,0.1,0,0.2c0,0,0,0,0,0c0,0.1,0,0.1,0,0.2c0,0,0,0,0,0c0,0,0,0.1,0,0.1
		c0,0,0,0,0,0.1c0,0.1,0,0.1,0,0.2c0,0,0,0,0,0c0,0.1,0,0.1,0,0.2c0,0,0,0,0,0c0,0,0,0.1,0,0.2c0,0,0,0,0,0c0,0.1,0,0.1,0,0.2
		c0,0,0,0,0,0c0,0,0,0.1,0,0.2c0,0,0,0,0,0.1c0,0,0,0.1,0,0.1c0,0,0,0,0,0.1c0,0.1,0,0.1,0,0.2c0,0,0,0,0,0.1c0,0,0,0.1,0,0.1
		c0,0,0,0.1,0,0.1c0,0,0,0.1,0,0.1c0,0,0,0.1,0,0.1c0,0.1,0,0.1,0,0.2c0,0,0,0.1,0,0.1c0,0,0,0.1,0,0.1c0,0,0,0.1,0,0.1
		c0,0,0,0.1,0,0.1c0,0.1,0,0.1,0,0.2c0,0,0,0.1,0,0.1c0,0,0,0.1,0,0.1c0,0,0,0,0,0.1c0,0,0,0.1,0,0.1c0,0,0,0,0,0c0,0.1,0,0.3,0,0.4
		l0,0c0,1.5,0,2.9-0.1,4.4c0,1.1,0.9,2,2,2c0,0,0,0,0,0c1.1,0,2-0.9,2-2c0-6.6,0.2-13.3,0.5-19.8C7.7,508.6,6.9,507.7,5.7,507.7
		C5.7,507.7,5.7,507.7,5.7,507.7L5.7,507.7z M5.2,537.6C5.2,537.6,5.2,537.6,5.2,537.6c-1.1,0-2,0.9-2,2c0,0.3,0,0.6,0,0.9
		c0,0,0,0,0,0.1c0,0,0,0.1,0,0.1c0,0,0,0.1,0,0.1c0,0,0,0.1,0,0.1c0,1.3,0,2.6,0.1,4l0,0c0,0.1,0,0.2,0,0.2l0,0c0,0.2,0,0.5,0,0.7
		l0,0c0,0.1,0,0.1,0,0.2c0,0,0,0.1,0,0.1c0,0.1,0,0.1,0,0.2c0,0,0,0,0,0.1c0,0.1,0,0.1,0,0.2c0,0,0,0.1,0,0.1c0,0.1,0,0.1,0,0.2
		c0,0,0,0,0,0.1c0,0.1,0,0.2,0,0.2c0,0,0,0,0,0.1c0,0.1,0,0.1,0,0.2c0,0,0,0.1,0,0.1c0,0.1,0,0.1,0,0.2c0,0,0,0,0,0
		c0,1.1,0.9,1.9,2,1.9c0,0,0,0,0.1,0c1.1,0,2-0.9,1.9-2.1c-0.1-2.6-0.1-5.3-0.1-7.9C7.2,538.4,6.3,537.6,5.2,537.6L5.2,537.6z
		 M5.7,555.5C5.6,555.5,5.6,555.5,5.7,555.5c-1.2,0.1-2,1-2,2.1c0.1,1.2,0.1,2.5,0.2,3.7c0,0,0,0,0,0.1c0,0.1,0,0.1,0,0.1
		c0,0,0,0.1,0,0.1c0,0,0,0.1,0,0.1c0,0,0,0.1,0,0.1c0,0,0,0.1,0,0.1c0,0,0,0.1,0,0.1c0,0,0,0.1,0,0.1c0,0,0,0.1,0,0.1
		c0,0,0,0.1,0,0.1c0,0,0,0.1,0,0.1c0,0,0,0,0,0.1c0,0.1,0,0.1,0,0.2c0,0,0,0,0,0c0,0.2,0,0.3,0,0.5c0,0,0,0,0,0c0,0.1,0,0.1,0,0.2
		c0,0,0,0,0,0c0,0.1,0,0.1,0,0.2c0,0,0,0,0,0.1c0,0.1,0,0.1,0,0.2c0,0,0,0,0,0c0,0.1,0,0.1,0,0.2c0,0,0,0,0,0c0,0.1,0,0.1,0,0.2
		c0,0,0,0,0,0c0,0.1,0,0.1,0,0.2l0,0c0,0.2,0,0.5,0,0.7l0,0c0,0.1,0,0.1,0,0.2c0,0,0,0,0,0c0,0.1,0,0.1,0,0.2c0,0,0,0,0,0.1
		c0,0.1,0,0.1,0,0.2c0,0,0,0,0,0.1c0,0.1,0,0.1,0,0.2c0,0,0,0,0,0.1c0,0.1,0,0.1,0,0.2c0,0,0,0,0,0.1c0,0.1,0,0.1,0,0.2l0,0
		c0,0.1,0,0.1,0,0.2c0,0,0,0,0,0c0,0.2,0,0.3,0,0.5c0,0,0,0,0,0c0,0.1,0,0.1,0,0.2c0,0,0,0,0,0.1c0,0.1,0,0.1,0,0.2c0,0,0,0.1,0,0.1
		c0,0.1,0,0.1,0,0.2c0,0,0,0,0,0.1c0,0,0,0.1,0,0.1c0,0,0,0,0,0.1c0,0,0,0.1,0,0.1c0,0,0,0.1,0,0.1c0,0,0,0.1,0,0.1c0,0,0,0.1,0,0.1
		c0,0.1,0,0.1,0,0.2c0,0,0,0,0,0c0,0.2,0,0.3,0,0.5c0,0,0,0,0,0c0,0.1,0,0.1,0,0.2c0,0,0,0,0,0.1c0,0.1,0,0.1,0,0.2c0,0,0,0,0,0.1
		c0,0.1,0,0.1,0,0.2c0,0,0,0,0,0.1c0,0.1,0,0.1,0,0.2l0,0c0,0.1,0,0.1,0,0.2c0,0,0,0,0,0c0,0.6,0.1,1.2,0.1,1.9c0.1,1.1,1,1.9,2,1.9
		c0,0,0.1,0,0.1,0c1.1-0.1,1.9-1,1.8-2.1c-0.4-4.9-0.7-9.9-0.9-14.9C7.6,556.3,6.7,555.5,5.7,555.5L5.7,555.5z M9.6,600.1
		c-0.1,0-0.2,0-0.3,0c-1.1,0.1-1.9,1.1-1.7,2.2l0,0c0,0,0,0.1,0,0.1c0,0,0,0,0,0.1c0,0,0,0.1,0,0.1l0,0c0,0.1,0,0.2,0,0.3l0,0
		c0,0,0,0.1,0,0.1l0,0c0,0.2,0.1,0.4,0.1,0.6l0,0c0.8,6.2,1.7,12.3,2.8,18.4c0.2,1,1,1.7,2,1.7c0.1,0,0.2,0,0.3,0
		c1.1-0.2,1.8-1.2,1.6-2.3c-1.1-6.5-2.1-13.1-2.9-19.6C11.4,600.9,10.5,600.1,9.6,600.1L9.6,600.1z M14.2,629.6c-0.1,0-0.2,0-0.4,0
		c-1.1,0.2-1.8,1.2-1.6,2.3c0,0.1,0,0.1,0,0.1c0,0,0,0,0,0c0,0.1,0,0.1,0,0.2c0,0,0,0,0,0c0.1,0.7,0.3,1.3,0.4,2c0,0,0,0,0,0
		c0,0.1,0,0.1,0,0.2c0,0,0,0,0,0c0,0.1,0,0.1,0,0.2c0,0,0,0,0,0c0,0.2,0.1,0.3,0.1,0.5c0,0,0,0.1,0,0.1c0,0.1,0,0.1,0,0.1
		c0,0,0,0.1,0,0.1c0,0,0,0.1,0,0.1c0,0,0,0.1,0,0.1c0,0,0,0.1,0,0.1c0,0.2,0.1,0.3,0.1,0.5c0,0,0,0,0,0c0,0.1,0,0.1,0,0.2
		c0,0,0,0,0,0c0,0.1,0,0.1,0,0.2c0,0,0,0,0,0c0.2,1,0.4,2,0.6,2.9c0.2,0.9,1,1.6,2,1.6c0.1,0,0.3,0,0.4,0c1.1-0.2,1.8-1.3,1.6-2.4
		c-0.5-2.6-1-5.2-1.5-7.8C16,630.3,15.2,629.6,14.2,629.6L14.2,629.6z M17.9,647.2c-0.1,0-0.3,0-0.4,0c-1.1,0.2-1.8,1.3-1.5,2.4
		c0.2,0.9,0.4,1.8,0.6,2.7l0,0c0.1,0.5,0.2,0.9,0.3,1.4c0,0,0,0,0,0c0,0.1,0,0.1,0,0.2l0,0c0,0.1,0,0.1,0,0.2c0,0,0,0,0,0
		c0,0.1,0,0.1,0.1,0.2l0,0c0.1,0.3,0.1,0.6,0.2,0.9c0,0,0,0,0,0c0,0.1,0,0.1,0,0.2l0,0c0.7,2.9,1.4,5.8,2.1,8.6
		c0.2,0.9,1,1.5,1.9,1.5c0.2,0,0.3,0,0.5-0.1c1.1-0.3,1.7-1.4,1.4-2.4c-1.2-4.8-2.4-9.7-3.5-14.5C19.6,647.8,18.8,647.2,17.9,647.2
		L17.9,647.2z M29.5,690.5c-0.2,0-0.4,0-0.6,0.1c-1.1,0.3-1.6,1.5-1.3,2.5c0.1,0.3,0.2,0.7,0.3,1l0,0c0,0,0,0.1,0,0.1c0,0,0,0,0,0
		c0,0.1,0.1,0.2,0.1,0.3l0,0c0,0,0,0.1,0,0.1c0,0,0,0,0,0.1c0,0,0,0.1,0,0.1c0,0,0,0.1,0,0.1c0,0,0,0.1,0,0.1c0,0.1,0,0.1,0,0.2
		c0,0,0,0.1,0,0.1c0,0,0,0.1,0,0.1c0,0,0,0.1,0,0.1c0,0,0,0.1,0,0.1c0,0,0,0.1,0,0.1c0,0,0,0.1,0,0.1c0,0,0,0.1,0,0.1
		c0,0,0,0.1,0,0.1c0,0,0,0,0,0.1c0,0,0,0.1,0,0.1c0,0,0,0,0,0.1c0,0,0,0.1,0,0.1c0,0,0,0,0,0.1c0,0.1,0,0.1,0.1,0.2c0,0,0,0,0,0.1
		c0,0,0,0.1,0,0.1c0,0,0,0,0,0.1c0,0,0,0.1,0,0.1c0,0,0,0,0,0.1c0,0.1,0,0.1,0.1,0.2c0,0,0,0,0,0.1c0,0,0,0.1,0,0.1c0,0,0,0,0,0.1
		c0,0,0,0.1,0,0.1c0,0,0,0,0,0.1c0,0.1,0,0.1,0.1,0.2c0,0,0,0,0,0c0,0.1,0,0.1,0.1,0.2c0,0,0,0,0,0.1c0,0,0,0.1,0,0.1c0,0,0,0,0,0.1
		c0,0,0,0.1,0,0.1c0,0,0,0,0,0.1c0,0.1,0,0.1,0.1,0.2c0,0,0,0,0,0.1c0,0,0,0.1,0,0.1c0,0,0,0.1,0,0.1c0,0,0,0.1,0,0.1c0,0,0,0,0,0.1
		c0,0.1,0,0.1,0.1,0.2c0,0,0,0,0,0.1c0,0,0,0.1,0,0.1c0,0,0,0.1,0,0.1c0,0,0,0.1,0,0.1c0,0,0,0.1,0,0.1c0,0,0,0.1,0,0.1
		c0,0,0,0.1,0,0.1c0,0,0,0.1,0,0.1c0,0,0,0.1,0,0.1c0,0,0,0,0,0.1c0,0,0,0.1,0,0.1c0,0,0,0,0,0.1c0,0.1,0.1,0.2,0.1,0.4c0,0,0,0,0,0
		c0,0,0,0.1,0,0.1c0,0,0,0,0,0c0,0.1,0.1,0.3,0.1,0.4l0,0c0,0,0,0.1,0,0.1l0,0c0.1,0.2,0.1,0.4,0.2,0.6l0,0c0.6,1.9,1.3,3.8,2,5.8
		l0,0c0,0,0,0.1,0.1,0.1l0,0c0,0.1,0.1,0.3,0.1,0.4l0,0c0,0,0,0.1,0,0.1l0,0c0,0,0,0.1,0,0.1c0,0,0,0,0,0c0,0.1,0,0.1,0.1,0.2
		c0,0,0,0,0,0.1c0,0,0,0.1,0,0.1c0,0,0,0,0,0.1c0,0,0,0.1,0,0.1c0,0,0,0.1,0,0.1c0,0,0,0,0,0.1c0,0.1,0,0.1,0.1,0.2c0,0,0,0,0,0.1
		c0,0,0,0.1,0,0.1c0,0,0,0,0,0c0,0.1,0,0.1,0.1,0.2c0,0,0,0,0,0c0.3,0.7,0.5,1.5,0.8,2.2c0.3,0.8,1.1,1.3,1.9,1.3
		c0.2,0,0.5,0,0.7-0.1c1-0.4,1.6-1.5,1.2-2.6c-2.2-6.2-4.4-12.5-6.3-18.8C31.1,691,30.4,690.5,29.5,690.5L29.5,690.5z M39.3,718.7
		c-0.2,0-0.5,0-0.7,0.1c-1,0.4-1.6,1.5-1.2,2.6c0,0,0,0,0,0c0,0.1,0,0.1,0.1,0.2c0,0,0,0.1,0,0.1c0,0,0,0.1,0,0.1c0,0,0,0.1,0,0.1
		c0,0,0,0.1,0,0.1c0.1,0.2,0.1,0.3,0.2,0.5c0,0,0,0,0,0c0,0.1,0,0.1,0.1,0.2c0,0,0,0,0,0c0.7,1.9,1.5,3.9,2.3,5.8c0,0,0,0,0,0
		c0,0.1,0,0.1,0.1,0.2c0,0,0,0,0,0c0,0,0,0.1,0.1,0.1c0.3,0.8,1.1,1.3,1.9,1.3c0.2,0,0.5,0,0.7-0.1c1-0.4,1.5-1.6,1.1-2.6
		c-1-2.4-1.9-4.9-2.9-7.4C40.9,719.2,40.1,718.7,39.3,718.7L39.3,718.7z M46,735.4c-0.3,0-0.5,0.1-0.8,0.2c-1,0.4-1.5,1.6-1.1,2.6
		c0.7,1.6,1.4,3.3,2.1,4.9c0,0,0,0,0,0c0,0,0,0.1,0.1,0.1c0,0,0,0,0,0.1c0,0,0,0.1,0.1,0.1c0,0,0,0,0,0.1c0,0,0,0.1,0.1,0.1
		c0,0,0,0.1,0,0.1c0,0,0,0.1,0.1,0.1c0,0,0,0.1,0,0.1c0,0,0,0.1,0,0.1c0,0.1,0.1,0.1,0.1,0.2c0,0,0,0,0,0.1c0,0,0,0.1,0.1,0.1
		c0,0,0,0.1,0,0.1c0,0,0,0.1,0.1,0.1c0,0,0,0,0,0.1c0,0,0,0.1,0.1,0.1c0,0,0,0,0,0.1c0,0,0,0.1,0.1,0.1c0,0,0,0,0,0.1
		c0.1,0.2,0.2,0.4,0.3,0.6l0,0c0,0.1,0.1,0.1,0.1,0.2c0,0,0,0,0,0c0,0.1,0.1,0.1,0.1,0.2c0,0,0,0,0,0c0,0.1,0.1,0.1,0.1,0.2l0,0
		c0.1,0.3,0.2,0.6,0.4,0.9l0,0c0,0.1,0.1,0.1,0.1,0.2l0,0c0.2,0.4,0.3,0.7,0.5,1.1l0,0c0,0.1,0.1,0.1,0.1,0.2l0,0
		c0,0.1,0.1,0.1,0.1,0.2l0,0c0.1,0.3,0.3,0.6,0.4,0.8c0,0,0,0,0,0c0,0.1,0.1,0.1,0.1,0.2l0,0c0,0.1,0.1,0.1,0.1,0.2l0,0
		c0.1,0.2,0.2,0.4,0.3,0.6l0,0c0,0.1,0.1,0.1,0.1,0.2c0,0,0,0,0,0c0,0.1,0.1,0.1,0.1,0.2c0,0,0,0,0,0c0,0.1,0.1,0.1,0.1,0.2
		c0,0,0,0,0,0c0,0.1,0.1,0.1,0.1,0.2c0,0,0,0,0,0c0,0.1,0.1,0.1,0.1,0.2l0,0c0.3,0.7,1.1,1.2,1.8,1.2c0.3,0,0.6-0.1,0.8-0.2
		c1-0.5,1.5-1.6,1-2.6c-2-4.5-4-9.1-6-13.6C47.5,735.8,46.7,735.4,46,735.4L46,735.4z M65.1,775.9c-0.3,0-0.6,0.1-0.9,0.2
		c-1,0.5-1.4,1.7-0.8,2.7c0,0,0,0,0,0c0,0,0,0,0,0c0,0,0,0.1,0.1,0.1c0,0,0,0,0,0c0,0.1,0,0.1,0.1,0.1c0,0,0,0,0,0
		c0,0.1,0,0.1,0.1,0.1c0,0,0,0,0,0.1c0,0,0,0.1,0,0.1c0,0,0,0.1,0,0.1c0,0,0,0,0,0.1c0,0,0,0.1,0,0.1l0,0c0,0.1,0.1,0.1,0.1,0.2
		c0,0,0,0,0,0c0,0,0,0.1,0.1,0.1l0,0c0,0,0,0.1,0.1,0.1l0,0c0.1,0.1,0.1,0.3,0.2,0.4c0,0,0,0,0,0c0,0,0,0.1,0.1,0.1l0,0
		c2.8,5.2,5.6,10.4,8.5,15.5c0.4,0.6,1,1,1.7,1c0.3,0,0.7-0.1,1-0.3c1-0.5,1.3-1.8,0.7-2.7c-3.3-5.7-6.5-11.6-9.5-17.4
		C66.5,776.3,65.8,775.9,65.1,775.9L65.1,775.9z M79.7,802c-0.3,0-0.7,0.1-1,0.3c-0.9,0.6-1.3,1.8-0.7,2.7c1.4,2.3,2.8,4.6,4.2,6.9
		c0.4,0.6,1,0.9,1.7,0.9c0.4,0,0.7-0.1,1.1-0.3c0.9-0.6,1.2-1.8,0.6-2.8c-1.4-2.2-2.8-4.5-4.1-6.8C81,802.3,80.3,802,79.7,802
		L79.7,802z M89.1,817.2c-0.4,0-0.7,0.1-1.1,0.3c-0.9,0.6-1.2,1.8-0.6,2.8c2.7,4.2,5.5,8.4,8.3,12.5c0.4,0.6,1,0.9,1.7,0.9
		c0.4,0,0.8-0.1,1.1-0.4c0.9-0.6,1.1-1.9,0.5-2.8c-2.8-4.1-5.6-8.2-8.3-12.4C90.4,817.5,89.8,817.2,89.1,817.2L89.1,817.2z
		 M115,853.8c-0.4,0-0.9,0.1-1.2,0.4c-0.9,0.7-1,1.9-0.4,2.8c1.5,1.9,2.9,3.8,4.4,5.6c0,0,0,0,0,0c0,0,0.1,0.1,0.1,0.1c0,0,0,0,0,0
		c0,0,0,0.1,0.1,0.1c0,0,0,0.1,0.1,0.1c0,0,0.1,0.1,0.1,0.1c0,0,0,0.1,0.1,0.1c0,0,0,0,0.1,0.1c0,0,0,0,0.1,0.1c0,0,0,0,0.1,0.1
		c0,0,0.1,0.1,0.1,0.1c0,0,0,0,0,0c0,0.1,0.1,0.1,0.1,0.1c0,0,0,0,0,0c0,0,0.1,0.1,0.1,0.1c0,0,0,0,0,0c0,0,0.1,0.1,0.1,0.1
		c0,0,0,0,0,0c0.1,0.2,0.2,0.3,0.4,0.4c0,0,0,0,0,0c0,0.1,0.1,0.1,0.1,0.2c0,0,0,0,0,0c2.2,2.7,4.4,5.4,6.6,8c0.4,0.5,1,0.7,1.5,0.7
		c0.5,0,0.9-0.2,1.3-0.5c0.8-0.7,1-2,0.3-2.8c-4.2-5.1-8.4-10.3-12.4-15.5C116.2,854,115.6,853.8,115,853.8L115,853.8z M134,876.9
		c-0.5,0-0.9,0.2-1.3,0.5c-0.8,0.7-0.9,2-0.2,2.8c0.2,0.2,0.4,0.4,0.6,0.7c0,0,0,0,0,0c0,0,0.1,0.1,0.1,0.1c0,0,0,0,0,0.1
		c0,0,0.1,0.1,0.1,0.1c0,0.1,0.1,0.1,0.1,0.2c0,0,0,0,0.1,0.1c0,0,0.1,0.1,0.1,0.1c0,0,0,0,0.1,0.1c0,0,0.1,0.1,0.1,0.1
		c0,0,0,0,0,0.1c1.3,1.5,2.6,3,4,4.5c0.4,0.4,0.9,0.7,1.5,0.7c0.5,0,1-0.2,1.3-0.5c0.8-0.7,0.9-2,0.2-2.8c-1.8-2-3.5-4-5.2-6
		C135.1,877.1,134.5,876.9,134,876.9L134,876.9z M146,890.2c-0.5,0-1,0.2-1.4,0.5c-0.8,0.8-0.9,2-0.1,2.8c3,3.2,6,6.4,9,9.5l0,0
		c0.4,0.4,0.9,0.9,1.3,1.3c0.4,0.4,0.9,0.6,1.4,0.6c0.5,0,1-0.2,1.4-0.6c0.8-0.8,0.8-2,0-2.8c-3.5-3.5-6.9-7.1-10.3-10.8
		C147,890.4,146.5,890.2,146,890.2L146,890.2z M177.8,921.7c-0.5,0-1.1,0.2-1.5,0.7c-0.7,0.8-0.7,2.1,0.1,2.8l0,0
		c0.1,0.1,0.1,0.1,0.2,0.2l0,0c0.1,0.1,0.1,0.1,0.2,0.2c0,0,0,0,0,0c0.1,0.1,0.3,0.3,0.4,0.4l0,0c0.1,0.1,0.3,0.3,0.4,0.4
		c0,0,0,0,0,0c0.1,0.1,0.1,0.1,0.2,0.2l0,0c0.1,0.1,0.1,0.1,0.2,0.2l0,0c0.1,0.1,0.1,0.1,0.2,0.2c0,0,0,0,0,0
		c0.1,0.1,0.3,0.3,0.4,0.4l0,0c0.2,0.1,0.3,0.3,0.5,0.4l0,0c0.1,0.1,0.2,0.1,0.2,0.2l0,0c0.2,0.1,0.3,0.3,0.5,0.4l0,0
		c0.2,0.1,0.3,0.3,0.5,0.4l0,0c1.9,1.7,3.7,3.3,5.6,4.9c0,0,0,0,0,0c0.2,0.1,0.3,0.3,0.5,0.4l0,0c0.2,0.1,0.3,0.3,0.5,0.4
		c0,0,0,0,0,0c0.1,0.1,0.1,0.1,0.2,0.2l0,0c0.1,0.1,0.1,0.1,0.2,0.2l0,0c0.1,0.1,0.1,0.1,0.2,0.2c0,0,0,0,0,0
		c0.1,0.1,0.1,0.1,0.2,0.2l0,0c0.1,0.1,0.1,0.1,0.2,0.2c0,0,0,0,0,0c0.1,0.1,0.1,0.1,0.2,0.2c0,0,0,0,0.1,0c0.1,0,0.1,0.1,0.2,0.1
		c0,0,0.1,0,0.1,0.1c0.1,0.1,0.1,0.1,0.2,0.2c0,0,0.1,0,0.1,0.1c0,0,0.1,0.1,0.1,0.1c0,0,0,0,0.1,0.1c0.1,0,0.1,0.1,0.2,0.1
		c0,0,0.1,0.1,0.1,0.1c0,0,0.1,0.1,0.1,0.1c0.1,0,0.1,0.1,0.2,0.1c0,0,0.1,0.1,0.1,0.1c0,0,0.1,0.1,0.1,0.1c0,0,0.1,0,0.1,0.1
		c0.1,0.1,0.1,0.1,0.2,0.2c0,0,0,0,0.1,0c0.1,0.1,0.3,0.2,0.4,0.4c0,0,0,0,0,0c0.2,0.2,0.4,0.3,0.6,0.5c0.4,0.3,0.8,0.5,1.3,0.5
		c0.6,0,1.1-0.2,1.5-0.7c0.7-0.8,0.6-2.1-0.2-2.8c-5-4.2-10.1-8.6-14.9-13.1C178.8,921.9,178.3,921.7,177.8,921.7L177.8,921.7z
		 M200.5,941.2c-0.6,0-1.2,0.3-1.6,0.7c-0.7,0.9-0.6,2.1,0.3,2.8c0.3,0.3,0.6,0.5,1,0.8l0,0c0.1,0.1,0.2,0.2,0.4,0.3
		c0,0,0,0,0.1,0.1c0,0,0.1,0,0.1,0.1c0,0,0.1,0.1,0.1,0.1c0,0,0,0,0.1,0c0,0,0.1,0.1,0.1,0.1c0,0,0,0,0,0c0.6,0.5,1.2,1,1.9,1.5
		c0,0,0,0,0,0c0,0,0.1,0.1,0.1,0.1c0,0,0,0,0,0c0,0,0.1,0.1,0.1,0.1c0,0,0,0,0,0c0,0,0.1,0.1,0.1,0.1c0,0,0,0,0,0
		c0.1,0.1,0.1,0.1,0.2,0.2c0,0,0.1,0.1,0.1,0.1c0,0,0,0,0.1,0.1c0,0,0.1,0.1,0.1,0.1c0,0,0,0,0.1,0c0.1,0,0.1,0.1,0.2,0.1l0,0
		c0.5,0.4,0.9,0.7,1.4,1.1c0.4,0.3,0.8,0.4,1.2,0.4c0.6,0,1.2-0.3,1.6-0.8c0.7-0.9,0.5-2.1-0.3-2.8c-2.1-1.6-4.2-3.3-6.2-5
		C201.4,941.4,200.9,941.2,200.5,941.2L200.5,941.2z M214.6,952.3c-0.6,0-1.2,0.3-1.6,0.8c-0.7,0.9-0.5,2.1,0.4,2.8
		c1.5,1.1,3,2.2,4.4,3.3c0,0,0,0,0,0c0,0,0.1,0.1,0.1,0.1c0,0,0,0,0.1,0c0,0,0.1,0,0.1,0.1c0,0,0.1,0,0.1,0.1c0,0,0.1,0,0.1,0.1
		c0,0,0.1,0.1,0.1,0.1c0,0,0,0,0,0c0.1,0.1,0.2,0.2,0.4,0.3l0,0c0.1,0,0.1,0.1,0.2,0.1l0,0c2.1,1.6,4.3,3.1,6.5,4.7
		c0.4,0.3,0.8,0.4,1.2,0.4c0.6,0,1.2-0.3,1.6-0.8c0.6-0.9,0.4-2.1-0.5-2.8c-4-2.9-8.1-5.8-12-8.8C215.5,952.4,215,952.3,214.6,952.3
		L214.6,952.3z M251.5,977.7c-0.7,0-1.3,0.3-1.7,0.9c-0.6,0.9-0.3,2.2,0.6,2.8c0.1,0.1,0.2,0.1,0.3,0.2c0,0,0,0,0,0
		c0.1,0,0.1,0,0.1,0.1c0,0,0,0,0,0c0,0,0.1,0,0.1,0.1c0,0,0,0,0.1,0c0.1,0,0.1,0.1,0.1,0.1c0,0,0,0,0.1,0c0,0,0.1,0,0.1,0.1
		c0,0,0.1,0,0.1,0.1c0,0,0,0,0.1,0c0,0,0.1,0,0.1,0.1c0,0,0,0,0,0c0.1,0.1,0.2,0.2,0.4,0.2c0,0,0,0,0,0c0,0,0.1,0.1,0.1,0.1l0,0
		c5.1,3.2,10.2,6.3,15.4,9.3c0.3,0.2,0.7,0.3,1,0.3c0.7,0,1.4-0.4,1.7-1c0.6-1,0.2-2.2-0.7-2.7c-5.7-3.3-11.4-6.8-17-10.3
		C252.2,977.8,251.8,977.7,251.5,977.7L251.5,977.7z M277.2,993c-0.7,0-1.4,0.4-1.8,1c-0.5,1-0.2,2.2,0.8,2.7
		c0.2,0.1,0.4,0.2,0.7,0.4c0,0,0,0,0,0c0.1,0,0.1,0.1,0.2,0.1c0,0,0,0,0.1,0c0,0,0.1,0,0.1,0.1c0,0,0.1,0,0.1,0c0,0,0,0,0,0
		c0.1,0.1,0.2,0.1,0.3,0.2c0,0,0,0,0,0c0.1,0,0.1,0.1,0.2,0.1c0,0,0,0,0,0c0.5,0.3,1,0.6,1.5,0.8c0,0,0,0,0,0c0,0,0.1,0,0.1,0.1
		c0,0,0.1,0,0.1,0c0,0,0.1,0,0.1,0.1c0,0,0.1,0,0.1,0.1c0,0,0,0,0.1,0c0.1,0,0.1,0.1,0.2,0.1c0,0,0,0,0,0c0.1,0,0.1,0.1,0.2,0.1
		c0,0,0,0,0,0c0.1,0,0.1,0.1,0.2,0.1c0,0,0,0,0,0c0.9,0.5,1.8,0.9,2.6,1.4c0.3,0.2,0.6,0.2,0.9,0.2c0.7,0,1.4-0.4,1.8-1.1
		c0.5-1,0.2-2.2-0.8-2.7c-2.3-1.2-4.7-2.5-7-3.8C277.9,993,277.5,993,277.2,993L277.2,993z M293,1001.4c-0.7,0-1.4,0.4-1.8,1.1
		c-0.5,1-0.1,2.2,0.9,2.7c0,0,0,0,0.1,0c0,0,0,0,0.1,0c0,0,0.1,0,0.1,0.1c0,0,0,0,0,0c0.2,0.1,0.4,0.2,0.7,0.3c0,0,0,0,0,0
		c0.1,0,0.1,0.1,0.2,0.1c0,0,0,0,0,0c0.1,0,0.1,0.1,0.2,0.1c0,0,0,0,0,0c0.3,0.2,0.6,0.3,0.9,0.4c0,0,0,0,0,0c0.1,0,0.1,0.1,0.2,0.1
		c0,0,0,0,0,0c0.4,0.2,0.7,0.4,1.1,0.5c0,0,0,0,0,0c0.1,0,0.1,0.1,0.2,0.1c0,0,0,0,0,0c0.1,0,0.1,0,0.2,0.1c0,0,0,0,0,0
		c0.2,0.1,0.4,0.2,0.7,0.3c0,0,0,0,0.1,0c0,0,0.1,0,0.1,0.1c0,0,0.1,0,0.1,0c0,0,0.1,0,0.1,0.1c0,0,0.1,0,0.1,0c0,0,0.1,0,0.1,0
		c0,0,0.1,0,0.1,0.1c0,0,0.1,0,0.1,0c0.1,0,0.1,0.1,0.2,0.1c0,0,0,0,0,0c0.1,0,0.1,0.1,0.2,0.1c0,0,0,0,0,0c0.1,0,0.1,0.1,0.2,0.1
		c0,0,0,0,0.1,0c0.1,0,0.1,0.1,0.2,0.1c0,0,0,0,0,0c0.1,0,0.1,0.1,0.2,0.1c0,0,0,0,0,0c2.4,1.2,4.8,2.3,7.2,3.5
		c0.3,0.1,0.6,0.2,0.9,0.2c0.7,0,1.5-0.4,1.8-1.1c0.5-1,0-2.2-0.9-2.7c-4.5-2.1-9-4.3-13.4-6.6
		C293.7,1001.5,293.3,1001.4,293,1001.4L293,1001.4z M333.8,1020c-0.8,0-1.5,0.5-1.9,1.2c-0.4,1,0.1,2.2,1.1,2.6
		c0.2,0.1,0.4,0.2,0.6,0.3c0,0,0,0,0,0c0.1,0,0.1,0,0.2,0.1c0,0,0,0,0,0c0.2,0.1,0.4,0.1,0.5,0.2c0,0,0,0,0,0
		c0.2,0.1,0.3,0.1,0.5,0.2c0,0,0,0,0,0c0.1,0,0.1,0,0.1,0.1c0,0,0,0,0,0c0.1,0.1,0.2,0.1,0.4,0.1c0,0,0,0,0,0c0.1,0,0.1,0,0.1,0.1
		c0,0,0,0,0,0c0.1,0,0.1,0,0.2,0.1c0,0,0,0,0,0c0.1,0,0.1,0,0.2,0.1c0,0,0,0,0,0c0.1,0,0.1,0,0.1,0.1c0,0,0,0,0,0c0,0,0.1,0,0.1,0.1
		c0,0,0,0,0,0c0.1,0,0.1,0,0.2,0.1c0,0,0,0,0,0c0.1,0,0.1,0,0.2,0.1c0,0,0,0,0,0c0,0,0.1,0,0.1,0.1c0,0,0,0,0,0c0.1,0,0.1,0,0.1,0.1
		c0,0,0,0,0,0c0.1,0,0.1,0,0.2,0.1c0,0,0,0,0,0c0,0,0.1,0,0.1,0.1c0,0,0,0,0,0c0,0,0.1,0,0.1,0.1c0,0,0,0,0,0c0.1,0,0.1,0,0.2,0.1
		c0,0,0,0,0,0c0,0,0.1,0,0.1,0.1c0,0,0,0,0.1,0c0,0,0.1,0,0.1,0c0,0,0,0,0.1,0c0.1,0,0.1,0,0.2,0.1c0,0,0,0,0,0c0.1,0,0.1,0,0.2,0.1
		c0,0,0,0,0,0c0,0,0.1,0,0.1,0.1c0,0,0,0,0.1,0c0,0,0.1,0,0.1,0.1c0,0,0,0,0,0c0.1,0,0.1,0,0.2,0.1c0,0,0,0,0,0c0.1,0,0.1,0,0.1,0.1
		c0,0,0,0,0,0c0,0,0.1,0,0.1,0c0,0,0,0,0.1,0c0.1,0,0.2,0.1,0.3,0.1c0,0,0,0,0,0c0,0,0.1,0,0.1,0.1c0,0,0,0,0,0c0.1,0,0.1,0,0.2,0.1
		c0,0,0,0,0,0c0.1,0,0.1,0,0.2,0.1c0,0,0,0,0,0c0.1,0,0.1,0,0.1,0.1c0,0,0,0,0,0c0.1,0,0.1,0,0.1,0.1c0,0,0,0,0,0
		c0.1,0,0.2,0.1,0.4,0.1c0,0,0,0,0,0c0.1,0,0.1,0,0.2,0.1c0,0,0,0,0,0c0.1,0,0.2,0.1,0.4,0.1c0,0,0,0,0,0c0.1,0,0.1,0,0.2,0.1
		c0,0,0,0,0,0c0.2,0.1,0.4,0.1,0.6,0.2c0,0,0,0,0,0c3,1.2,6,2.3,9,3.4c0.2,0.1,0.4,0.1,0.7,0.1c0.8,0,1.6-0.5,1.9-1.3
		c0.4-1-0.2-2.2-1.2-2.6c-6.2-2.2-12.4-4.6-18.5-7.1C334.3,1020.1,334,1020,333.8,1020L333.8,1020z M361.8,1030.5
		c-0.8,0-1.6,0.5-1.9,1.4c-0.4,1,0.2,2.2,1.2,2.5c0.2,0.1,0.3,0.1,0.5,0.2l0,0c0.1,0,0.1,0,0.2,0.1l0,0c0.2,0.1,0.3,0.1,0.5,0.2
		c0,0,0,0,0.1,0c0.1,0,0.1,0,0.2,0.1c0,0,0,0,0.1,0c0,0,0.1,0,0.1,0c0,0,0.1,0,0.1,0c0,0,0.1,0,0.1,0c0,0,0.1,0,0.1,0
		c0.1,0,0.1,0,0.2,0.1c0,0,0.1,0,0.1,0c0,0,0.1,0,0.1,0c0,0,0.1,0,0.1,0c0,0,0.1,0,0.1,0c0,0,0.1,0,0.1,0c0,0,0.1,0,0.1,0
		c0,0,0.1,0,0.1,0c0,0,0,0,0.1,0c0.1,0,0.2,0.1,0.3,0.1c0,0,0,0,0.1,0c0,0,0.1,0,0.1,0c0,0,0,0,0.1,0c0,0,0.1,0,0.1,0c0,0,0,0,0.1,0
		c0.2,0.1,0.5,0.2,0.7,0.2c0,0,0,0,0,0c0.1,0,0.1,0,0.2,0.1c0,0,0,0,0,0c1,0.3,2,0.7,3,1c0.2,0.1,0.4,0.1,0.6,0.1
		c0.8,0,1.6-0.5,1.9-1.4c0.3-1.1-0.2-2.2-1.3-2.5c-2.5-0.8-5-1.7-7.5-2.5C362.2,1030.5,362,1030.5,361.8,1030.5L361.8,1030.5z
		 M378.9,1036c-0.9,0-1.7,0.6-1.9,1.4c-0.3,1.1,0.3,2.2,1.3,2.5c4.3,1.3,8.6,2.6,13,3.8c0,0,0,0,0,0c0.1,0,0.1,0,0.2,0c0,0,0,0,0,0
		c0,0,0.1,0,0.1,0c0,0,0,0,0.1,0c0,0,0.1,0,0.1,0c0,0,0,0,0.1,0c0,0,0.1,0,0.1,0c0,0,0.1,0,0.1,0c0.1,0,0.1,0,0.2,0c0,0,0.1,0,0.1,0
		c0,0,0,0,0.1,0c0,0,0.1,0,0.1,0l0,0c0.2,0,0.4,0.1,0.5,0.1c0.9,0,1.7-0.6,1.9-1.5c0.3-1.1-0.3-2.2-1.4-2.5
		c-4.8-1.3-9.6-2.7-14.3-4.1C379.2,1036,379,1036,378.9,1036L378.9,1036z M422.2,1047.1c-0.9,0-1.8,0.6-2,1.6
		c-0.2,1.1,0.5,2.1,1.5,2.4c2.8,0.6,5.6,1.2,8.3,1.7c0,0,0,0,0,0c0.2,0,0.4,0.1,0.6,0.1c0,0,0,0,0,0c0.2,0,0.4,0.1,0.6,0.1
		c0,0,0,0,0,0c0.2,0,0.4,0.1,0.6,0.1c0,0,0,0,0,0c3.2,0.6,6.3,1.2,9.5,1.7c0.1,0,0.2,0,0.3,0c1,0,1.8-0.7,2-1.7
		c0.2-1.1-0.5-2.1-1.6-2.3c-6.5-1.1-13.1-2.4-19.5-3.7C422.5,1047.2,422.4,1047.1,422.2,1047.1L422.2,1047.1z M451.6,1052.5
		c-1,0-1.8,0.7-2,1.7c-0.2,1.1,0.6,2.1,1.7,2.3c0,0,0,0,0,0c0.2,0,0.3,0,0.5,0.1c0,0,0,0,0,0c0.1,0,0.1,0,0.2,0c0,0,0,0,0,0
		c0.1,0,0.1,0,0.2,0c0,0,0,0,0,0c0.2,0,0.5,0.1,0.7,0.1c0,0,0,0,0,0c0.1,0,0.1,0,0.2,0c0,0,0,0,0.1,0c0.1,0,0.1,0,0.2,0
		c0,0,0.1,0,0.1,0c0.1,0,0.1,0,0.2,0c0,0,0,0,0.1,0c0.1,0,0.1,0,0.2,0c0,0,0,0,0.1,0c0,0,0.1,0,0.1,0c0.1,0,0.1,0,0.1,0
		c0,0,0.1,0,0.1,0c0,0,0.1,0,0.1,0c0,0,0.1,0,0.1,0c0.1,0,0.1,0,0.1,0c0,0,0.1,0,0.1,0c0.2,0,0.4,0.1,0.5,0.1c0,0,0,0,0,0
		c0.1,0,0.1,0,0.2,0c0,0,0,0,0.1,0c0.1,0,0.1,0,0.2,0c0,0,0,0,0,0c0.1,0,0.1,0,0.2,0c0,0,0,0,0,0c0.2,0,0.4,0.1,0.6,0.1c0,0,0,0,0,0
		c0.1,0,0.1,0,0.2,0c0,0,0,0,0.1,0c0,0,0.1,0,0.1,0c0,0,0.1,0,0.1,0c0.1,0,0.1,0,0.1,0c0,0,0.1,0,0.1,0c0,0,0.1,0,0.1,0
		c0.1,0,0.2,0,0.2,0c0,0,0,0,0,0c0.1,0,0.1,0,0.2,0c0,0,0,0,0,0c0.1,0,0.2,0,0.2,0l0,0c0.3,0,0.7,0.1,1,0.1c0.1,0,0.2,0,0.3,0
		c1,0,1.8-0.7,2-1.7c0.2-1.1-0.6-2.1-1.7-2.3c-2.6-0.4-5.3-0.7-7.9-1.1C451.8,1052.5,451.7,1052.5,451.6,1052.5L451.6,1052.5z
		 M469.4,1054.9c-1,0-1.9,0.7-2,1.8c-0.1,1.1,0.6,2.1,1.7,2.2c2,0.2,4,0.5,6,0.7c0,0,0,0,0,0c0.1,0,0.1,0,0.2,0c0,0,0,0,0,0
		c0.1,0,0.1,0,0.2,0c0,0,0,0,0.1,0c0.1,0,0.1,0,0.2,0c0,0,0,0,0.1,0c0.1,0,0.1,0,0.1,0c0,0,0.1,0,0.1,0c0.1,0,0.1,0,0.1,0
		c0.1,0,0.1,0,0.2,0c0,0,0,0,0,0c0.1,0,0.1,0,0.2,0c0,0,0,0,0.1,0c0.1,0,0.1,0,0.2,0c0,0,0,0,0.1,0c0.1,0,0.1,0,0.2,0c0,0,0,0,0.1,0
		c0.1,0,0.1,0,0.2,0l0,0c0.1,0,0.1,0,0.2,0c0,0,0,0,0,0c2.2,0.2,4.3,0.4,6.5,0.6c0.1,0,0.1,0,0.2,0c1,0,1.9-0.8,2-1.8
		c0.1-1.1-0.7-2.1-1.8-2.2c-4.9-0.4-9.9-1-14.8-1.5C469.6,1054.9,469.5,1054.9,469.4,1054.9L469.4,1054.9z M514.1,1058.3
		c-1.1,0-2,0.9-2,1.9c0,1.1,0.8,2,1.9,2.1c1.8,0.1,3.5,0.1,5.3,0.2c0,0,0,0,0,0c0.1,0,0.3,0,0.4,0c0,0,0,0,0,0c0.1,0,0.3,0,0.4,0
		c0,0,0,0,0,0c0.1,0,0.1,0,0.2,0c0,0,0,0,0,0c0.1,0,0.1,0,0.2,0c0,0,0,0,0,0c0.1,0,0.1,0,0.2,0c0,0,0,0,0,0c0.1,0,0.1,0,0.2,0
		c0,0,0,0,0,0c0.1,0,0.1,0,0.2,0c0,0,0,0,0,0c0.1,0,0.1,0,0.2,0c0,0,0,0,0.1,0c0.1,0,0.1,0,0.2,0c0,0,0,0,0.1,0c0,0,0.1,0,0.1,0
		c0,0,0,0,0.1,0c0.1,0,0.1,0,0.2,0c0,0,0,0,0.1,0c0,0,0.1,0,0.1,0c0,0,0,0,0.1,0c0.1,0,0.1,0,0.2,0c0,0,0,0,0,0c0,0,0.1,0,0.1,0
		c0,0,0,0,0.1,0c0.1,0,0.1,0,0.2,0c0,0,0,0,0.1,0c0,0,0.1,0,0.1,0c0,0,0,0,0.1,0c0.1,0,0.1,0,0.2,0c0,0,0,0,0.1,0c0,0,0.1,0,0.1,0
		c0,0,0,0,0.1,0c0.1,0,0.1,0,0.2,0c0,0,0,0,0.1,0c0,0,0.1,0,0.1,0c0,0,0.1,0,0.1,0c0.1,0,0.1,0,0.2,0c0,0,0,0,0.1,0c0,0,0.1,0,0.1,0
		c0,0,0.1,0,0.1,0c0.1,0,0.1,0,0.2,0c0,0,0.1,0,0.1,0c0,0,0.1,0,0.1,0c0,0,0.1,0,0.1,0c0.1,0,0.1,0,0.2,0c0,0,0,0,0.1,0
		c0,0,0.1,0,0.1,0c0,0,0.1,0,0.1,0c0.1,0,0.1,0,0.2,0c0,0,0,0,0.1,0c0,0,0.1,0,0.1,0c0,0,0,0,0.1,0c0.1,0,0.1,0,0.2,0c0,0,0,0,0.1,0
		c0,0,0.1,0,0.1,0c0,0,0,0,0.1,0c0.1,0,0.1,0,0.2,0c0,0,0,0,0.1,0c0,0,0.1,0,0.1,0c0,0,0,0,0.1,0c0.1,0,0.1,0,0.2,0c0,0,0,0,0.1,0
		c0,0,0.1,0,0.1,0c0,0,0,0,0.1,0c0.1,0,0.1,0,0.2,0c0,0,0,0,0.1,0c0,0,0.1,0,0.1,0c0,0,0,0,0,0c0.1,0,0.1,0,0.2,0c0,0,0,0,0,0
		c0,0,0.1,0,0.2,0c0,0,0,0,0,0c0.1,0,0.1,0,0.2,0c0,0,0,0,0,0c0,0,0.1,0,0.2,0c0,0,0,0,0,0c0.1,0,0.1,0,0.2,0c0,0,0,0,0.1,0
		c0,0,0.1,0,0.1,0c0,0,0,0,0,0c0.1,0,0.1,0,0.2,0c0,0,0,0,0.1,0c0,0,0.1,0,0.2,0c0,0,0,0,0,0c0.1,0,0.1,0,0.2,0c0,0,0,0,0.1,0
		c0,0,0.1,0,0.2,0c0,0,0,0,0,0c0.1,0,0.1,0,0.2,0c0,0,0,0,0,0c0.1,0,0.1,0,0.2,0c0,0,0,0,0,0c0.1,0,0.1,0,0.2,0c0,0,0,0,0.1,0
		c0.1,0,0.1,0,0.2,0c0,0,0,0,0,0c0.1,0,0.1,0,0.2,0c0,0,0,0,0.1,0c0.1,0,0.1,0,0.2,0c0,0,0,0,0,0c0.1,0,0.1,0,0.2,0c0,0,0,0,0,0
		c0.1,0,0.1,0,0.2,0c0,0,0,0,0,0c0.1,0,0.1,0,0.2,0c0,0,0,0,0,0c0.1,0,0.1,0,0.2,0c0,0,0,0,0,0c0.1,0,0.1,0,0.2,0c0,0,0,0,0,0
		c0.1,0,0.1,0,0.2,0l0,0c0.1,0,0.2,0,0.2,0c0,0,0,0,0.1,0c0.1,0,0.1,0,0.2,0c0,0,0,0,0.1,0c0.1,0,0.1,0,0.2,0c0,0,0,0,0,0
		c0.4,0,0.8,0,1.2,0c1.1,0,2-0.9,2-2c0-1.1-0.9-2-2-2c0,0,0,0,0,0c-0.6,0-1.3,0-1.9,0C526.2,1058.6,520.1,1058.5,514.1,1058.3
		C514.1,1058.3,514.1,1058.3,514.1,1058.3L514.1,1058.3z M552,1058.3C551.9,1058.3,551.9,1058.3,552,1058.3c-2.7,0.1-5.4,0.2-8,0.2
		c-1.1,0-2,0.9-2,2c0,1.1,0.9,2,2,2c0,0,0,0,0,0c0.6,0,1.3,0,1.9,0c0,0,0.1,0,0.1,0c0,0,0.1,0,0.1,0c0,0,0.1,0,0.1,0
		c0,0,0.1,0,0.1,0c0,0,0.1,0,0.1,0c0,0,0,0,0.1,0c0.1,0,0.1,0,0.2,0c0,0,0,0,0.1,0c0.2,0,0.5,0,0.7,0c0,0,0,0,0,0c0.1,0,0.1,0,0.2,0
		c0,0,0,0,0.1,0c0.1,0,0.1,0,0.2,0c0,0,0.1,0,0.1,0c0.1,0,0.1,0,0.2,0c0,0,0,0,0.1,0c0.1,0,0.1,0,0.2,0l0,0c0.1,0,0.2,0,0.2,0
		c0,0,0,0,0.1,0c0,0,0.1,0,0.1,0c0,0,0.1,0,0.1,0c0,0,0.1,0,0.1,0c0,0,0.1,0,0.1,0c0,0,0.1,0,0.1,0c0,0,0.1,0,0.1,0c0,0,0.1,0,0.1,0
		c0,0,0.1,0,0.1,0c0,0,0.1,0,0.1,0c0.1,0,0.2,0,0.2,0c0,0,0.1,0,0.1,0c0,0,0.1,0,0.1,0c0,0,0.1,0,0.1,0c0,0,0.1,0,0.1,0
		c0,0,0.1,0,0.1,0c0,0,0.1,0,0.1,0c0,0,0.1,0,0.1,0c0,0,0.1,0,0.1,0c0.3,0,0.7,0,1,0c1.1,0,2-1,1.9-2.1
		C553.9,1059.1,553,1058.3,552,1058.3L552,1058.3z M576.8,1056.7c-0.1,0-0.1,0-0.2,0c-4.9,0.4-9.9,0.8-14.9,1
		c-1.1,0.1-1.9,1-1.9,2.1c0.1,1.1,0.9,1.9,2,1.9c0,0,0.1,0,0.1,0c0.4,0,0.8,0,1.2-0.1l0,0c0.1,0,0.1,0,0.2,0c0,0,0.1,0,0.1,0
		c0,0,0.1,0,0.1,0c0,0,0.1,0,0.1,0c0,0,0.1,0,0.1,0c0.1,0,0.1,0,0.1,0c0,0,0,0,0.1,0c0.1,0,0.1,0,0.2,0c0,0,0,0,0,0
		c4.3-0.3,8.5-0.6,12.8-0.9c1.1-0.1,1.9-1.1,1.8-2.2C578.7,1057.5,577.9,1056.7,576.8,1056.7L576.8,1056.7z M626.2,1050.2
		c-0.1,0-0.2,0-0.4,0c-6.5,1.2-13.1,2.2-19.6,3.1c-1.1,0.2-1.9,1.2-1.7,2.3c0.1,1,1,1.7,2,1.7c0.1,0,0.2,0,0.3,0l0,0
		c4.8-0.7,9.5-1.4,14.2-2.2c0,0,0,0,0,0c0,0,0.1,0,0.1,0c0,0,0,0,0,0c0,0,0.1,0,0.1,0c0,0,0,0,0.1,0c0.1,0,0.1,0,0.2,0
		c0,0,0.1,0,0.1,0c0,0,0,0,0.1,0c0,0,0.1,0,0.1,0c0,0,0,0,0,0c0.1,0,0.1,0,0.2,0c0,0,0,0,0,0c0.1,0,0.1,0,0.2,0c0,0,0,0,0,0
		c1.4-0.2,2.8-0.5,4.2-0.7c1.1-0.2,1.8-1.2,1.6-2.3C628,1050.9,627.1,1050.2,626.2,1050.2L626.2,1050.2z M643.8,1046.8
		c-0.1,0-0.3,0-0.4,0c-2.6,0.6-5.2,1.1-7.8,1.6c-1.1,0.2-1.8,1.3-1.6,2.4c0.2,1,1,1.6,2,1.6c0.1,0,0.3,0,0.4,0
		c2.6-0.5,5.3-1.1,7.9-1.6c1.1-0.2,1.8-1.3,1.5-2.4C645.5,1047.4,644.7,1046.8,643.8,1046.8L643.8,1046.8z M668,1040.9
		c-0.2,0-0.3,0-0.5,0.1c-4.8,1.3-9.6,2.5-14.4,3.6c-1.1,0.3-1.7,1.3-1.5,2.4c0.2,0.9,1,1.5,1.9,1.5c0.2,0,0.3,0,0.5-0.1
		c0.4-0.1,0.8-0.2,1.1-0.3l0,0c0.1,0,0.1,0,0.2,0c0,0,0,0,0,0c0.1,0,0.1,0,0.2,0l0,0c0.1,0,0.1,0,0.2,0c0,0,0,0,0,0
		c0.1,0,0.1,0,0.2-0.1c0,0,0.1,0,0.1,0c0,0,0.1,0,0.1,0c0,0,0.1,0,0.1,0c0,0,0.1,0,0.1,0c0,0,0.1,0,0.1,0c0,0,0,0,0.1,0
		c0.1,0,0.1,0,0.2,0c0,0,0,0,0,0c3.5-0.9,7-1.7,10.5-2.6c0,0,0,0,0,0c0,0,0.1,0,0.2,0c0,0,0,0,0.1,0c0,0,0.1,0,0.1,0c0,0,0,0,0.1,0
		c0,0,0.1,0,0.1,0c0,0,0.1,0,0.1,0c0,0,0.1,0,0.1,0c0,0,0.1,0,0.1,0c0,0,0.1,0,0.1,0c0.1,0,0.1,0,0.2-0.1l0,0
		c1.1-0.3,1.7-1.4,1.4-2.4C669.7,1041.5,668.9,1040.9,668,1040.9L668,1040.9z M715.4,1025.9c-0.2,0-0.5,0-0.7,0.1
		c-6.2,2.3-12.5,4.5-18.7,6.5c-1,0.3-1.6,1.5-1.3,2.5c0.3,0.8,1.1,1.4,1.9,1.4c0.2,0,0.4,0,0.6-0.1c0.8-0.3,1.7-0.6,2.5-0.8l0,0
		c0,0,0.1,0,0.1,0c0,0,0,0,0.1,0c0,0,0.1,0,0.1,0c0,0,0.1,0,0.1,0c0,0,0,0,0.1,0c0,0,0.1,0,0.1,0c0,0,0,0,0.1,0c0.1,0,0.1,0,0.2-0.1
		c0,0,0,0,0,0c5.2-1.7,10.4-3.6,15.5-5.5c1-0.4,1.5-1.5,1.2-2.6C717,1026.4,716.3,1025.9,715.4,1025.9L715.4,1025.9z M732.1,1019.3
		c-0.3,0-0.5,0-0.8,0.2c-2.4,1-4.9,2-7.4,3c-1,0.4-1.5,1.6-1.1,2.6c0.3,0.8,1.1,1.3,1.9,1.3c0.2,0,0.5,0,0.7-0.1c2.5-1,5-2,7.4-3
		c1-0.4,1.5-1.6,1.1-2.6C733.7,1019.8,732.9,1019.3,732.1,1019.3L732.1,1019.3z M755,1009.3c-0.3,0-0.6,0.1-0.8,0.2
		c-4.5,2.1-9,4.1-13.6,6.1c-1,0.4-1.5,1.6-1,2.6c0.3,0.8,1.1,1.2,1.8,1.2c0.3,0,0.5-0.1,0.8-0.2c3.6-1.6,7.2-3.1,10.7-4.8l0,0
		c0.1,0,0.1-0.1,0.2-0.1l0,0c0.1,0,0.1-0.1,0.2-0.1c0,0,0,0,0,0c0.3-0.1,0.6-0.3,0.8-0.4c0,0,0,0,0,0c0.1,0,0.1-0.1,0.2-0.1l0,0
		c0.1,0,0.1-0.1,0.2-0.1l0,0c0.4-0.2,0.8-0.4,1.3-0.6c1-0.5,1.4-1.7,1-2.7C756.4,1009.8,755.7,1009.3,755,1009.3L755,1009.3z
		 M799,986.1c-0.3,0-0.7,0.1-1,0.3c-5.7,3.3-11.5,6.6-17.3,9.7c-1,0.5-1.3,1.7-0.8,2.7c0.4,0.7,1.1,1.1,1.8,1.1
		c0.3,0,0.6-0.1,0.9-0.2c5.9-3.2,11.7-6.4,17.4-9.8c0.9-0.6,1.3-1.8,0.7-2.7C800.4,986.5,799.7,986.1,799,986.1L799,986.1z
		 M814.3,976.8c-0.4,0-0.7,0.1-1.1,0.3c-2.2,1.4-4.5,2.8-6.7,4.2c-0.9,0.6-1.2,1.8-0.7,2.8c0.4,0.6,1,1,1.7,1c0.4,0,0.7-0.1,1-0.3
		c0.2-0.1,0.4-0.2,0.6-0.3c0,0,0,0,0,0c0.1,0,0.1-0.1,0.2-0.1c0,0,0,0,0,0c0.2-0.1,0.4-0.3,0.6-0.4c0,0,0,0,0,0
		c0.1,0,0.1-0.1,0.1-0.1c0,0,0,0,0,0c0,0,0.1-0.1,0.1-0.1c0,0,0,0,0,0c0.1-0.1,0.2-0.1,0.3-0.2c0,0,0,0,0,0c0,0,0.1,0,0.1-0.1
		c0,0,0.1,0,0.1,0c0,0,0.1,0,0.1-0.1c0,0,0.1,0,0.1-0.1c0,0,0.1,0,0.1-0.1c0,0,0.1,0,0.1-0.1c0,0,0.1,0,0.1-0.1c0,0,0.1-0.1,0.1-0.1
		c0,0,0,0,0.1,0c0,0,0.1-0.1,0.1-0.1c0,0,0,0,0.1,0c0,0,0.1-0.1,0.1-0.1c0,0,0,0,0.1,0c0.1-0.1,0.3-0.2,0.4-0.2c0,0,0,0,0,0
		c0.1,0,0.1-0.1,0.2-0.1c0,0,0,0,0,0c0.1,0,0.1-0.1,0.2-0.1l0,0c0.1-0.1,0.3-0.2,0.4-0.3c0,0,0,0,0,0c0.1,0,0.1-0.1,0.2-0.1
		c0,0,0,0,0,0c0.1,0,0.1-0.1,0.2-0.1l0,0c0.1-0.1,0.3-0.2,0.4-0.3c0,0,0,0,0,0c0.1,0,0.1-0.1,0.2-0.1c0,0,0,0,0,0
		c0.1,0,0.1-0.1,0.2-0.1l0,0c0.1,0,0.1-0.1,0.2-0.1c0,0,0,0,0,0c0.1,0,0.1-0.1,0.2-0.1c0,0,0.1,0,0.1-0.1c0,0,0.1,0,0.1-0.1
		c0,0,0.1,0,0.1-0.1c0,0,0.1,0,0.1-0.1c0,0,0.1,0,0.1-0.1c0.9-0.6,1.2-1.8,0.6-2.8C815.6,977.1,815,976.8,814.3,976.8L814.3,976.8z
		 M835,962.9c-0.4,0-0.8,0.1-1.1,0.4c-4,2.8-8.2,5.7-12.3,8.4c-0.9,0.6-1.2,1.9-0.6,2.8c0.4,0.6,1,0.9,1.7,0.9
		c0.4,0,0.8-0.1,1.1-0.3c0,0,0.1,0,0.1-0.1c0,0,0,0,0.1,0c0,0,0.1,0,0.1-0.1c0,0,0,0,0.1,0c0,0,0.1-0.1,0.1-0.1c0,0,0.1,0,0.1,0
		c0,0,0.1-0.1,0.1-0.1c0,0,0,0,0.1,0c0,0,0.1,0,0.1-0.1c0,0,0.1,0,0.1-0.1c0,0,0.1-0.1,0.1-0.1c0,0,0.1-0.1,0.1-0.1
		c0,0,0.1,0,0.1-0.1c0,0,0.1,0,0.1-0.1c0,0,0.1,0,0.1-0.1c0,0,0.1,0,0.1-0.1c0,0,0.1,0,0.1-0.1c0,0,0.1,0,0.1-0.1c0,0,0.1,0,0.1-0.1
		c0,0,0.1-0.1,0.1-0.1c0,0,0,0,0.1,0c0.1-0.1,0.2-0.2,0.4-0.2c0,0,0,0,0.1,0c0,0,0.1-0.1,0.1-0.1c0,0,0.1,0,0.1,0
		c0,0,0.1-0.1,0.1-0.1c0,0,0,0,0.1,0c0,0,0.1-0.1,0.1-0.1c0,0,0,0,0.1,0c0,0,0.1-0.1,0.1-0.1c0,0,0,0,0,0c0.1,0,0.1-0.1,0.2-0.1
		c0,0,0,0,0,0c0.1,0,0.1-0.1,0.2-0.1c0,0,0,0,0,0c0,0,0.1-0.1,0.1-0.1c0,0,0,0,0.1,0c0,0,0.1-0.1,0.1-0.1c0,0,0,0,0,0
		c0.1,0,0.1-0.1,0.2-0.1l0,0c0.1-0.1,0.3-0.2,0.4-0.3c0,0,0,0,0,0c0.1,0,0.1-0.1,0.2-0.1c0,0,0,0,0,0c0,0,0.1-0.1,0.1-0.1
		c0,0,0,0,0,0c0,0,0.1-0.1,0.1-0.1c0,0,0,0,0,0c0.1,0,0.1-0.1,0.2-0.1l0,0c0.1-0.1,0.3-0.2,0.4-0.3l0,0c0.1,0,0.1-0.1,0.2-0.1
		c0,0,0,0,0,0c0,0,0.1-0.1,0.1-0.1c0,0,0,0,0,0c0,0,0.1-0.1,0.1-0.1c0,0,0,0,0,0c0.1,0,0.1-0.1,0.2-0.1l0,0c0.1,0,0.1-0.1,0.2-0.1
		l0,0c0.1,0,0.1-0.1,0.2-0.1c0,0,0,0,0,0c0,0,0.1-0.1,0.1-0.1c0,0,0,0,0.1,0c0,0,0.1-0.1,0.1-0.1c0,0,0,0,0.1,0c0,0,0.1-0.1,0.1-0.1
		c0,0,0,0,0.1,0c0.1,0,0.1-0.1,0.2-0.1c0,0,0,0,0,0c0.1,0,0.1-0.1,0.2-0.1c0,0,0,0,0.1,0c0,0,0.1,0,0.1-0.1c0,0,0.1,0,0.1-0.1
		c0,0,0.1,0,0.1-0.1c0,0,0.1,0,0.1-0.1c0,0,0.1,0,0.1-0.1c0,0,0,0,0.1-0.1c0,0,0.1,0,0.1-0.1c0.1-0.1,0.3-0.2,0.4-0.3c0,0,0,0,0,0
		c0,0,0.1-0.1,0.1-0.1c0,0,0,0,0,0c0.1,0,0.1-0.1,0.1-0.1c0,0,0,0,0,0c0.1,0,0.1-0.1,0.1-0.1c0,0,0,0,0,0c1-0.7,2-1.4,3-2.1
		c0.9-0.6,1.1-1.9,0.5-2.8C836.3,963.2,835.6,962.9,835,962.9L835,962.9z M874.3,932.4c-0.5,0-0.9,0.2-1.3,0.5
		c-5,4.3-10.2,8.5-15.3,12.6c-0.9,0.7-1,1.9-0.3,2.8c0.4,0.5,1,0.8,1.6,0.8c0.4,0,0.9-0.1,1.2-0.4l0,0c0.2-0.1,0.3-0.2,0.5-0.4l0,0
		c0.2-0.1,0.3-0.3,0.5-0.4l0,0c0.2-0.2,0.5-0.4,0.7-0.6l0,0c0.6-0.5,1.1-0.9,1.7-1.4l0,0c0.2-0.1,0.3-0.3,0.5-0.4c0,0,0,0,0,0
		c0.2-0.1,0.3-0.3,0.5-0.4l0,0c0.1-0.1,0.2-0.1,0.2-0.2c0,0,0,0,0,0c0.1-0.1,0.1-0.1,0.2-0.2c0,0,0,0,0,0c0.1-0.1,0.1-0.1,0.2-0.2
		c0,0,0,0,0,0c0.1-0.1,0.1-0.1,0.2-0.2l0,0c0.1-0.1,0.1-0.1,0.2-0.2c0,0,0,0,0.1,0c0.1-0.1,0.1-0.1,0.2-0.2c0,0,0,0,0,0
		c0.1,0,0.1-0.1,0.2-0.1c0,0,0,0,0.1,0c0.1-0.1,0.1-0.1,0.2-0.2c0,0,0.1,0,0.1-0.1c0.1,0,0.1-0.1,0.2-0.1c0,0,0,0,0.1-0.1
		c0.1,0,0.1-0.1,0.2-0.1c0,0,0.1-0.1,0.1-0.1c0,0,0.1-0.1,0.1-0.1c0,0,0.1-0.1,0.1-0.1c0,0,0.1-0.1,0.1-0.1c0,0,0.1-0.1,0.1-0.1
		c0.1,0,0.1-0.1,0.2-0.1c0,0,0.1-0.1,0.1-0.1c0,0,0.1,0,0.1-0.1c0.1-0.1,0.1-0.1,0.2-0.2c0,0,0,0,0.1-0.1c0,0,0.1-0.1,0.1-0.1
		c0,0,0,0,0.1-0.1c0.1-0.1,0.1-0.1,0.2-0.2c0,0,0,0,0.1,0c0.1,0,0.1-0.1,0.1-0.1c0,0,0,0,0,0c0.1-0.1,0.2-0.1,0.3-0.2c0,0,0,0,0,0
		c0.2-0.1,0.3-0.2,0.4-0.4v0c2.1-1.7,4.1-3.4,6.1-5.1c0.8-0.7,0.9-2,0.2-2.8C875.5,932.6,874.9,932.4,874.3,932.4L874.3,932.4z
		 M887.8,920.5c-0.5,0-1,0.2-1.3,0.5c-1.9,1.8-3.9,3.6-5.9,5.3c-0.8,0.7-0.9,2-0.2,2.8c0.4,0.4,0.9,0.7,1.5,0.7
		c0.5,0,0.9-0.2,1.3-0.5c0.5-0.4,0.9-0.8,1.4-1.2c0,0,0,0,0,0c0.2-0.2,0.4-0.3,0.6-0.5c0,0,0,0,0,0c0,0,0.1-0.1,0.1-0.1c0,0,0,0,0,0
		c1.3-1.1,2.5-2.3,3.8-3.5c0.8-0.7,0.9-2,0.1-2.8C888.9,920.7,888.3,920.5,887.8,920.5L887.8,920.5z M905.8,903.3
		c-0.5,0-1,0.2-1.4,0.6c-3.5,3.5-7.1,7-10.6,10.4c-0.8,0.8-0.8,2-0.1,2.8c0.4,0.4,0.9,0.6,1.5,0.6c0.5,0,1-0.2,1.4-0.6
		c0.9-0.9,1.8-1.7,2.7-2.6c0,0,0,0,0.1,0c0,0,0.1-0.1,0.1-0.1c0,0,0,0,0.1-0.1c0,0,0.1,0,0.1-0.1c0,0,0.1-0.1,0.1-0.1c0,0,0,0,0,0
		c2-2,4.1-3.9,6.1-5.9c0,0,0,0,0,0c0,0,0.1-0.1,0.1-0.1c0,0,0,0,0,0c0,0,0.1-0.1,0.1-0.1c0,0,0,0,0.1-0.1c0,0,0.1-0.1,0.1-0.1
		c0,0,0.1-0.1,0.1-0.1c0,0,0,0,0.1-0.1c0.1-0.1,0.2-0.2,0.3-0.3l0,0c0,0,0.1-0.1,0.1-0.1l0,0c0.2-0.2,0.3-0.3,0.5-0.5
		c0.8-0.8,0.8-2,0-2.8C906.8,903.5,906.3,903.3,905.8,903.3L905.8,903.3z M939.2,866.4c-0.6,0-1.1,0.2-1.5,0.7
		c-4.2,5.1-8.5,10.2-12.9,15.1c-0.7,0.8-0.7,2.1,0.2,2.8c0.4,0.3,0.9,0.5,1.3,0.5c0.5,0,1.1-0.2,1.5-0.7c0.2-0.2,0.3-0.4,0.5-0.6
		c0,0,0,0,0.1-0.1c0.1-0.1,0.1-0.1,0.2-0.2c0,0,0.1-0.1,0.1-0.1c0,0,0.1-0.1,0.1-0.1c0-0.1,0.1-0.1,0.1-0.2c0,0,0-0.1,0.1-0.1
		c0-0.1,0.1-0.1,0.1-0.2c0,0,0,0,0-0.1c0.1-0.1,0.1-0.1,0.2-0.2l0,0c0.1-0.1,0.1-0.1,0.2-0.2l0,0c0.1-0.1,0.1-0.2,0.2-0.2
		c0,0,0,0,0,0c1.8-2,3.6-4.1,5.3-6.1l0,0c0.1-0.2,0.3-0.3,0.4-0.5l0,0c0.1-0.1,0.1-0.2,0.2-0.2l0,0c0.1-0.1,0.1-0.1,0.2-0.2
		c0,0,0,0,0,0c0.1-0.1,0.1-0.1,0.2-0.2c0,0,0,0,0,0c0-0.1,0.1-0.1,0.1-0.2c0,0,0,0,0,0c0.1-0.1,0.1-0.1,0.2-0.2c0,0,0-0.1,0.1-0.1
		c0-0.1,0.1-0.1,0.1-0.2c0,0,0,0,0.1-0.1c0-0.1,0.1-0.1,0.1-0.2c0,0,0.1-0.1,0.1-0.1c0,0,0.1-0.1,0.1-0.1c0,0,0.1-0.1,0.1-0.1
		c0,0,0.1-0.1,0.1-0.1c0,0,0.1-0.1,0.1-0.1c0-0.1,0.1-0.1,0.1-0.2c0,0,0.1-0.1,0.1-0.1c0,0,0-0.1,0.1-0.1c0.1-0.1,0.1-0.1,0.2-0.2
		c0,0,0,0,0-0.1c0,0,0.1-0.1,0.1-0.1c0,0,0,0,0.1-0.1c0.1-0.1,0.1-0.1,0.2-0.2c0,0,0,0,0-0.1c0-0.1,0.1-0.1,0.1-0.1c0,0,0,0,0,0
		c0.1-0.1,0.1-0.2,0.2-0.3c0,0,0,0,0,0c0.1-0.2,0.2-0.3,0.4-0.4c0,0,0,0,0,0c0.1-0.2,0.2-0.3,0.4-0.4c0,0,0,0,0,0
		c0.1-0.1,0.2-0.2,0.2-0.3c0,0,0,0,0,0c0.1-0.2,0.2-0.3,0.4-0.4c0,0,0,0,0,0c0.1-0.2,0.2-0.3,0.4-0.4c0,0,0,0,0,0
		c0.1-0.1,0.2-0.2,0.2-0.3c0,0,0,0,0,0c0-0.1,0.1-0.1,0.1-0.1c0,0,0,0,0,0c0,0,0.1-0.1,0.1-0.1c0.7-0.9,0.6-2.1-0.3-2.8
		C940.1,866.5,939.6,866.4,939.2,866.4L939.2,866.4z M950.3,852.3c-0.6,0-1.2,0.3-1.6,0.8c-1.6,2.1-3.2,4.2-4.9,6.3
		c-0.7,0.9-0.5,2.1,0.3,2.8c0.4,0.3,0.8,0.4,1.2,0.4c0.6,0,1.2-0.3,1.6-0.8l0,0c1.7-2.1,3.3-4.2,4.9-6.3c0.7-0.9,0.5-2.1-0.4-2.8
		C951.2,852.5,950.8,852.3,950.3,852.3L950.3,852.3z M965,832.2c-0.6,0-1.3,0.3-1.6,0.9c-2.8,4.1-5.7,8.1-8.7,12.1
		c-0.7,0.9-0.5,2.1,0.4,2.8c0.4,0.3,0.8,0.4,1.2,0.4c0.6,0,1.2-0.3,1.6-0.8c3-4,5.9-8.1,8.7-12.2c0.6-0.9,0.4-2.1-0.5-2.8
		C965.8,832.4,965.4,832.2,965,832.2L965,832.2z M991.5,790.1c-0.7,0-1.4,0.4-1.7,1c-3.2,5.7-6.6,11.5-10.1,17.1
		c-0.6,0.9-0.3,2.2,0.7,2.8c0.3,0.2,0.7,0.3,1,0.3c0.7,0,1.3-0.3,1.7-0.9c1.4-2.2,2.7-4.4,4-6.6c0,0,0,0,0,0
		c0.1-0.1,0.1-0.2,0.2-0.3c0,0,0,0,0,0c0-0.1,0.1-0.1,0.1-0.1c0,0,0,0,0,0c0,0,0-0.1,0.1-0.1c0,0,0,0,0,0c0-0.1,0.1-0.1,0.1-0.2
		c0,0,0,0,0,0c0,0,0.1-0.1,0.1-0.1c0,0,0,0,0-0.1c0,0,0-0.1,0.1-0.1c0,0,0-0.1,0-0.1c0,0,0-0.1,0.1-0.1c0,0,0,0,0-0.1
		c0-0.1,0-0.1,0.1-0.1c0,0,0-0.1,0-0.1c0,0,0,0,0-0.1c0,0,0-0.1,0-0.1c0,0,0,0,0-0.1c0,0,0-0.1,0.1-0.1c0,0,0,0,0-0.1
		c0-0.1,0.1-0.1,0.1-0.2l0,0c0,0,0-0.1,0.1-0.1c0,0,0,0,0,0c0,0,0-0.1,0.1-0.1c0,0,0,0,0,0c0.1-0.2,0.2-0.3,0.3-0.5l0,0
		c1.3-2.3,2.7-4.6,4-6.9l0,0c0.1-0.2,0.2-0.4,0.3-0.5c0,0,0,0,0,0c0,0,0-0.1,0.1-0.1l0,0c0.5-1,0.2-2.2-0.8-2.7
		C992.2,790.2,991.9,790.1,991.5,790.1L991.5,790.1z M1000.1,774.3c-0.7,0-1.4,0.4-1.8,1.1c-1.2,2.3-2.5,4.7-3.7,7
		c-0.5,1-0.2,2.2,0.8,2.7c0.3,0.2,0.6,0.2,0.9,0.2c0.7,0,1.4-0.4,1.8-1c0,0,0,0,0-0.1c0,0,0,0,0-0.1c1.1-2,2.1-3.9,3.1-5.9
		c0,0,0-0.1,0-0.1c0,0,0-0.1,0.1-0.1c0,0,0-0.1,0.1-0.1c0,0,0,0,0-0.1c0-0.1,0.1-0.1,0.1-0.2c0,0,0,0,0,0c0.1-0.1,0.2-0.3,0.2-0.4
		c0.5-1,0.1-2.2-0.9-2.7C1000.7,774.4,1000.4,774.3,1000.1,774.3L1000.1,774.3z M1011,751.9c-0.8,0-1.5,0.4-1.8,1.2
		c-2.1,4.5-4.2,9-6.4,13.4c-0.5,1-0.1,2.2,0.9,2.7c0.3,0.1,0.6,0.2,0.9,0.2c0.7,0,1.4-0.4,1.8-1.1c1-2,2-4.1,3-6.1l0,0
		c0-0.1,0.1-0.1,0.1-0.2c0,0,0,0,0-0.1c0,0,0-0.1,0.1-0.1c0,0,0,0,0-0.1c0,0,0-0.1,0.1-0.1c0,0,0-0.1,0-0.1c0,0,0-0.1,0.1-0.1
		c0,0,0,0,0-0.1c0-0.1,0-0.1,0.1-0.2c0,0,0-0.1,0.1-0.1c0,0,0-0.1,0.1-0.1c0,0,0-0.1,0-0.1c0,0,0-0.1,0-0.1c0,0,0-0.1,0-0.1
		c0,0,0-0.1,0-0.1c0,0,0-0.1,0.1-0.1c0,0,0-0.1,0-0.1c0,0,0-0.1,0.1-0.1c0,0,0-0.1,0-0.1c0,0,0-0.1,0.1-0.1c0,0,0,0,0-0.1
		c0-0.1,0.1-0.2,0.1-0.3c0,0,0,0,0,0c0,0,0-0.1,0.1-0.1c0,0,0,0,0-0.1c0,0,0-0.1,0.1-0.1c0,0,0,0,0-0.1c0,0,0-0.1,0.1-0.1
		c0,0,0,0,0-0.1c0,0,0-0.1,0.1-0.1c0,0,0,0,0,0c0.1-0.2,0.1-0.3,0.2-0.5c0,0,0,0,0-0.1c0,0,0-0.1,0.1-0.1c0,0,0,0,0-0.1
		c0,0,0-0.1,0.1-0.1c0,0,0-0.1,0-0.1c0,0,0-0.1,0.1-0.1c0,0,0-0.1,0-0.1c0,0,0-0.1,0-0.1c0,0,0-0.1,0-0.1c0,0,0-0.1,0-0.1
		c0-0.1,0.1-0.1,0.1-0.2c0,0,0,0,0-0.1c0,0,0-0.1,0.1-0.1c0,0,0,0,0-0.1c0,0,0-0.1,0.1-0.1c0,0,0-0.1,0-0.1c0,0,0-0.1,0.1-0.1
		c0,0,0,0,0-0.1c0-0.1,0-0.1,0.1-0.2c0,0,0,0,0,0c0.3-0.6,0.5-1.1,0.8-1.7c0.5-1,0-2.2-1-2.7C1011.6,752,1011.3,751.9,1011,751.9
		L1011,751.9z M1029.7,705.8c-0.8,0-1.6,0.5-1.9,1.3c-2.2,6.2-4.5,12.5-6.9,18.6c-0.4,1,0.1,2.2,1.1,2.6c0.2,0.1,0.5,0.1,0.7,0.1
		c0.8,0,1.5-0.5,1.9-1.3c2-5.1,3.9-10.2,5.8-15.3l0,0c0-0.1,0.1-0.2,0.1-0.4c0,0,0,0,0,0c0,0,0-0.1,0-0.1c0,0,0,0,0-0.1
		c0,0,0-0.1,0-0.1c0,0,0-0.1,0-0.1l0,0c0-0.1,0.1-0.2,0.1-0.2c0,0,0,0,0,0c0,0,0-0.1,0.1-0.1l0,0c0.3-0.7,0.5-1.5,0.8-2.2
		c0.4-1-0.2-2.2-1.2-2.5C1030.1,705.8,1029.9,705.8,1029.7,705.8L1029.7,705.8z M1035.3,688.8c-0.9,0-1.6,0.5-1.9,1.4
		c-0.8,2.5-1.6,5.1-2.4,7.6c-0.3,1,0.2,2.2,1.3,2.5c0.2,0.1,0.4,0.1,0.6,0.1c0.8,0,1.6-0.5,1.9-1.4c0.7-2.1,1.3-4.1,2-6.2
		c0,0,0,0,0,0c0-0.1,0-0.1,0.1-0.2c0,0,0,0,0,0c0-0.1,0-0.1,0.1-0.2c0,0,0,0,0-0.1c0-0.1,0-0.1,0.1-0.2c0,0,0-0.1,0-0.2
		c0,0,0,0,0-0.1c0-0.1,0-0.1,0.1-0.2c0,0,0,0,0,0c0-0.1,0.1-0.2,0.1-0.3c0.3-1.1-0.3-2.2-1.3-2.5
		C1035.7,688.8,1035.5,688.8,1035.3,688.8L1035.3,688.8z M1042.2,664.8c-0.9,0-1.7,0.6-1.9,1.5c-1.2,4.8-2.6,9.6-4,14.3
		c-0.3,1.1,0.3,2.2,1.4,2.5c0.2,0.1,0.4,0.1,0.6,0.1c0.9,0,1.7-0.6,1.9-1.4c1.4-4.7,2.7-9.5,3.9-14.2l0,0c0-0.1,0-0.1,0.1-0.2
		c0,0,0,0,0,0c0.3-1.1-0.4-2.2-1.4-2.4C1042.5,664.8,1042.3,664.8,1042.2,664.8L1042.2,664.8z M1052.4,616.1c-1,0-1.8,0.7-2,1.7
		c-1,6.5-2.2,13.1-3.5,19.5c-0.2,1.1,0.5,2.1,1.6,2.4c0.1,0,0.3,0,0.4,0c0.9,0,1.8-0.7,2-1.6c0.5-2.3,0.9-4.6,1.3-6.9l0,0
		c0,0,0-0.1,0-0.1c0,0,0,0,0,0c0-0.1,0-0.3,0.1-0.4c0,0,0,0,0-0.1c0,0,0-0.1,0-0.1c0,0,0-0.1,0-0.1c0,0,0-0.1,0-0.1
		c0-0.1,0-0.1,0-0.2c0,0,0,0,0-0.1c0,0,0-0.1,0-0.1c0,0,0,0,0-0.1c0-0.1,0-0.1,0-0.2c0,0,0,0,0,0c0-0.1,0-0.3,0.1-0.4c0,0,0,0,0,0
		c0.7-3.6,1.3-7.2,1.9-10.9c0.2-1.1-0.6-2.1-1.7-2.3C1052.6,616.1,1052.5,616.1,1052.4,616.1L1052.4,616.1z M1055,598.3
		c-1,0-1.9,0.7-2,1.7c-0.3,2.6-0.7,5.3-1.1,7.9c-0.2,1.1,0.6,2.1,1.7,2.3c0.1,0,0.2,0,0.3,0c1,0,1.8-0.7,2-1.7
		c0.2-1.2,0.3-2.3,0.5-3.5c0,0,0,0,0,0c0-0.1,0-0.2,0-0.2l0,0c0-0.1,0-0.2,0-0.2l0,0c0-0.2,0.1-0.5,0.1-0.7l0,0c0-0.1,0-0.2,0-0.2
		l0,0c0.1-1,0.3-2,0.4-3c0.1-1.1-0.6-2.1-1.7-2.2C1055.1,598.3,1055,598.3,1055,598.3L1055,598.3z M1057.5,573.6c-1,0-1.9,0.8-2,1.8
		c-0.4,4.9-0.9,9.9-1.4,14.8c-0.1,1.1,0.7,2.1,1.8,2.2c0.1,0,0.1,0,0.2,0c1,0,1.9-0.8,2-1.8c0.3-3.1,0.6-6.3,0.9-9.4c0,0,0,0,0,0
		c0-0.1,0-0.1,0-0.2c0,0,0,0,0,0c0-0.1,0-0.1,0-0.2c0,0,0,0,0,0c0-0.1,0-0.1,0-0.2c0,0,0,0,0,0c0-0.1,0-0.2,0-0.3c0,0,0-0.1,0-0.1
		c0,0,0,0,0-0.1c0,0,0-0.1,0-0.1c0,0,0,0,0-0.1c0-0.1,0-0.1,0-0.2c0,0,0,0,0-0.1c0-0.1,0-0.1,0-0.2c0,0,0,0,0,0c0-0.1,0-0.1,0-0.2
		l0,0c0.1-1.2,0.2-2.3,0.3-3.5c0.1-1.1-0.7-2.1-1.8-2.2C1057.6,573.6,1057.5,573.6,1057.5,573.6L1057.5,573.6z M1059.1,523.8
		C1059.1,523.8,1059.1,523.8,1059.1,523.8c-1.1,0-2,0.9-2,2c0,2.6,0.1,5.2,0.1,7.8c0,4,0,8.1-0.1,12.1c0,1.1,0.9,2,2,2c0,0,0,0,0,0
		c1.1,0,2-0.9,2-2c0-0.2,0-0.3,0-0.5c0,0,0,0,0-0.1c0,0,0-0.1,0-0.1c0,0,0-0.1,0-0.1c0,0,0-0.1,0-0.1c0,0,0-0.1,0-0.1
		c0,0,0-0.1,0-0.1c0,0,0-0.1,0-0.1c0,0,0-0.1,0-0.1c0,0,0-0.1,0-0.1c0,0,0-0.1,0-0.1c0-0.1,0-0.1,0-0.1c0,0,0,0,0-0.1
		c0-0.1,0-0.1,0-0.2c0,0,0,0,0,0c0-0.1,0-0.1,0-0.2c0,0,0,0,0,0c0-0.1,0-0.1,0-0.2c0,0,0,0,0,0c0-0.1,0-0.1,0-0.2c0,0,0,0,0,0
		c0-0.1,0-0.1,0-0.2c0,0,0,0,0,0c0-0.1,0-0.1,0-0.2c0,0,0,0,0,0c0-0.1,0-0.1,0-0.2c0,0,0,0,0,0c0-0.3,0-0.6,0-0.8c0,0,0,0,0,0
		c0-0.1,0-0.1,0-0.2c0,0,0,0,0,0c0-0.1,0-0.1,0-0.2c0,0,0,0,0,0c0-0.1,0-0.1,0-0.2c0,0,0,0,0,0c0-0.1,0-0.1,0-0.2c0,0,0,0,0,0
		c0-0.3,0-0.6,0-0.9c0,0,0,0,0,0c0-0.1,0-0.1,0-0.2c0,0,0,0,0,0c0-0.1,0-0.1,0-0.2c0,0,0,0,0,0c0-0.1,0-0.1,0-0.2c0,0,0,0,0,0
		c0-0.1,0-0.1,0-0.2c0,0,0,0,0,0c0-0.3,0-0.6,0-0.9c0,0,0,0,0,0c0-0.1,0-0.1,0-0.2c0,0,0,0,0,0c0-0.1,0-0.1,0-0.2c0,0,0,0,0,0
		c0-0.1,0-0.1,0-0.2c0,0,0,0,0,0c0-0.1,0-0.1,0-0.2c0,0,0,0,0,0c0-0.2,0-0.4,0-0.6c0,0,0,0,0,0c0-0.1,0-0.1,0-0.2c0,0,0,0,0,0
		c0-0.1,0-0.1,0-0.2c0,0,0,0,0-0.1c0,0,0-0.1,0-0.1c0,0,0,0,0-0.1c0,0,0-0.1,0-0.1c0,0,0,0,0-0.1c0-0.1,0-0.1,0-0.1c0,0,0,0,0-0.1
		c0-0.1,0-0.1,0-0.2c0,0,0,0,0,0c0-0.1,0-0.3,0-0.4c0,0,0,0,0,0c0-0.1,0-0.1,0-0.2c0,0,0,0,0-0.1c0,0,0-0.1,0-0.1c0,0,0,0,0-0.1
		c0,0,0-0.1,0-0.1c0,0,0-0.1,0-0.1c0,0,0-0.1,0-0.1c0,0,0,0,0-0.1c0,0,0-0.1,0-0.1c0,0,0,0,0-0.1c0-0.1,0-0.1,0-0.1c0,0,0,0,0-0.1
		c0-0.1,0-0.1,0-0.2l0,0l0,0c0-0.1,0-0.2,0-0.2c0,0,0,0,0-0.1c0,0,0-0.1,0-0.1c0,0,0-0.1,0-0.1c0,0,0-0.1,0-0.1c0,0,0-0.1,0-0.1
		c0,0,0-0.1,0-0.1c0,0,0-0.1,0-0.1c0,0,0-0.1,0-0.1c0,0,0-0.1,0-0.1c0-0.1,0-0.1,0-0.2c0,0,0,0,0-0.1c0-0.1,0-0.2,0-0.2c0,0,0,0,0,0
		c0-0.1,0-0.1,0-0.2c0,0,0,0,0-0.1c0-0.1,0-0.1,0-0.2c0,0,0-0.1,0-0.1c0-0.1,0-0.1,0-0.2c0,0,0,0,0-0.1c0-0.1,0-0.1,0-0.2
		c0,0,0-0.1,0-0.1c0-0.1,0-0.1,0-0.2c0,0,0,0,0-0.1c0-0.2,0-0.3,0-0.5v0c0-0.1,0-0.2,0-0.2c0,0,0,0,0,0c0-0.1,0-0.1,0-0.2
		c0,0,0,0,0-0.1c0-0.1,0-0.1,0-0.2c0,0,0,0,0-0.1c0-0.1,0-0.1,0-0.2c0,0,0,0,0,0c0-0.3,0-0.6,0-1v0c0-0.1,0-0.2,0-0.2l0,0
		c0-0.1,0-0.2,0-0.2v0c0-0.7,0-1.3,0-2C1061.1,524.7,1060.2,523.8,1059.1,523.8L1059.1,523.8z M1058.5,505.9
		C1058.5,505.9,1058.5,505.9,1058.5,505.9c-1.2,0.1-2.1,1-2,2.1c0.1,2.6,0.2,5.3,0.3,7.9c0,1.1,0.9,1.9,2,1.9c0,0,0,0,0.1,0
		c1.1,0,2-1,1.9-2.1c0-0.2,0-0.3,0-0.5c0,0,0,0,0-0.1c0-0.1,0-0.1,0-0.2c0,0,0-0.1,0-0.1c0,0,0-0.1,0-0.1c0-0.1,0-0.1,0-0.1
		c0,0,0,0,0-0.1c0-1.3-0.1-2.7-0.2-4c0,0,0,0,0,0c0-0.1,0-0.1,0-0.2c0,0,0,0,0,0c0-0.3,0-0.5,0-0.8c0,0,0,0,0-0.1c0-0.1,0-0.1,0-0.1
		c0,0,0-0.1,0-0.1c0,0,0-0.1,0-0.1c0,0,0-0.1,0-0.1c0,0,0-0.1,0-0.1c0,0,0-0.1,0-0.1c0,0,0-0.1,0-0.1c0-0.2,0-0.3,0-0.5c0,0,0,0,0,0
		c0-0.1,0-0.1,0-0.2c0,0,0,0,0,0c0-0.1,0-0.1,0-0.2l0,0C1060.5,506.7,1059.6,505.9,1058.5,505.9L1058.5,505.9z M1056.7,481
		c-0.1,0-0.1,0-0.2,0c-1.1,0.1-1.9,1.1-1.8,2.2c0.5,4.9,0.9,9.9,1.2,14.8c0.1,1.1,0.9,1.9,2,1.9c0,0,0.1,0,0.1,0
		c1.1-0.1,1.9-1,1.9-2.1c0,0,0,0,0,0c0,0,0,0,0-0.1c0-0.2,0-0.4,0-0.6c0,0,0,0,0,0c0-0.1,0-0.1,0-0.2c0,0,0,0,0,0c0-0.1,0-0.1,0-0.2
		c0,0,0,0,0,0c0-0.1,0-0.1,0-0.2c0,0,0,0,0,0c0-0.1,0-0.1,0-0.2c0,0,0,0,0,0c0-0.1,0-0.1,0-0.2c0,0,0,0,0,0c-0.3-4-0.6-8-1-11.9
		c0,0,0,0,0,0c0-0.4-0.1-0.9-0.1-1.3C1058.6,481.8,1057.8,481,1056.7,481L1056.7,481z M1049.7,431.7c-0.1,0-0.3,0-0.4,0
		c-1.1,0.2-1.8,1.3-1.6,2.3c1.2,6.5,2.4,13,3.4,19.6c0.2,1,1,1.7,2,1.7c0.1,0,0.2,0,0.3,0c1.1-0.2,1.8-1.2,1.7-2.3
		c-1-6.6-2.1-13.2-3.4-19.7C1051.5,432.4,1050.6,431.7,1049.7,431.7L1049.7,431.7z M1046,414.2c-0.1,0-0.3,0-0.4,0.1
		c-1.1,0.2-1.8,1.3-1.5,2.4c0.6,2.6,1.2,5.2,1.7,7.8c0.2,0.9,1,1.6,2,1.6c0.1,0,0.3,0,0.4,0c1.1-0.2,1.8-1.3,1.5-2.4
		c-0.1-0.5-0.2-1-0.3-1.5l0,0c0-0.1,0-0.1,0-0.2c0,0,0,0,0-0.1c0,0,0-0.1,0-0.1c0,0,0-0.1,0-0.1c0,0,0,0,0,0c0-0.1,0-0.2-0.1-0.3
		c0,0,0,0,0,0c0-0.1,0-0.1,0-0.2c0,0,0,0,0,0c0-0.1,0-0.1,0-0.2c0,0,0,0,0,0c-0.4-1.7-0.7-3.4-1.1-5
		C1047.7,414.8,1046.9,414.2,1046,414.2L1046,414.2z M1039.9,390c-0.2,0-0.4,0-0.5,0.1c-1.1,0.3-1.7,1.4-1.4,2.5
		c1.3,4.8,2.6,9.6,3.8,14.4c0.2,0.9,1,1.5,1.9,1.5c0.2,0,0.3,0,0.5-0.1c1.1-0.3,1.7-1.3,1.5-2.4c-1.2-4.9-2.5-9.7-3.8-14.5
		C1041.6,390.6,1040.8,390,1039.9,390L1039.9,390z M1024.3,342.8c-0.2,0-0.5,0-0.7,0.1c-1,0.4-1.5,1.6-1.2,2.6
		c2.4,6.1,4.6,12.4,6.8,18.7c0.3,0.8,1.1,1.4,1.9,1.4c0.2,0,0.4,0,0.6-0.1c1-0.4,1.6-1.5,1.3-2.5c-1.3-3.7-2.6-7.4-3.9-11.1
		c0,0,0,0,0,0c0-0.1,0-0.1-0.1-0.1c0,0,0,0,0,0c0-0.1-0.1-0.2-0.1-0.4c0,0,0,0,0,0c0,0,0-0.1,0-0.1c0,0,0,0,0-0.1c0,0,0-0.1-0.1-0.1
		c0,0,0,0,0,0c0-0.1,0-0.1-0.1-0.2c0,0,0,0,0-0.1c0,0,0-0.1,0-0.1c0,0,0-0.1,0-0.1c0,0,0-0.1,0-0.1c0,0,0-0.1,0-0.1c0,0,0-0.1,0-0.1
		c0,0,0-0.1,0-0.1c0,0,0-0.1,0-0.1c0,0,0-0.1,0-0.1c0,0,0,0,0-0.1c0,0,0-0.1,0-0.1c0,0,0,0,0-0.1c0-0.1-0.1-0.1-0.1-0.2c0,0,0,0,0,0
		c0,0,0-0.1,0-0.1c0,0,0,0,0-0.1c0,0,0-0.1,0-0.1c0,0,0,0,0,0c0-0.1-0.1-0.3-0.1-0.4c0,0,0,0,0,0c0,0,0-0.1,0-0.1c0,0,0,0,0,0
		c-0.1-0.2-0.1-0.4-0.2-0.6l0,0c-0.5-1.3-1-2.5-1.4-3.8C1025.9,343.2,1025.1,342.8,1024.3,342.8L1024.3,342.8z M1017.6,326.1
		c-0.3,0-0.5,0.1-0.8,0.2c-1,0.4-1.5,1.6-1.1,2.6c1,2.4,2.1,4.9,3,7.3c0.3,0.8,1.1,1.2,1.9,1.2c0.3,0,0.5,0,0.8-0.1
		c1-0.4,1.5-1.6,1.1-2.6c-0.2-0.5-0.4-0.9-0.6-1.4c0,0,0,0,0,0c0-0.1-0.1-0.1-0.1-0.2c0,0,0,0,0,0c0-0.1-0.1-0.1-0.1-0.2
		c0,0,0-0.1,0-0.1c0,0,0-0.1,0-0.1c0,0,0-0.1-0.1-0.1c0,0,0,0,0-0.1c0,0,0-0.1-0.1-0.1c0,0,0,0,0,0c-0.5-1.2-1-2.3-1.4-3.5
		c0,0,0,0,0-0.1c0,0,0-0.1-0.1-0.1c0,0,0-0.1,0-0.1c0,0,0-0.1,0-0.1c-0.2-0.4-0.3-0.8-0.5-1.1
		C1019.1,326.6,1018.4,326.1,1017.6,326.1L1017.6,326.1z M1007.3,303.4c-0.3,0-0.6,0.1-0.9,0.2c-1,0.5-1.4,1.7-0.9,2.7
		c2.1,4.5,4.2,9,6.3,13.5c0.3,0.7,1.1,1.2,1.8,1.2c0.3,0,0.5-0.1,0.8-0.2c1-0.5,1.5-1.6,1-2.6c-0.9-2-1.8-4-2.7-6c0,0,0,0,0,0
		c0-0.1,0-0.1-0.1-0.2c0,0,0,0,0-0.1c0,0,0-0.1-0.1-0.1c0,0,0-0.1,0-0.1c0,0,0-0.1-0.1-0.1c0,0,0-0.1,0-0.1c0,0,0-0.1,0-0.1
		c-0.1-0.1-0.1-0.3-0.2-0.4c0,0,0,0,0,0c0-0.1,0-0.1-0.1-0.2c0,0,0,0,0,0c0-0.1,0-0.1-0.1-0.2c0,0,0,0,0,0c-0.9-2-1.9-4-2.9-6.1
		C1008.8,303.9,1008.1,303.4,1007.3,303.4L1007.3,303.4z M983.6,259.6c-0.4,0-0.7,0.1-1,0.3c-0.9,0.6-1.2,1.8-0.7,2.7
		c3.4,5.6,6.7,11.4,9.9,17.2c0.4,0.7,1,1,1.8,1c0.3,0,0.7-0.1,1-0.3c1-0.5,1.3-1.8,0.8-2.7c-3.2-5.8-6.6-11.6-10-17.3
		C985,260,984.3,259.6,983.6,259.6L983.6,259.6z M974.1,244.5c-0.4,0-0.8,0.1-1.1,0.3c-0.9,0.6-1.2,1.8-0.6,2.8
		c1.4,2.2,2.9,4.5,4.3,6.7c0.4,0.6,1,0.9,1.7,0.9c0.4,0,0.7-0.1,1.1-0.3c0.9-0.6,1.2-1.8,0.6-2.7c-0.6-1-1.3-2.1-2-3.1c0,0,0,0,0,0
		c0,0,0-0.1-0.1-0.1c0,0,0-0.1-0.1-0.1c0,0,0-0.1-0.1-0.1c0-0.1-0.1-0.1-0.1-0.2c0,0,0,0,0,0c-0.7-1.1-1.4-2.1-2-3.1
		C975.4,244.8,974.8,244.5,974.1,244.5L974.1,244.5z M960,223.9c-0.4,0-0.8,0.1-1.2,0.4c-0.9,0.6-1.1,1.9-0.5,2.8
		c2.9,4,5.8,8.1,8.5,12.2c0.4,0.6,1,0.9,1.7,0.9c0.4,0,0.8-0.1,1.1-0.3c0.9-0.6,1.1-1.8,0.5-2.8c-1.8-2.7-3.7-5.4-5.6-8c0,0,0,0,0,0
		c0-0.1-0.1-0.1-0.1-0.1c0,0,0,0,0,0c0-0.1-0.1-0.1-0.1-0.1c0,0,0,0,0,0c0,0-0.1-0.1-0.1-0.1c0,0,0,0,0,0c-0.1-0.1-0.1-0.1-0.2-0.2
		c0,0,0-0.1-0.1-0.1c0,0,0,0-0.1-0.1c0,0-0.1-0.1-0.1-0.1c0,0,0,0,0-0.1c0,0-0.1-0.1-0.1-0.1c0,0,0,0,0,0c0-0.1-0.1-0.1-0.1-0.2
		c0,0,0,0,0,0c-0.7-1-1.4-1.9-2-2.9C961.3,224.2,960.6,223.9,960,223.9L960,223.9z M929,184.9c-0.5,0-0.9,0.2-1.3,0.5
		c-0.8,0.7-0.9,2-0.2,2.8c4.3,5,8.6,10.1,12.8,15.2c0.4,0.5,1,0.7,1.6,0.7c0.4,0,0.9-0.1,1.3-0.4c0.9-0.7,1-2,0.3-2.8
		c-0.6-0.7-1.2-1.5-1.8-2.2l0,0c-0.2-0.2-0.4-0.5-0.6-0.7l0,0c-0.1-0.2-0.3-0.3-0.4-0.5l0,0c-0.1-0.2-0.3-0.3-0.4-0.5c0,0,0,0,0,0
		c-0.1-0.2-0.3-0.3-0.4-0.5l0,0c-0.1-0.1-0.1-0.2-0.2-0.2l0,0c-0.1-0.2-0.3-0.3-0.4-0.5l0,0c-0.1-0.2-0.3-0.3-0.4-0.5c0,0,0,0,0,0
		c-0.1-0.1-0.1-0.2-0.2-0.2l0,0c-0.1-0.1-0.1-0.1-0.2-0.2l0,0c-0.1-0.1-0.1-0.2-0.2-0.2c0,0,0,0,0,0c-0.1-0.2-0.3-0.3-0.4-0.5l0,0
		c-0.1-0.2-0.3-0.3-0.4-0.5c0,0,0,0,0,0c-0.1-0.1-0.1-0.2-0.2-0.2l0,0c-0.1-0.1-0.1-0.2-0.2-0.2l0,0c-0.1-0.1-0.1-0.2-0.2-0.2
		c0,0,0,0,0,0c-0.1-0.2-0.3-0.3-0.4-0.5l0,0c-0.1-0.2-0.3-0.3-0.4-0.5c0,0,0,0,0,0c-0.1-0.1-0.1-0.2-0.2-0.2l0,0
		c-0.1-0.2-0.3-0.3-0.4-0.5c0,0,0,0,0,0c-0.1-0.2-0.3-0.3-0.4-0.5l0,0c-0.1-0.2-0.3-0.3-0.4-0.5c0,0,0,0,0,0
		c-0.1-0.1-0.1-0.1-0.2-0.2l0,0c-0.1-0.1-0.1-0.1-0.2-0.2l0,0c-0.1-0.1-0.1-0.1-0.2-0.2c0,0,0,0,0,0c-0.1-0.1-0.3-0.3-0.4-0.4
		c0,0,0,0,0,0c-0.1-0.1-0.1-0.1-0.2-0.2c0,0,0,0,0,0c-0.1-0.1-0.1-0.1-0.2-0.2c0,0,0,0,0,0c-0.1-0.1-0.1-0.1-0.2-0.2c0,0,0,0,0,0
		c-0.1-0.1-0.1-0.1-0.2-0.2c0,0,0,0,0,0c-0.1-0.1-0.1-0.1-0.2-0.2c0,0,0,0-0.1-0.1c-0.1-0.1-0.1-0.1-0.2-0.2c0,0,0,0,0-0.1
		c0-0.1-0.1-0.1-0.1-0.2c0,0,0,0-0.1-0.1c-0.1-0.1-0.1-0.1-0.2-0.2c0,0,0,0-0.1-0.1c0,0-0.1-0.1-0.1-0.1c0,0,0,0-0.1-0.1
		c0-0.1-0.1-0.1-0.1-0.2c0,0-0.1-0.1-0.1-0.1c0,0-0.1-0.1-0.1-0.1c-0.1-0.1-0.1-0.1-0.1-0.2c0,0-0.1-0.1-0.1-0.1
		c0,0-0.1-0.1-0.1-0.1c0,0,0,0-0.1-0.1c-0.1-0.1-0.1-0.1-0.2-0.2c0,0,0,0,0,0c-0.1-0.1-0.2-0.2-0.3-0.3
		C930.2,185.2,929.6,184.9,929,184.9L929,184.9z M917,171.6c-0.5,0-1,0.2-1.4,0.5c-0.8,0.8-0.8,2-0.1,2.8c1.8,1.9,3.6,3.9,5.4,5.8
		c0.4,0.4,0.9,0.7,1.5,0.7c0.5,0,1-0.2,1.3-0.5c0.8-0.7,0.9-2,0.1-2.8c0,0,0,0,0,0c0,0-0.1-0.1-0.1-0.1c0,0,0,0-0.1-0.1
		c0,0-0.1-0.1-0.1-0.1c0,0-0.1-0.1-0.1-0.1c0,0,0,0-0.1-0.1c0,0-0.1-0.1-0.1-0.1c0,0,0,0,0,0c0,0-0.1-0.1-0.1-0.1c0,0,0,0,0,0
		c-0.1-0.1-0.2-0.3-0.4-0.4c0,0,0,0,0,0c0,0-0.1-0.1-0.1-0.1c0,0,0,0,0,0c0,0-0.1-0.1-0.1-0.1c0,0,0,0,0,0c-0.1-0.1-0.3-0.3-0.4-0.4
		c0,0,0,0,0,0c0,0-0.1-0.1-0.1-0.1c0,0,0,0,0,0c0,0-0.1-0.1-0.1-0.1c0,0,0,0,0,0c-0.1-0.1-0.1-0.1-0.2-0.2c0,0,0,0-0.1-0.1
		c0,0-0.1-0.1-0.1-0.1c0,0,0,0-0.1-0.1c0,0-0.1-0.1-0.1-0.1c0,0-0.1-0.1-0.1-0.1c0,0,0,0-0.1-0.1c0,0-0.1-0.1-0.1-0.1c0,0,0,0,0-0.1
		c0,0-0.1-0.1-0.1-0.1c0,0,0,0-0.1-0.1c0,0-0.1-0.1-0.1-0.1c0,0,0,0,0-0.1c0,0-0.1-0.1-0.1-0.1l0,0c-0.1-0.1-0.2-0.2-0.3-0.4l0,0
		c-0.1-0.1-0.1-0.1-0.2-0.2l0,0c-0.5-0.5-1-1.1-1.5-1.6C918.1,171.8,917.6,171.6,917,171.6L917,171.6z M899.6,153.8
		c-0.5,0-1,0.2-1.4,0.6c-0.8,0.8-0.8,2.1,0,2.8c3.5,3.4,7.1,7,10.5,10.5c0.4,0.4,0.9,0.6,1.4,0.6c0.5,0,1-0.2,1.4-0.6
		c0.8-0.8,0.8-2,0-2.8c0,0,0,0,0,0c0,0-0.1-0.1-0.1-0.1c0,0,0,0,0,0c0,0-0.1-0.1-0.1-0.1c0,0,0,0,0,0c-0.1-0.1-0.1-0.1-0.2-0.2
		c0,0,0,0,0,0c-0.1-0.1-0.2-0.2-0.3-0.3l0,0c0-0.1-0.1-0.1-0.1-0.2c0,0,0,0,0,0c0,0-0.1-0.1-0.1-0.1c0,0,0,0,0,0
		c0,0-0.1-0.1-0.1-0.1l0,0c-0.1-0.1-0.2-0.2-0.3-0.3l0,0c-0.1-0.1-0.1-0.1-0.2-0.2c0,0,0,0,0,0c0,0-0.1-0.1-0.1-0.1c0,0,0,0,0,0
		c0,0-0.1-0.1-0.1-0.1c0,0,0,0,0,0c0-0.1-0.1-0.1-0.1-0.2c0,0,0,0,0,0c-0.1-0.1-0.2-0.2-0.3-0.3c0,0,0,0,0,0c0,0-0.1-0.1-0.1-0.1
		c0,0,0,0,0,0c0,0-0.1-0.1-0.1-0.1c0,0,0,0,0,0c0,0-0.1-0.1-0.1-0.1l0,0c-0.1-0.1-0.2-0.2-0.3-0.3c0,0,0,0,0,0c0,0-0.1-0.1-0.1-0.1
		c0,0,0,0-0.1-0.1c0,0-0.1-0.1-0.1-0.1c0,0,0,0-0.1-0.1c0,0-0.1-0.1-0.1-0.1c0,0,0,0-0.1-0.1c0,0-0.1-0.1-0.1-0.1c0,0,0,0,0,0
		c-0.1-0.1-0.1-0.1-0.2-0.2c0,0,0,0,0,0c0,0-0.1-0.1-0.1-0.1c0,0,0,0-0.1-0.1c0,0-0.1-0.1-0.1-0.1c0,0,0,0-0.1-0.1
		c0,0-0.1-0.1-0.1-0.1c0,0,0,0-0.1-0.1c0,0-0.1-0.1-0.1-0.1c0,0,0,0-0.1-0.1c0,0-0.1-0.1-0.1-0.1c0,0,0,0-0.1-0.1
		c0,0-0.1-0.1-0.1-0.1c0,0,0,0-0.1-0.1c0,0-0.1-0.1-0.1-0.1c0,0,0,0-0.1-0.1c0,0-0.1-0.1-0.1-0.1c0,0,0,0-0.1-0.1
		c0,0-0.1-0.1-0.1-0.1c0,0,0,0-0.1-0.1c0,0-0.1-0.1-0.1-0.1c0,0-0.1-0.1-0.1-0.1c0,0-0.1-0.1-0.1-0.1c0,0-0.1-0.1-0.1-0.1
		c0,0,0,0-0.1-0.1c0,0,0,0-0.1-0.1c0,0,0,0-0.1-0.1c0,0-0.1-0.1-0.1-0.1c0,0,0,0-0.1-0.1c0,0-0.1-0.1-0.1-0.1c0,0,0,0-0.1-0.1
		c0,0-0.1-0.1-0.1-0.1c0,0,0,0,0,0c-0.1-0.1-0.1-0.1-0.2-0.2c0,0,0,0,0,0c0,0-0.1-0.1-0.1-0.1c0,0,0,0-0.1-0.1c0,0-0.1-0.1-0.1-0.1
		c0,0,0,0-0.1-0.1c0,0-0.1-0.1-0.1-0.1c0,0,0,0-0.1-0.1c0,0-0.1,0-0.1-0.1c0,0,0,0-0.1-0.1c0,0-0.1-0.1-0.1-0.1c0,0,0,0,0,0
		c-0.1-0.1-0.1-0.1-0.2-0.2c0,0,0,0-0.1-0.1c0,0-0.1-0.1-0.1-0.1c0,0,0,0-0.1-0.1c0,0-0.1-0.1-0.1-0.1c0,0,0,0-0.1-0.1
		c0,0-0.1-0.1-0.1-0.1c0,0,0,0-0.1-0.1c0,0,0,0-0.1-0.1c0,0-0.1-0.1-0.1-0.1c0,0,0,0,0,0c-0.1,0-0.1-0.1-0.1-0.1c0,0,0,0-0.1-0.1
		c0,0-0.1-0.1-0.1-0.1c0,0,0,0-0.1-0.1c0,0-0.1-0.1-0.1-0.1c0,0,0,0-0.1-0.1c0,0-0.1-0.1-0.1-0.1c0,0,0,0,0,0c0,0-0.1-0.1-0.1-0.1
		c0,0,0,0,0,0c-0.1-0.1-0.2-0.2-0.3-0.3l0,0c0,0-0.1-0.1-0.1-0.1c0,0,0,0,0,0c0,0-0.1-0.1-0.1-0.1c0,0,0,0,0,0
		c-0.1-0.1-0.2-0.2-0.3-0.3C900.6,154,900.1,153.8,899.6,153.8L899.6,153.8z M862.3,120.8c-0.6,0-1.2,0.3-1.6,0.7
		c-0.7,0.9-0.6,2.1,0.3,2.8c5.1,4.1,10.3,8.4,15.2,12.7c0.4,0.3,0.8,0.5,1.3,0.5c0.6,0,1.1-0.2,1.5-0.7c0.7-0.8,0.6-2.1-0.2-2.8
		c0,0-0.1-0.1-0.1-0.1c0,0,0,0,0,0c-0.1-0.1-0.2-0.2-0.3-0.2c0,0,0,0,0,0c0,0-0.1-0.1-0.1-0.1c0,0-0.1-0.1-0.1-0.1
		c0,0-0.1-0.1-0.2-0.1c0,0-0.1-0.1-0.1-0.1c0,0-0.1-0.1-0.1-0.1c-0.1-0.1-0.1-0.1-0.2-0.2c0,0,0,0,0,0c-0.1,0-0.1-0.1-0.2-0.1
		c0,0,0,0-0.1,0c-0.1-0.1-0.1-0.1-0.2-0.2l0,0c-0.1-0.1-0.1-0.1-0.2-0.2l0,0c-0.1-0.1-0.2-0.1-0.2-0.2c0,0,0,0,0,0
		c-4.3-3.7-8.7-7.4-13.2-11C863.2,121,862.7,120.8,862.3,120.8L862.3,120.8z M848.1,109.8c-0.6,0-1.2,0.3-1.6,0.8
		c-0.7,0.9-0.5,2.1,0.4,2.8c2.1,1.6,4.2,3.2,6.3,4.8c0.4,0.3,0.8,0.4,1.2,0.4c0.6,0,1.2-0.3,1.6-0.8c0.7-0.9,0.5-2.1-0.3-2.8
		c-1.3-1-2.6-2-3.9-3c0,0,0,0,0,0c0,0-0.1-0.1-0.1-0.1c0,0,0,0-0.1-0.1c0,0-0.1,0-0.1-0.1c-0.1,0-0.1-0.1-0.2-0.1c0,0,0,0,0,0
		c-0.1,0-0.1-0.1-0.2-0.1c0,0,0,0,0,0c0,0-0.1-0.1-0.2-0.1c0,0,0,0,0,0c-0.5-0.4-1.1-0.8-1.6-1.2C849,110,848.6,109.8,848.1,109.8
		L848.1,109.8z M827.9,95.4c-0.6,0-1.3,0.3-1.7,0.9c-0.6,0.9-0.4,2.2,0.5,2.8c4.1,2.8,8.2,5.6,12.2,8.5c0.4,0.3,0.8,0.4,1.2,0.4
		c0.6,0,1.2-0.3,1.6-0.8c0.6-0.9,0.4-2.1-0.4-2.8c-1.2-0.9-2.5-1.8-3.7-2.7c0,0,0,0,0,0c-0.1,0-0.1-0.1-0.1-0.1c0,0,0,0,0,0
		c0,0-0.1-0.1-0.1-0.1c0,0,0,0,0,0c0,0-0.1-0.1-0.1-0.1c0,0-0.1,0-0.1-0.1c-0.1,0-0.1-0.1-0.1-0.1c0,0-0.1-0.1-0.1-0.1
		c0,0,0,0-0.1,0c0,0-0.1-0.1-0.1-0.1c0,0,0,0-0.1,0c0,0-0.1-0.1-0.1-0.1c0,0,0,0,0,0c-0.1,0-0.1-0.1-0.2-0.1l0,0
		c-2.4-1.7-4.7-3.3-7.1-4.9C828.7,95.5,828.3,95.4,827.9,95.4L827.9,95.4z M785.4,69.4c-0.7,0-1.4,0.4-1.8,1c-0.5,1-0.2,2.2,0.8,2.7
		c5.8,3.2,11.6,6.5,17.2,9.9c0.3,0.2,0.7,0.3,1,0.3c0.7,0,1.3-0.3,1.7-1c0.6-0.9,0.3-2.2-0.7-2.7c-0.9-0.5-1.8-1.1-2.8-1.6
		c0,0,0,0,0,0c-0.2-0.1-0.4-0.3-0.7-0.4c0,0,0,0,0,0c-0.2-0.1-0.3-0.2-0.5-0.3c0,0,0,0,0,0c-0.1,0-0.1-0.1-0.2-0.1c0,0,0,0,0,0
		c-0.1-0.1-0.2-0.1-0.3-0.2c0,0,0,0,0,0c-0.1,0-0.1-0.1-0.2-0.1c0,0,0,0,0,0c-0.2-0.1-0.3-0.2-0.5-0.3c0,0,0,0,0,0
		c-0.1,0-0.1-0.1-0.2-0.1c0,0,0,0,0,0c-0.1-0.1-0.2-0.1-0.3-0.2c0,0,0,0,0,0c-0.1,0-0.1-0.1-0.1-0.1c0,0,0,0,0,0
		c-0.1,0-0.1-0.1-0.2-0.1c0,0,0,0,0,0c-0.1-0.1-0.2-0.1-0.3-0.2c0,0,0,0,0,0c-0.1,0-0.1-0.1-0.2-0.1c0,0,0,0,0,0
		c-0.1-0.1-0.2-0.1-0.3-0.2c0,0,0,0,0,0c-0.1,0-0.1-0.1-0.2-0.1c0,0,0,0,0,0c-0.1,0-0.1-0.1-0.2-0.1c0,0,0,0,0,0
		c-0.1-0.1-0.2-0.1-0.3-0.2c0,0,0,0,0,0c-0.1,0-0.1-0.1-0.2-0.1c0,0,0,0,0,0c-0.2-0.1-0.3-0.2-0.5-0.3c0,0,0,0,0,0
		c-0.1,0-0.1-0.1-0.2-0.1c0,0,0,0,0,0c-0.2-0.1-0.3-0.2-0.5-0.3l0,0c-1-0.6-2.1-1.2-3.1-1.8c0,0,0,0,0,0c-0.2-0.1-0.3-0.2-0.5-0.3
		c0,0,0,0,0,0c-0.1,0-0.1-0.1-0.2-0.1c0,0,0,0,0,0c-0.2-0.1-0.3-0.2-0.5-0.3c0,0,0,0,0,0c-0.1,0-0.1,0-0.1-0.1c0,0,0,0,0,0
		c-0.1-0.1-0.2-0.1-0.3-0.2c0,0,0,0-0.1,0c0,0-0.1,0-0.1-0.1c0,0,0,0,0,0c0,0-0.1,0-0.1-0.1c0,0,0,0,0,0c-0.1,0-0.1-0.1-0.2-0.1
		c0,0,0,0-0.1,0c0,0-0.1,0-0.1-0.1c0,0-0.1,0-0.1,0c0,0-0.1,0-0.1,0c0,0-0.1,0-0.1,0c0,0-0.1,0-0.1,0c-0.1,0-0.1-0.1-0.2-0.1
		c0,0,0,0-0.1,0c0,0-0.1,0-0.1-0.1c0,0,0,0-0.1,0c0,0-0.1,0-0.1-0.1c0,0,0,0,0,0c-0.7-0.4-1.4-0.7-2-1.1
		C786.1,69.4,785.7,69.4,785.4,69.4L785.4,69.4z M769.6,61c-0.7,0-1.4,0.4-1.8,1.1c-0.5,1-0.1,2.2,0.9,2.7c2.3,1.2,4.7,2.4,7.1,3.6
		c0.3,0.2,0.6,0.2,0.9,0.2c0.7,0,1.4-0.4,1.8-1.1c0.5-1,0.1-2.2-0.8-2.7c-2.4-1.2-4.7-2.5-7.1-3.7C770.2,61.1,769.9,61,769.6,61
		L769.6,61z M747.1,50.3c-0.8,0-1.5,0.4-1.8,1.2c-0.5,1,0,2.2,1,2.6c4.5,2,9.1,4.1,13.5,6.3c0.3,0.1,0.6,0.2,0.9,0.2
		c0.7,0,1.5-0.4,1.8-1.1c0.5-1,0.1-2.2-0.9-2.7c-2.2-1.1-4.5-2.1-6.7-3.2c0,0,0,0,0,0c0,0-0.1,0-0.1-0.1c0,0,0,0-0.1,0
		c0,0-0.1,0-0.1-0.1c0,0-0.1,0-0.1,0c0,0-0.1,0-0.1,0c0,0-0.1,0-0.1-0.1c0,0,0,0-0.1,0c-0.1-0.1-0.3-0.1-0.4-0.2l0,0
		c-0.1,0-0.1-0.1-0.2-0.1c0,0,0,0,0,0c-0.1,0-0.1-0.1-0.2-0.1l0,0c-0.1,0-0.1-0.1-0.2-0.1c0,0,0,0,0,0c-1.6-0.7-3.1-1.4-4.7-2.1
		c0,0,0,0,0,0c-0.1,0-0.1-0.1-0.2-0.1c0,0,0,0-0.1,0c0,0-0.1,0-0.1-0.1c0,0,0,0-0.1,0C747.6,50.3,747.3,50.3,747.1,50.3L747.1,50.3z
		 M700.7,32.1c-0.8,0-1.6,0.5-1.9,1.4c-0.4,1,0.2,2.2,1.3,2.5c6.2,2.1,12.5,4.4,18.7,6.7c0.2,0.1,0.5,0.1,0.7,0.1
		c0.8,0,1.6-0.5,1.9-1.3c0.4-1-0.1-2.2-1.1-2.6c-1.5-0.6-2.9-1.1-4.4-1.7c0,0,0,0,0,0c-0.1,0-0.1,0-0.2-0.1c0,0,0,0,0,0
		c-0.1,0-0.1,0-0.2-0.1c0,0,0,0,0,0c-0.1,0-0.1,0-0.2-0.1c0,0,0,0-0.1,0c0,0-0.1,0-0.1,0c0,0,0,0-0.1,0c0,0-0.1,0-0.1,0
		c0,0-0.1,0-0.1,0c0,0,0,0-0.1,0c-0.1,0-0.1,0-0.2-0.1c0,0,0,0,0,0c0,0-0.1,0-0.1,0c0,0,0,0-0.1,0c0,0-0.1,0-0.1,0l0,0
		c-0.1,0-0.3-0.1-0.4-0.1c0,0,0,0,0,0c0,0-0.1,0-0.1,0c0,0,0,0,0,0c-0.1-0.1-0.3-0.1-0.4-0.2c0,0,0,0,0,0c0,0-0.1,0-0.1,0l0,0
		c-0.4-0.2-0.9-0.3-1.3-0.5l0,0c-0.2-0.1-0.4-0.1-0.6-0.2l0,0c-0.2-0.1-0.4-0.1-0.6-0.2c0,0,0,0,0,0c0,0-0.1,0-0.1,0c0,0,0,0,0,0
		c-0.1,0-0.3-0.1-0.4-0.1c0,0,0,0,0,0c0,0-0.1,0-0.1,0c0,0,0,0,0,0c0,0-0.1,0-0.1,0l0,0c-0.1,0-0.2-0.1-0.3-0.1l0,0c0,0-0.1,0-0.1,0
		l0,0c0,0-0.1,0-0.1,0c0,0,0,0,0,0c-0.1,0-0.3-0.1-0.4-0.1c0,0,0,0-0.1,0c0,0-0.1,0-0.1,0c0,0,0,0-0.1,0c-0.1,0-0.3-0.1-0.4-0.1
		c0,0,0,0,0,0c0,0-0.1,0-0.1,0c0,0,0,0-0.1,0c0,0-0.1,0-0.1,0c0,0,0,0,0,0c-0.1,0-0.1-0.1-0.2-0.1c0,0,0,0,0,0c0,0-0.1,0-0.1,0
		c0,0,0,0-0.1,0c0,0-0.1,0-0.1,0c0,0-0.1,0-0.1,0c0,0-0.1,0-0.1-0.1c0,0,0,0-0.1,0c0,0-0.1,0-0.1,0c0,0-0.1,0-0.1,0c0,0-0.1,0-0.1,0
		c0,0,0,0-0.1,0c0,0-0.1,0-0.1,0c0,0-0.1,0-0.1,0c0,0-0.1,0-0.1,0c0,0-0.1,0-0.1,0c0,0-0.1,0-0.1,0c0,0-0.1,0-0.1,0c0,0,0,0-0.1,0
		c0,0-0.1,0-0.1,0c0,0-0.1,0-0.1,0c0,0-0.1,0-0.1,0c0,0-0.1,0-0.1,0c0,0-0.1,0-0.1,0c0,0-0.1,0-0.1,0c0,0-0.1,0-0.1,0
		c0,0-0.1,0-0.1,0c0,0-0.1,0-0.1,0c0,0-0.1,0-0.1,0c0,0,0,0-0.1,0c0,0-0.1,0-0.1,0c0,0,0,0-0.1,0c0,0-0.1,0-0.1,0c0,0-0.1,0-0.1,0
		c-0.1,0-0.1,0-0.2-0.1c0,0,0,0-0.1,0c0,0-0.1,0-0.1,0c0,0,0,0-0.1,0c0,0-0.1,0-0.1,0c0,0-0.1,0-0.1,0c-0.1,0-0.2-0.1-0.4-0.1
		c0,0,0,0,0,0c0,0-0.1,0-0.1,0c0,0,0,0,0,0c-0.2-0.1-0.4-0.1-0.6-0.2l0,0c-0.4-0.2-0.9-0.3-1.3-0.5
		C701.1,32.2,700.9,32.1,700.7,32.1L700.7,32.1z M683.6,26.7c-0.9,0-1.7,0.6-1.9,1.4c-0.3,1.1,0.3,2.2,1.3,2.5
		c2.5,0.8,5.1,1.5,7.6,2.3c0.2,0.1,0.4,0.1,0.6,0.1c0.8,0,1.6-0.5,1.9-1.4c0.3-1.1-0.3-2.2-1.3-2.5c-1.6-0.5-3.2-1-4.8-1.5
		c0,0-0.1,0-0.1,0c0,0-0.1,0-0.1,0c0,0-0.1,0-0.1,0c0,0-0.1,0-0.1,0c0,0-0.1,0-0.1,0c0,0,0,0-0.1,0c-0.8-0.2-1.5-0.5-2.3-0.7
		C684,26.7,683.8,26.7,683.6,26.7L683.6,26.7z M659.6,20.1c-0.9,0-1.7,0.6-1.9,1.5c-0.3,1.1,0.4,2.2,1.5,2.4
		c4.8,1.2,9.6,2.5,14.4,3.8c0.2,0.1,0.4,0.1,0.5,0.1c0.9,0,1.7-0.6,1.9-1.5c0.3-1.1-0.3-2.2-1.4-2.5c-1-0.3-2.1-0.6-3.1-0.9
		c0,0,0,0-0.1,0c0,0-0.1,0-0.1,0c0,0-0.1,0-0.1,0c0,0-0.1,0-0.1,0c0,0-0.1,0-0.1,0c0,0-0.1,0-0.1,0c0,0-0.1,0-0.1,0c0,0,0,0-0.1,0
		c0,0-0.1,0-0.1,0c0,0,0,0,0,0c-3.4-0.9-6.7-1.8-10.1-2.6c0,0,0,0,0,0c-0.1,0-0.1,0-0.2,0c0,0,0,0,0,0c0,0-0.1,0-0.1,0
		C659.9,20.2,659.7,20.1,659.6,20.1L659.6,20.1z M610.7,10.4c-1,0-1.8,0.7-2,1.7c-0.2,1.1,0.6,2.1,1.7,2.3c6.5,1,13.1,2.1,19.6,3.3
		c0.1,0,0.2,0,0.4,0c0.9,0,1.8-0.7,2-1.6c0.2-1.1-0.5-2.1-1.6-2.3c-6.5-1.2-13.1-2.3-19.7-3.3C610.9,10.4,610.8,10.4,610.7,10.4
		L610.7,10.4z M593,8.1c-1,0-1.9,0.8-2,1.8c-0.1,1.1,0.7,2.1,1.8,2.2c2.6,0.3,5.3,0.6,7.9,1c0.1,0,0.2,0,0.3,0c1,0,1.8-0.7,2-1.7
		c0.1-1.1-0.6-2.1-1.7-2.2c-2.6-0.3-5.3-0.7-7.9-1C593.1,8.1,593.1,8.1,593,8.1L593,8.1z M568.2,5.8c-1,0-1.9,0.8-2,1.9
		c-0.1,1.1,0.8,2.1,1.9,2.1c4.9,0.3,9.9,0.7,14.8,1.2c0.1,0,0.1,0,0.2,0c1,0,1.9-0.8,2-1.8c0.1-1.1-0.7-2.1-1.8-2.2
		c-5-0.5-10-0.9-15-1.2C568.3,5.8,568.2,5.8,568.2,5.8L568.2,5.8z M532.1,4.6c-0.1,0-0.2,0-0.2,0c0,0,0,0-0.1,0c-0.1,0-0.1,0-0.2,0
		c0,0-0.1,0-0.1,0c0,0-0.1,0-0.1,0c0,0-0.1,0-0.1,0c0,0-0.1,0-0.1,0c0,0-0.1,0-0.1,0c-0.1,0-0.1,0-0.2,0c0,0,0,0-0.1,0
		c-0.1,0-0.2,0-0.2,0l0,0c-0.1,0-0.1,0-0.2,0c0,0,0,0-0.1,0c-0.1,0-0.1,0-0.2,0c0,0-0.1,0-0.1,0c-0.1,0-0.1,0-0.2,0c0,0,0,0-0.1,0
		c-0.1,0-0.1,0-0.2,0c0,0,0,0-0.1,0c-0.1,0-0.2,0-0.2,0c0,0,0,0,0,0c-0.2,0-0.3,0-0.5,0l0,0c-0.1,0-0.1,0-0.2,0c0,0,0,0,0,0
		c-0.1,0-0.1,0-0.2,0l0,0c-0.1,0-0.2,0-0.2,0l0,0c-1.3,0-2.7,0-4,0c-1.1,0-2,0.9-2,2c0,1.1,0.9,2,2,2c0,0,0,0,0,0
		c2.6,0,5.3-0.1,7.9-0.1l0,0c2,0,4.1,0,6.2,0c0,0,0,0,0,0c1.1,0,2-0.9,2-2c0-1.1-0.9-2-2-2c-1.6,0-3.1,0-4.7,0c0,0,0,0,0,0
		c-0.1,0-0.1,0-0.2,0c0,0,0,0,0,0c-0.1,0-0.1,0-0.2,0c0,0,0,0-0.1,0c0,0-0.1,0-0.2,0c0,0,0,0-0.1,0c0,0-0.1,0-0.1,0c0,0,0,0-0.1,0
		c-0.1,0-0.1,0-0.1,0c0,0,0,0-0.1,0c-0.1,0-0.1,0-0.2,0c0,0,0,0-0.1,0C532.3,4.6,532.2,4.6,532.1,4.6L532.1,4.6z"/>
</g>
</svg>
