<?xml version="1.0" encoding="utf-8"?>
<!-- Generator: Adobe Illustrator 22.0.1, SVG Export Plug-In . SVG Version: 6.00 Build 0)  -->
<svg version="1.1" id="Lager_1" xmlns="http://www.w3.org/2000/svg" xmlns:xlink="http://www.w3.org/1999/xlink" x="0px" y="0px"
	 viewBox="0 0 1000 570.1" style="enable-background:new 0 0 1000 570.1;" xml:space="preserve">
<style type="text/css">
	.st0{fill:#172730;}
</style>
<g>
	<path class="st0" d="M972.7,353.8c-1.8-47.3-31.8-152.5-64.1-182.5c-13.4-12.4-28.7-22.7-45.4-30.4l0,0
		c-83.8-28.4-111,10.7-207.9,15.4S533.5,135,457.6,137.8s-57.9,42.4-127.1,26.8c-46-10.3-94.3-15-133.7-16.9l-13,0.5
		C89.2,151.8,23.8,295.1,27.4,389.6c1.8,47.3,22.8,89.5,55.1,119.5c10,9.2,21,17.3,32.9,24c77.2-34.2,270.9-96.6,436.7-31.3
		c135.2,53.3,277,23.9,333.2,8.2C939.4,479.3,975.2,420,972.7,353.8z"/>
</g>
</svg>
