<?xml version="1.0" encoding="utf-8"?>
<!-- Generator: Adobe Illustrator 22.0.1, SVG Export Plug-In . SVG Version: 6.00 Build 0)  -->
<svg version="1.1" id="Lager_1" xmlns="http://www.w3.org/2000/svg" xmlns:xlink="http://www.w3.org/1999/xlink" x="0px" y="0px"
	 viewBox="0 0 1920 727.5" style="enable-background:new 0 0 1920 727.5;" xml:space="preserve">
<style type="text/css">
	.st0{opacity:0.19;}
	.st1{fill:#7DD1FF;}
	.st2{fill:#EAEAEA;}
	.st3{fill:#EFEFEF;}
	.st4{opacity:0.56;}
	.st5{fill:#AAE1F9;}
	.st6{fill:#AAE1F9;fill-opacity:0;}
	.st7{opacity:0.61;fill:#AAE1F9;enable-background:new    ;}
	.st8{opacity:0.79;fill:#AAE1F9;enable-background:new    ;}
	.st9{opacity:0.17;fill:#AAE1F9;enable-background:new    ;}
	.st10{opacity:0.14;fill:#AAE1F9;enable-background:new    ;}
	.st11{fill:none;stroke:#0018F9;stroke-miterlimit:10;}
	.st12{fill:none;stroke:#00F717;stroke-miterlimit:10;}
	.st13{fill:none;stroke:#F44500;stroke-miterlimit:10;}
	.st14{fill:none;stroke:#F2F200;stroke-miterlimit:10;}
</style>
<g class="st0">
	<g>
		<rect x="465" y="322.8" class="st1" width="6" height="6"/>
		<rect x="465" y="333.4" class="st1" width="6" height="6"/>
		<rect x="475.4" y="333.4" class="st1" width="6" height="6"/>
		<rect x="475.4" y="322.8" class="st1" width="6" height="6"/>
	</g>
	<g>
		<path class="st1" d="M468.1,351.2h-0.2c-1.6,0-2.9-1.3-2.9-2.9v-0.2c0-1.6,1.3-2.9,2.9-2.9h0.2c1.6,0,2.9,1.3,2.9,2.9v0.2
			C471,349.9,469.7,351.2,468.1,351.2z"/>
		<path class="st1" d="M530.1,274h-0.2c-1.6,0-2.9-1.3-2.9-2.9v-0.2c0-1.6,1.3-2.9,2.9-2.9h0.2c1.6,0,2.9,1.3,2.9,2.9v0.2
			C533,272.7,531.7,274,530.1,274z"/>
		<path class="st1" d="M540.5,274h-0.2c-1.6,0-2.9-1.3-2.9-2.9v-0.2c0-1.6,1.3-2.9,2.9-2.9h0.2c1.6,0,2.9,1.3,2.9,2.9v0.2
			C543.4,272.7,542.1,274,540.5,274z"/>
		<path class="st1" d="M478.4,351.2h-0.2c-1.6,0-2.9-1.3-2.9-2.9v-0.2c0-1.6,1.3-2.9,2.9-2.9h0.2c1.6,0,2.9,1.3,2.9,2.9v0.2
			C481.4,349.9,480.1,351.2,478.4,351.2z"/>
	</g>
	<g>
		<path class="st1" d="M530.1,274h-0.2c-1.6,0-2.9-1.3-2.9-2.9v-0.2c0-1.6,1.3-2.9,2.9-2.9h0.2c1.6,0,2.9,1.3,2.9,2.9v0.2
			C533,272.7,531.7,274,530.1,274z"/>
		<path class="st1" d="M533,284.6h-6v-3.1c0-1.6,1.3-2.9,2.9-2.9h0.2c1.6,0,2.9,1.3,2.9,2.9L533,284.6L533,284.6z"/>
		<path class="st1" d="M543.4,284.6h-6v-3.1c0-1.6,1.3-2.9,2.9-2.9h0.2c1.6,0,2.9,1.3,2.9,2.9L543.4,284.6L543.4,284.6z"/>
		<path class="st1" d="M540.5,274h-0.2c-1.6,0-2.9-1.3-2.9-2.9v-0.2c0-1.6,1.3-2.9,2.9-2.9h0.2c1.6,0,2.9,1.3,2.9,2.9v0.2
			C543.4,272.7,542.1,274,540.5,274z"/>
	</g>
	<g>
		<rect x="527" y="290.4" class="st1" width="6" height="6"/>
		<rect x="527" y="301" class="st1" width="6" height="6"/>
		<rect x="537.4" y="301" class="st1" width="6" height="6"/>
		<rect x="537.4" y="290.4" class="st1" width="6" height="6"/>
	</g>
	<g>
		<rect x="527" y="301" class="st1" width="6" height="6"/>
		<rect x="527" y="311.6" class="st1" width="6" height="6"/>
		<rect x="537.4" y="311.6" class="st1" width="6" height="6"/>
		<rect x="537.4" y="301" class="st1" width="6" height="6"/>
	</g>
	<g>
		<rect x="527" y="323.4" class="st2" width="6" height="6"/>
		<rect x="527" y="334" class="st2" width="6" height="6"/>
		<rect x="537.4" y="334" class="st2" width="6" height="6"/>
		<rect x="537.4" y="323.4" class="st2" width="6" height="6"/>
	</g>
	<g>
		<rect x="527" y="334" class="st2" width="6" height="6"/>
		<path class="st1" d="M530.5,350.6h-1c-1.4,0-2.5-1.1-2.5-2.5v-1c0-1.4,1.1-2.5,2.5-2.5h1c1.4,0,2.5,1.1,2.5,2.5v1
			C533,349.5,531.9,350.6,530.5,350.6z"/>
		<path class="st1" d="M540.9,350.6h-1c-1.4,0-2.5-1.1-2.5-2.5v-1c0-1.4,1.1-2.5,2.5-2.5h1c1.4,0,2.5,1.1,2.5,2.5v1
			C543.4,349.5,542.3,350.6,540.9,350.6z"/>
		<rect x="537.4" y="334" class="st2" width="6" height="6"/>
	</g>
	<g>
		<path class="st1" d="M530.5,362.4h-1c-1.4,0-2.5-1.1-2.5-2.5v-1c0-1.4,1.1-2.5,2.5-2.5h1c1.4,0,2.5,1.1,2.5,2.5v1
			C533,361.3,531.9,362.4,530.5,362.4z"/>
		<path class="st1" d="M530.5,373h-1c-1.4,0-2.5-1.1-2.5-2.5v-1c0-1.4,1.1-2.5,2.5-2.5h1c1.4,0,2.5,1.1,2.5,2.5v1
			C533,371.9,531.9,373,530.5,373z"/>
		<path class="st1" d="M540.9,373h-1c-1.4,0-2.5-1.1-2.5-2.5v-1c0-1.4,1.1-2.5,2.5-2.5h1c1.4,0,2.5,1.1,2.5,2.5v1
			C543.4,371.9,542.3,373,540.9,373z"/>
		<path class="st1" d="M540.9,362.4h-1c-1.4,0-2.5-1.1-2.5-2.5v-1c0-1.4,1.1-2.5,2.5-2.5h1c1.4,0,2.5,1.1,2.5,2.5v1
			C543.4,361.3,542.3,362.4,540.9,362.4z"/>
	</g>
	<g>
		<rect x="485.7" y="322.8" class="st1" width="6" height="6"/>
		<rect x="485.7" y="333.4" class="st1" width="6" height="6"/>
		<rect x="496" y="333.4" class="st1" width="6" height="6"/>
		<rect x="496" y="322.8" class="st1" width="6" height="6"/>
	</g>
	<g>
		<path class="st1" d="M488.7,351.2h-0.2c-1.6,0-2.9-1.3-2.9-2.9v-0.2c0-1.6,1.3-2.9,2.9-2.9h0.2c1.6,0,2.9,1.3,2.9,2.9v0.2
			C491.7,349.9,490.4,351.2,488.7,351.2z"/>
		<path class="st1" d="M550.8,274h-0.2c-1.6,0-2.9-1.3-2.9-2.9v-0.2c0-1.6,1.3-2.9,2.9-2.9h0.2c1.6,0,2.9,1.3,2.9,2.9v0.2
			C553.7,272.7,552.4,274,550.8,274z"/>
		<path class="st1" d="M561.1,274L561.1,274c-1.7,0-3-1.3-3-2.9v-0.2c0-1.6,1.3-2.9,2.9-2.9h0.2c1.6,0,2.9,1.3,2.9,2.9v0.2
			C564,272.7,562.7,274,561.1,274z"/>
		<path class="st1" d="M499.1,351.2h-0.2c-1.6,0-2.9-1.3-2.9-2.9v-0.2c0-1.6,1.3-2.9,2.9-2.9h0.2c1.6,0,2.9,1.3,2.9,2.9v0.2
			C502,349.9,500.7,351.2,499.1,351.2z"/>
	</g>
	<g>
		<path class="st1" d="M550.8,274h-0.2c-1.6,0-2.9-1.3-2.9-2.9v-0.2c0-1.6,1.3-2.9,2.9-2.9h0.2c1.6,0,2.9,1.3,2.9,2.9v0.2
			C553.7,272.7,552.4,274,550.8,274z"/>
		<path class="st1" d="M553.7,284.6h-6v-3.1c0-1.6,1.3-2.9,2.9-2.9h0.2c1.6,0,2.9,1.3,2.9,2.9L553.7,284.6L553.7,284.6z"/>
		<path class="st1" d="M564,284.6h-6v-3.1c0-1.6,1.3-2.9,2.9-2.9h0.2c1.6,0,2.9,1.3,2.9,2.9L564,284.6L564,284.6z"/>
		<path class="st1" d="M561.1,274L561.1,274c-1.7,0-3-1.3-3-2.9v-0.2c0-1.6,1.3-2.9,2.9-2.9h0.2c1.6,0,2.9,1.3,2.9,2.9v0.2
			C564,272.7,562.7,274,561.1,274z"/>
	</g>
	<g>
		<rect x="547.7" y="290.4" class="st1" width="6" height="6"/>
		<rect x="547.7" y="301" class="st1" width="6" height="6"/>
		<path class="st1" d="M561.2,307H558v-6h3.1c1.6,0,2.9,1.3,2.9,2.9v0.2C564,305.7,562.7,307,561.2,307z"/>
		<path class="st1" d="M561.2,296.4H558v-6h3.1c1.6,0,2.9,1.3,2.9,2.9v0.2C564,295.1,562.7,296.4,561.2,296.4z"/>
	</g>
	<g>
		<rect x="547.7" y="301" class="st1" width="6" height="6"/>
		<rect x="547.7" y="311.6" class="st1" width="6" height="6"/>
		<rect x="558" y="311.6" class="st1" width="6" height="6"/>
		<path class="st1" d="M561.2,307H558v-6h3.1c1.6,0,2.9,1.3,2.9,2.9v0.2C564,305.7,562.7,307,561.2,307z"/>
	</g>
	<g>
		<rect x="547.7" y="323.4" class="st2" width="6" height="6"/>
		<rect x="547.7" y="334" class="st2" width="6" height="6"/>
		<rect x="558" y="334" class="st2" width="6" height="6"/>
		<rect x="558" y="323.4" class="st2" width="6" height="6"/>
	</g>
	<g>
		<rect x="547.7" y="334" class="st2" width="6" height="6"/>
		<path class="st1" d="M551.2,350.6h-1c-1.4,0-2.5-1.1-2.5-2.5v-1c0-1.4,1.1-2.5,2.5-2.5h1c1.4,0,2.5,1.1,2.5,2.5v1
			C553.7,349.5,552.6,350.6,551.2,350.6z"/>
		<rect x="558" y="344.6" class="st1" width="6" height="6"/>
		<rect x="558" y="334" class="st2" width="6" height="6"/>
	</g>
	<g>
		<path class="st1" d="M551.2,362.4h-1c-1.4,0-2.5-1.1-2.5-2.5v-1c0-1.4,1.1-2.5,2.5-2.5h1c1.4,0,2.5,1.1,2.5,2.5v1
			C553.7,361.3,552.6,362.4,551.2,362.4z"/>
		<path class="st1" d="M551.2,373h-1c-1.4,0-2.5-1.1-2.5-2.5v-1c0-1.4,1.1-2.5,2.5-2.5h1c1.4,0,2.5,1.1,2.5,2.5v1
			C553.7,371.9,552.6,373,551.2,373z"/>
		<rect x="558" y="367" class="st1" width="6" height="6"/>
		<rect x="558" y="356.4" class="st1" width="6" height="6"/>
	</g>
</g>
<g class="st0">
	<g>
		<rect x="496" y="322.8" class="st1" width="6" height="6"/>
		<rect x="496" y="333.5" class="st1" width="6" height="6"/>
		<rect x="506.3" y="333.5" class="st3" width="6" height="6"/>
		<rect x="506.3" y="322.8" class="st3" width="6" height="6"/>
	</g>
	<g>
		<path class="st1" d="M499,351.2h-0.2c-1.6,0-2.9-1.3-2.9-2.9v-0.2c0-1.6,1.3-2.9,2.9-2.9h0.2c1.6,0,2.9,1.3,2.9,2.9v0.2
			C502,349.9,500.7,351.2,499,351.2z"/>
		<path class="st1" d="M561.1,274h-0.2c-1.6,0-2.9-1.3-2.9-2.9v-0.2c0-1.6,1.3-2.9,2.9-2.9h0.2c1.6,0,2.9,1.3,2.9,2.9v0.2
			C564,272.7,562.7,274,561.1,274z"/>
		<rect x="568.3" y="268" class="st3" width="6" height="6"/>
		<rect x="506.3" y="345.2" class="st3" width="6" height="6"/>
	</g>
	<g>
		<path class="st1" d="M561.1,274h-0.2c-1.6,0-2.9-1.3-2.9-2.9v-0.2c0-1.6,1.3-2.9,2.9-2.9h0.2c1.6,0,2.9,1.3,2.9,2.9v0.2
			C564,272.7,562.7,274,561.1,274z"/>
		<path class="st1" d="M564,284.7h-6v-3.1c0-1.6,1.3-2.9,2.9-2.9h0.2c1.6,0,2.9,1.3,2.9,2.9L564,284.7L564,284.7z"/>
		<rect x="568.3" y="278.7" class="st3" width="6" height="6"/>
		<rect x="568.3" y="268" class="st3" width="6" height="6"/>
	</g>
	<g>
		<path class="st1" d="M561.1,296.4H558v-6h3.1c1.6,0,2.9,1.3,2.9,2.9v0.2C564,295.1,562.7,296.4,561.1,296.4z"/>
		<path class="st1" d="M561.1,307H558v-6h3.1c1.6,0,2.9,1.3,2.9,2.9v0.2C564,305.7,562.7,307,561.1,307z"/>
		<path class="st1" d="M571.5,307h-0.2c-1.6,0-2.9-1.3-2.9-2.9v-0.2c0-1.6,1.3-2.9,2.9-2.9h0.2c1.6,0,2.9,1.3,2.9,2.9v0.2
			C574.3,305.7,573.1,307,571.5,307z"/>
		<path class="st1" d="M571.5,296.4h-0.2c-1.6,0-2.9-1.3-2.9-2.9v-0.2c0-1.6,1.3-2.9,2.9-2.9h0.2c1.6,0,2.9,1.3,2.9,2.9v0.2
			C574.3,295.1,573.1,296.4,571.5,296.4z"/>
	</g>
	<g>
		<path class="st1" d="M561.1,307H558v-6h3.1c1.6,0,2.9,1.3,2.9,2.9v0.2C564,305.7,562.7,307,561.1,307z"/>
		<rect x="558" y="311.7" class="st1" width="6" height="6"/>
		<rect x="568.3" y="311.7" class="st1" width="6" height="6"/>
		<path class="st1" d="M571.5,307h-0.2c-1.6,0-2.9-1.3-2.9-2.9v-0.2c0-1.6,1.3-2.9,2.9-2.9h0.2c1.6,0,2.9,1.3,2.9,2.9v0.2
			C574.3,305.7,573.1,307,571.5,307z"/>
	</g>
	<g>
		<rect x="558" y="323.4" class="st2" width="6" height="6"/>
		<rect x="558" y="334" class="st2" width="6" height="6"/>
		<path class="st2" d="M571.3,340L571.3,340c-1.7,0-3-1.3-3-3l0,0c0-1.7,1.3-3,3-3l0,0c1.7,0,3,1.3,3,3l0,0
			C574.3,338.7,573,340,571.3,340z"/>
		<path class="st2" d="M571.3,329.4L571.3,329.4c-1.7,0-3-1.3-3-3l0,0c0-1.7,1.3-3,3-3l0,0c1.7,0,3,1.3,3,3l0,0
			C574.3,328.1,573,329.4,571.3,329.4z"/>
	</g>
	<g>
		<rect x="558" y="334" class="st2" width="6" height="6"/>
		<rect x="558" y="344.7" class="st1" width="6" height="6"/>
		<path class="st1" d="M571.3,350.7L571.3,350.7c-1.7,0-3-1.3-3-3l0,0c0-1.7,1.3-3,3-3l0,0c1.7,0,3,1.3,3,3l0,0
			C574.3,349.3,573,350.7,571.3,350.7z"/>
		<path class="st2" d="M571.3,340L571.3,340c-1.7,0-3-1.3-3-3l0,0c0-1.7,1.3-3,3-3l0,0c1.7,0,3,1.3,3,3l0,0
			C574.3,338.7,573,340,571.3,340z"/>
	</g>
	<g>
		<rect x="558" y="356.4" class="st1" width="6" height="6"/>
		<rect x="558" y="367" class="st1" width="6" height="6"/>
		<path class="st1" d="M571.3,373L571.3,373c-1.7,0-3-1.3-3-3l0,0c0-1.7,1.3-3,3-3l0,0c1.7,0,3,1.3,3,3l0,0
			C574.3,371.7,573,373,571.3,373z"/>
		<path class="st1" d="M571.3,362.4L571.3,362.4c-1.7,0-3-1.3-3-3l0,0c0-1.7,1.3-3,3-3l0,0c1.7,0,3,1.3,3,3l0,0
			C574.3,361.1,573,362.4,571.3,362.4z"/>
	</g>
	<g>
		<rect x="516.6" y="322.8" class="st3" width="6" height="6"/>
		<rect x="516.6" y="333.5" class="st3" width="6" height="6"/>
		<rect x="527" y="333.5" class="st3" width="6" height="6"/>
		<rect x="527" y="322.8" class="st3" width="6" height="6"/>
	</g>
	<g>
		<rect x="516.6" y="345.2" class="st3" width="6" height="6"/>
		<rect x="578.6" y="268" class="st3" width="6" height="6"/>
		<rect x="589" y="268" class="st3" width="6" height="6"/>
		<rect x="527" y="345.2" class="st3" width="6" height="6"/>
	</g>
	<g>
		<rect x="578.6" y="268" class="st3" width="6" height="6"/>
		<rect x="578.6" y="278.7" class="st3" width="6" height="6"/>
		<rect x="589" y="278.7" class="st3" width="6" height="6"/>
		<rect x="589" y="268" class="st3" width="6" height="6"/>
	</g>
	<g>
		<path class="st1" d="M581.8,296.4h-0.2c-1.6,0-2.9-1.3-2.9-2.9v-0.2c0-1.6,1.3-2.9,2.9-2.9h0.2c1.6,0,2.9,1.3,2.9,2.9v0.2
			C584.6,295.1,583.3,296.4,581.8,296.4z"/>
		<path class="st1" d="M581.8,307h-0.2c-1.6,0-2.9-1.3-2.9-2.9v-0.2c0-1.6,1.3-2.9,2.9-2.9h0.2c1.6,0,2.9,1.3,2.9,2.9v0.2
			C584.6,305.7,583.3,307,581.8,307z"/>
		<path class="st1" d="M592.1,307h-0.2c-1.6,0-2.9-1.3-2.9-2.9v-0.2c0-1.6,1.3-2.9,2.9-2.9h0.2c1.6,0,2.9,1.3,2.9,2.9v0.2
			C595,305.7,593.7,307,592.1,307z"/>
		<path class="st1" d="M592.1,296.4h-0.2c-1.6,0-2.9-1.3-2.9-2.9v-0.2c0-1.6,1.3-2.9,2.9-2.9h0.2c1.6,0,2.9,1.3,2.9,2.9v0.2
			C595,295.1,593.7,296.4,592.1,296.4z"/>
	</g>
	<g>
		<path class="st1" d="M581.8,307h-0.2c-1.6,0-2.9-1.3-2.9-2.9v-0.2c0-1.6,1.3-2.9,2.9-2.9h0.2c1.6,0,2.9,1.3,2.9,2.9v0.2
			C584.6,305.7,583.3,307,581.8,307z"/>
		<rect x="578.6" y="311.7" class="st1" width="6" height="6"/>
		<rect x="589" y="311.7" class="st1" width="6" height="6"/>
		<path class="st1" d="M592.1,307h-0.2c-1.6,0-2.9-1.3-2.9-2.9v-0.2c0-1.6,1.3-2.9,2.9-2.9h0.2c1.6,0,2.9,1.3,2.9,2.9v0.2
			C595,305.7,593.7,307,592.1,307z"/>
	</g>
	<g>
		<path class="st2" d="M581.6,329.4L581.6,329.4c-1.7,0-3-1.3-3-3l0,0c0-1.7,1.3-3,3-3l0,0c1.7,0,3,1.3,3,3l0,0
			C584.6,328.1,583.3,329.4,581.6,329.4z"/>
		<path class="st2" d="M581.6,340L581.6,340c-1.7,0-3-1.3-3-3l0,0c0-1.7,1.3-3,3-3l0,0c1.7,0,3,1.3,3,3l0,0
			C584.6,338.7,583.3,340,581.6,340z"/>
		<path class="st2" d="M592,340L592,340c-1.7,0-3-1.3-3-3l0,0c0-1.7,1.3-3,3-3l0,0c1.7,0,3,1.3,3,3l0,0C595,338.7,593.7,340,592,340
			z"/>
		<path class="st2" d="M592,329.4L592,329.4c-1.7,0-3-1.3-3-3l0,0c0-1.7,1.3-3,3-3l0,0c1.7,0,3,1.3,3,3l0,0
			C595,328.1,593.7,329.4,592,329.4z"/>
	</g>
	<g>
		<path class="st2" d="M581.6,340L581.6,340c-1.7,0-3-1.3-3-3l0,0c0-1.7,1.3-3,3-3l0,0c1.7,0,3,1.3,3,3l0,0
			C584.6,338.7,583.3,340,581.6,340z"/>
		<path class="st1" d="M581.6,350.7L581.6,350.7c-1.7,0-3-1.3-3-3l0,0c0-1.7,1.3-3,3-3l0,0c1.7,0,3,1.3,3,3l0,0
			C584.6,349.3,583.3,350.7,581.6,350.7z"/>
		<path class="st1" d="M592,350.7L592,350.7c-1.7,0-3-1.3-3-3l0,0c0-1.7,1.3-3,3-3l0,0c1.7,0,3,1.3,3,3l0,0
			C595,349.3,593.7,350.7,592,350.7z"/>
		<path class="st2" d="M592,340L592,340c-1.7,0-3-1.3-3-3l0,0c0-1.7,1.3-3,3-3l0,0c1.7,0,3,1.3,3,3l0,0C595,338.7,593.7,340,592,340
			z"/>
	</g>
	<g>
		<path class="st1" d="M581.6,362.4L581.6,362.4c-1.7,0-3-1.3-3-3l0,0c0-1.7,1.3-3,3-3l0,0c1.7,0,3,1.3,3,3l0,0
			C584.6,361.1,583.3,362.4,581.6,362.4z"/>
		<path class="st1" d="M581.6,373L581.6,373c-1.7,0-3-1.3-3-3l0,0c0-1.7,1.3-3,3-3l0,0c1.7,0,3,1.3,3,3l0,0
			C584.6,371.7,583.3,373,581.6,373z"/>
		<path class="st1" d="M592,373L592,373c-1.7,0-3-1.3-3-3l0,0c0-1.7,1.3-3,3-3l0,0c1.7,0,3,1.3,3,3l0,0C595,371.7,593.7,373,592,373
			z"/>
		<path class="st1" d="M592,362.4L592,362.4c-1.7,0-3-1.3-3-3l0,0c0-1.7,1.3-3,3-3l0,0c1.7,0,3,1.3,3,3l0,0
			C595,361.1,593.7,362.4,592,362.4z"/>
	</g>
</g>
<g class="st4">
	<g>
		<rect x="503.1" y="512.5" class="st5" width="6" height="6"/>
		<rect x="503.1" y="523.1" class="st5" width="6" height="6"/>
		<rect x="513.5" y="523.1" class="st5" width="6" height="6"/>
		<rect x="513.5" y="512.5" class="st5" width="6" height="6"/>
	</g>
	<g>
		<path class="st5" d="M506.2,540.8H506c-1.6,0-2.9-1.3-2.9-2.9v-0.2c0-1.6,1.3-2.9,2.9-2.9h0.2c1.6,0,2.9,1.3,2.9,2.9v0.2
			C509.1,539.5,507.8,540.8,506.2,540.8z"/>
		<path class="st5" d="M506.2,551.5H506c-1.6,0-2.9-1.3-2.9-2.9v-0.2c0-1.6,1.3-2.9,2.9-2.9h0.2c1.6,0,2.9,1.3,2.9,2.9v0.2
			C509.1,550.2,507.8,551.5,506.2,551.5z"/>
		<path class="st5" d="M516.6,551.5h-0.2c-1.6,0-2.9-1.3-2.9-2.9v-0.2c0-1.6,1.3-2.9,2.9-2.9h0.2c1.6,0,2.9,1.3,2.9,2.9v0.2
			C519.5,550.2,518.2,551.5,516.6,551.5z"/>
		<path class="st5" d="M516.6,540.8h-0.2c-1.6,0-2.9-1.3-2.9-2.9v-0.2c0-1.6,1.3-2.9,2.9-2.9h0.2c1.6,0,2.9,1.3,2.9,2.9v0.2
			C519.5,539.5,518.2,540.8,516.6,540.8z"/>
	</g>
	<g>
		<path class="st5" d="M506.2,551.5H506c-1.6,0-2.9-1.3-2.9-2.9v-0.2c0-1.6,1.3-2.9,2.9-2.9h0.2c1.6,0,2.9,1.3,2.9,2.9v0.2
			C509.1,550.2,507.8,551.5,506.2,551.5z"/>
		<path class="st5" d="M509.1,562.1h-6V559c0-1.6,1.3-2.9,2.9-2.9h0.2c1.6,0,2.9,1.3,2.9,2.9V562.1z"/>
		<path class="st5" d="M519.5,562.1h-6V559c0-1.6,1.3-2.9,2.9-2.9h0.2c1.6,0,2.9,1.3,2.9,2.9V562.1z"/>
		<path class="st5" d="M516.6,551.5h-0.2c-1.6,0-2.9-1.3-2.9-2.9v-0.2c0-1.6,1.3-2.9,2.9-2.9h0.2c1.6,0,2.9,1.3,2.9,2.9v0.2
			C519.5,550.2,518.2,551.5,516.6,551.5z"/>
	</g>
	<g>
		<rect x="503.1" y="567.8" class="st6" width="6" height="6"/>
		<rect x="503.1" y="578.5" class="st6" width="6" height="6"/>
		<rect x="513.5" y="578.5" class="st6" width="6" height="6"/>
		<rect x="513.5" y="567.8" class="st6" width="6" height="6"/>
	</g>
	<g>
		<rect x="503.1" y="578.5" class="st6" width="6" height="6"/>
		<rect x="503.1" y="589.1" class="st5" width="6" height="6"/>
		<rect x="513.5" y="589.1" class="st5" width="6" height="6"/>
		<rect x="513.5" y="578.5" class="st6" width="6" height="6"/>
	</g>
	<g>
		<rect x="503.1" y="600.8" class="st7" width="6" height="6"/>
		<rect x="503.1" y="611.5" class="st7" width="6" height="6"/>
		<rect x="513.5" y="611.5" class="st7" width="6" height="6"/>
		<rect x="513.5" y="600.8" class="st7" width="6" height="6"/>
	</g>
	<g>
		<rect x="503.1" y="611.5" class="st7" width="6" height="6"/>
		<path class="st5" d="M506.6,628.1h-1c-1.4,0-2.5-1.1-2.5-2.5v-1c0-1.4,1.1-2.5,2.5-2.5h1c1.4,0,2.5,1.1,2.5,2.5v1
			C509.1,627,508,628.1,506.6,628.1z"/>
		<path class="st5" d="M517,628.1h-1c-1.4,0-2.5-1.1-2.5-2.5v-1c0-1.4,1.1-2.5,2.5-2.5h1c1.4,0,2.5,1.1,2.5,2.5v1
			C519.5,627,518.4,628.1,517,628.1z"/>
		<rect x="513.5" y="611.5" class="st7" width="6" height="6"/>
	</g>
	<g>
		<path class="st5" d="M506.6,639.8h-1c-1.4,0-2.5-1.1-2.5-2.5v-1c0-1.4,1.1-2.5,2.5-2.5h1c1.4,0,2.5,1.1,2.5,2.5v1
			C509.1,638.7,508,639.8,506.6,639.8z"/>
		<path class="st5" d="M506.6,650.5h-1c-1.4,0-2.5-1.1-2.5-2.5v-1c0-1.4,1.1-2.5,2.5-2.5h1c1.4,0,2.5,1.1,2.5,2.5v1
			C509.1,649.4,508,650.5,506.6,650.5z"/>
		<path class="st5" d="M517,650.5h-1c-1.4,0-2.5-1.1-2.5-2.5v-1c0-1.4,1.1-2.5,2.5-2.5h1c1.4,0,2.5,1.1,2.5,2.5v1
			C519.5,649.4,518.4,650.5,517,650.5z"/>
		<path class="st5" d="M517,639.8h-1c-1.4,0-2.5-1.1-2.5-2.5v-1c0-1.4,1.1-2.5,2.5-2.5h1c1.4,0,2.5,1.1,2.5,2.5v1
			C519.5,638.7,518.4,639.8,517,639.8z"/>
	</g>
	<g>
		<rect x="523.8" y="512.5" class="st5" width="6" height="6"/>
		<rect x="523.8" y="523.1" class="st5" width="6" height="6"/>
		<rect x="534.1" y="523.1" class="st8" width="6" height="6"/>
		<rect x="534.1" y="512.5" class="st5" width="6" height="6"/>
	</g>
	<g>
		<path class="st5" d="M526.9,540.8h-0.2c-1.6,0-2.9-1.3-2.9-2.9v-0.2c0-1.6,1.3-2.9,2.9-2.9h0.2c1.6,0,2.9,1.3,2.9,2.9v0.2
			C529.8,539.5,528.5,540.8,526.9,540.8z"/>
		<path class="st5" d="M526.9,551.5h-0.2c-1.6,0-2.9-1.3-2.9-2.9v-0.2c0-1.6,1.3-2.9,2.9-2.9h0.2c1.6,0,2.9,1.3,2.9,2.9v0.2
			C529.8,550.2,528.5,551.5,526.9,551.5z"/>
		<path class="st5" d="M537.2,551.5H537c-1.6,0-2.9-1.3-2.9-2.9v-0.2c0-1.6,1.3-2.9,2.9-2.9h0.2c1.6,0,2.9,1.3,2.9,2.9v0.2
			C540.1,550.2,538.8,551.5,537.2,551.5z"/>
		<path class="st8" d="M537.2,540.8H537c-1.6,0-2.9-1.3-2.9-2.9v-0.2c0-1.6,1.3-2.9,2.9-2.9h0.2c1.6,0,2.9,1.3,2.9,2.9v0.2
			C540.1,539.5,538.8,540.8,537.2,540.8z"/>
	</g>
	<g>
		<path class="st5" d="M526.9,551.5h-0.2c-1.6,0-2.9-1.3-2.9-2.9v-0.2c0-1.6,1.3-2.9,2.9-2.9h0.2c1.6,0,2.9,1.3,2.9,2.9v0.2
			C529.8,550.2,528.5,551.5,526.9,551.5z"/>
		<path class="st5" d="M529.8,562.1h-6V559c0-1.6,1.3-2.9,2.9-2.9h0.2c1.6,0,2.9,1.3,2.9,2.9V562.1z"/>
		<path class="st5" d="M540.1,562.1h-6V559c0-1.6,1.3-2.9,2.9-2.9h0.2c1.6,0,2.9,1.3,2.9,2.9V562.1z"/>
		<path class="st5" d="M537.2,551.5H537c-1.6,0-2.9-1.3-2.9-2.9v-0.2c0-1.6,1.3-2.9,2.9-2.9h0.2c1.6,0,2.9,1.3,2.9,2.9v0.2
			C540.1,550.2,538.8,551.5,537.2,551.5z"/>
	</g>
	<g>
		<rect x="523.8" y="567.8" class="st6" width="6" height="6"/>
		<rect x="523.8" y="578.5" class="st6" width="6" height="6"/>
		<path class="st6" d="M537.3,584.5h-3.1v-6h3.1c1.6,0,2.9,1.3,2.9,2.9v0.2C540.1,583.2,538.9,584.5,537.3,584.5z"/>
		<path class="st6" d="M537.3,573.8h-3.1v-6h3.1c1.6,0,2.9,1.3,2.9,2.9v0.2C540.1,572.6,538.9,573.8,537.3,573.8z"/>
	</g>
	<g>
		<rect x="523.8" y="578.5" class="st6" width="6" height="6"/>
		<rect x="523.8" y="589.1" class="st5" width="6" height="6"/>
		<rect x="534.1" y="589.1" class="st5" width="6" height="6"/>
		<path class="st6" d="M537.3,584.5h-3.1v-6h3.1c1.6,0,2.9,1.3,2.9,2.9v0.2C540.1,583.2,538.9,584.5,537.3,584.5z"/>
	</g>
	<g>
		<rect x="523.8" y="600.8" class="st7" width="6" height="6"/>
		<rect x="523.8" y="611.5" class="st7" width="6" height="6"/>
		<rect x="534.1" y="611.5" class="st7" width="6" height="6"/>
		<rect x="534.1" y="600.8" class="st7" width="6" height="6"/>
	</g>
	<g>
		<rect x="523.8" y="611.5" class="st7" width="6" height="6"/>
		<path class="st5" d="M527.3,628.1h-1c-1.4,0-2.5-1.1-2.5-2.5v-1c0-1.4,1.1-2.5,2.5-2.5h1c1.4,0,2.5,1.1,2.5,2.5v1
			C529.8,627,528.7,628.1,527.3,628.1z"/>
		<rect x="534.1" y="622.1" class="st5" width="6" height="6"/>
		<rect x="534.1" y="611.5" class="st7" width="6" height="6"/>
	</g>
	<g>
		<path class="st5" d="M527.3,639.8h-1c-1.4,0-2.5-1.1-2.5-2.5v-1c0-1.4,1.1-2.5,2.5-2.5h1c1.4,0,2.5,1.1,2.5,2.5v1
			C529.8,638.7,528.7,639.8,527.3,639.8z"/>
		<path class="st5" d="M527.3,650.5h-1c-1.4,0-2.5-1.1-2.5-2.5v-1c0-1.4,1.1-2.5,2.5-2.5h1c1.4,0,2.5,1.1,2.5,2.5v1
			C529.8,649.4,528.7,650.5,527.3,650.5z"/>
		<rect x="534.1" y="644.5" class="st5" width="6" height="6"/>
		<rect x="534.1" y="633.8" class="st5" width="6" height="6"/>
	</g>
</g>
<g class="st4">
	<g>
		<rect x="1393" y="581.5" class="st5" width="6" height="6"/>
		<rect x="1393" y="592.1" class="st8" width="6" height="6"/>
		<rect x="1403.3" y="592.1" class="st8" width="6" height="6"/>
		<rect x="1403.3" y="581.5" class="st5" width="6" height="6"/>
	</g>
	<g>
		<path class="st8" d="M1396.1,609.9h-0.2c-1.6,0-2.9-1.3-2.9-2.9v-0.2c0-1.6,1.3-2.9,2.9-2.9h0.2c1.6,0,2.9,1.3,2.9,2.9v0.2
			C1399,608.6,1397.7,609.9,1396.1,609.9z"/>
		<path class="st5" d="M1396.1,620.5h-0.2c-1.6,0-2.9-1.3-2.9-2.9v-0.2c0-1.6,1.3-2.9,2.9-2.9h0.2c1.6,0,2.9,1.3,2.9,2.9v0.2
			C1399,619.2,1397.7,620.5,1396.1,620.5z"/>
		<rect x="1403.3" y="614.5" class="st5" width="6" height="6"/>
		<rect x="1403.3" y="603.9" class="st8" width="6" height="6"/>
	</g>
	<g>
		<path class="st5" d="M1396.1,620.5h-0.2c-1.6,0-2.9-1.3-2.9-2.9v-0.2c0-1.6,1.3-2.9,2.9-2.9h0.2c1.6,0,2.9,1.3,2.9,2.9v0.2
			C1399,619.2,1397.7,620.5,1396.1,620.5z"/>
		<path class="st5" d="M1399,631.1h-6V628c0-1.6,1.3-2.9,2.9-2.9h0.2c1.6,0,2.9,1.3,2.9,2.9V631.1z"/>
		<rect x="1403.3" y="625.1" class="st5" width="6" height="6"/>
		<rect x="1403.3" y="614.5" class="st5" width="6" height="6"/>
	</g>
	<g>
		<path class="st6" d="M1396.1,642.9h-3.1v-6h3.1c1.6,0,2.9,1.3,2.9,2.9v0.2C1399,641.6,1397.7,642.9,1396.1,642.9z"/>
		<path class="st6" d="M1396.1,653.5h-3.1v-6h3.1c1.6,0,2.9,1.3,2.9,2.9v0.2C1399,652.2,1397.7,653.5,1396.1,653.5z"/>
		<path class="st5" d="M1406.5,653.5h-0.2c-1.6,0-2.9-1.3-2.9-2.9v-0.2c0-1.6,1.3-2.9,2.9-2.9h0.2c1.6,0,2.9,1.3,2.9,2.9v0.2
			C1409.3,652.2,1408.1,653.5,1406.5,653.5z"/>
		<path class="st5" d="M1406.5,642.9h-0.2c-1.6,0-2.9-1.3-2.9-2.9v-0.2c0-1.6,1.3-2.9,2.9-2.9h0.2c1.6,0,2.9,1.3,2.9,2.9v0.2
			C1409.3,641.6,1408.1,642.9,1406.5,642.9z"/>
	</g>
	<g>
		<path class="st6" d="M1396.1,653.5h-3.1v-6h3.1c1.6,0,2.9,1.3,2.9,2.9v0.2C1399,652.2,1397.7,653.5,1396.1,653.5z"/>
		<rect x="1393" y="658.1" class="st5" width="6" height="6"/>
		<rect x="1403.3" y="658.1" class="st5" width="6" height="6"/>
		<path class="st5" d="M1406.5,653.5h-0.2c-1.6,0-2.9-1.3-2.9-2.9v-0.2c0-1.6,1.3-2.9,2.9-2.9h0.2c1.6,0,2.9,1.3,2.9,2.9v0.2
			C1409.3,652.2,1408.1,653.5,1406.5,653.5z"/>
	</g>
	<rect x="1312.1" y="624.8" class="st5" width="6" height="6"/>
	<rect x="1322.4" y="624.8" class="st5" width="6" height="6"/>
	<g>
		<rect x="1312.1" y="624.8" class="st5" width="6" height="6"/>
		<rect x="1312.1" y="635.4" class="st5" width="6" height="6"/>
		<rect x="1322.4" y="635.4" class="st5" width="6" height="6"/>
		<rect x="1322.4" y="624.8" class="st5" width="6" height="6"/>
	</g>
	<rect x="1332.7" y="624.8" class="st5" width="6" height="6"/>
	<path class="st5" d="M1346.2,630.8h-3.1v-6h3.1c1.6,0,2.9,1.3,2.9,2.9v0.2C1349.1,629.5,1347.8,630.8,1346.2,630.8z"/>
	<g>
		<rect x="1332.7" y="624.8" class="st5" width="6" height="6"/>
		<rect x="1332.7" y="635.4" class="st5" width="6" height="6"/>
		<rect x="1343.1" y="635.4" class="st6" width="6" height="6"/>
		<path class="st5" d="M1346.2,630.8h-3.1v-6h3.1c1.6,0,2.9,1.3,2.9,2.9v0.2C1349.1,629.5,1347.8,630.8,1346.2,630.8z"/>
	</g>
	<path class="st5" d="M1346.2,630.8h-3.1v-6h3.1c1.6,0,2.9,1.3,2.9,2.9v0.2C1349,629.5,1347.7,630.8,1346.2,630.8z"/>
	<path class="st5" d="M1356.5,630.8h-0.2c-1.6,0-2.9-1.3-2.9-2.9v-0.2c0-1.6,1.3-2.9,2.9-2.9h0.2c1.6,0,2.9,1.3,2.9,2.9v0.2
		C1359.4,629.5,1358.1,630.8,1356.5,630.8z"/>
	<g>
		<path class="st5" d="M1346.2,630.8h-3.1v-6h3.1c1.6,0,2.9,1.3,2.9,2.9v0.2C1349,629.5,1347.7,630.8,1346.2,630.8z"/>
		<rect x="1343" y="635.4" class="st6" width="6" height="6"/>
		<rect x="1353.4" y="635.4" class="st6" width="6" height="6"/>
		<path class="st5" d="M1356.5,630.8h-0.2c-1.6,0-2.9-1.3-2.9-2.9v-0.2c0-1.6,1.3-2.9,2.9-2.9h0.2c1.6,0,2.9,1.3,2.9,2.9v0.2
			C1359.4,629.5,1358.1,630.8,1356.5,630.8z"/>
	</g>
	<g>
		<rect x="1393" y="669.9" class="st7" width="6" height="6"/>
		<rect x="1393" y="680.5" class="st7" width="6" height="6"/>
		<path class="st5" d="M1406.3,686.5L1406.3,686.5c-1.7,0-3-1.3-3-3l0,0c0-1.7,1.3-3,3-3l0,0c1.7,0,3,1.3,3,3l0,0
			C1409.3,685.2,1408,686.5,1406.3,686.5z"/>
		<path class="st5" d="M1406.3,675.9L1406.3,675.9c-1.7,0-3-1.3-3-3l0,0c0-1.7,1.3-3,3-3l0,0c1.7,0,3,1.3,3,3l0,0
			C1409.3,674.5,1408,675.9,1406.3,675.9z"/>
	</g>
	<g>
		<rect x="1393" y="680.5" class="st7" width="6" height="6"/>
		<rect x="1393" y="691.1" class="st5" width="6" height="6"/>
		<path class="st5" d="M1406.3,697.1L1406.3,697.1c-1.7,0-3-1.3-3-3l0,0c0-1.7,1.3-3,3-3l0,0c1.7,0,3,1.3,3,3l0,0
			C1409.3,695.8,1408,697.1,1406.3,697.1z"/>
		<path class="st5" d="M1406.3,686.5L1406.3,686.5c-1.7,0-3-1.3-3-3l0,0c0-1.7,1.3-3,3-3l0,0c1.7,0,3,1.3,3,3l0,0
			C1409.3,685.2,1408,686.5,1406.3,686.5z"/>
	</g>
	<g>
		<rect x="1393" y="702.9" class="st5" width="6" height="6"/>
		<rect x="1393" y="713.5" class="st5" width="6" height="6"/>
		<path class="st5" d="M1406.3,719.5L1406.3,719.5c-1.7,0-3-1.3-3-3l0,0c0-1.7,1.3-3,3-3l0,0c1.7,0,3,1.3,3,3l0,0
			C1409.3,718.2,1408,719.5,1406.3,719.5z"/>
		<path class="st5" d="M1406.3,708.9L1406.3,708.9c-1.7,0-3-1.3-3-3l0,0c0-1.7,1.3-3,3-3l0,0c1.7,0,3,1.3,3,3l0,0
			C1409.3,707.5,1408,708.9,1406.3,708.9z"/>
	</g>
	<g>
		<rect x="1413.6" y="581.5" class="st5" width="6" height="6"/>
		<rect x="1413.6" y="592.1" class="st8" width="6" height="6"/>
		<rect x="1424" y="592.1" class="st8" width="6" height="6"/>
		<rect x="1424" y="581.5" class="st5" width="6" height="6"/>
	</g>
	<rect x="1436.3" y="592.1" class="st8" width="6" height="6"/>
	<rect x="1436.3" y="581.5" class="st5" width="6" height="6"/>
	<g>
		<rect x="1446.6" y="581.5" class="st5" width="6" height="6"/>
		<rect x="1446.6" y="592.1" class="st8" width="6" height="6"/>
		<rect x="1457" y="592.1" class="st8" width="6" height="6"/>
		<rect x="1457" y="581.5" class="st5" width="6" height="6"/>
	</g>
	<g>
		<rect x="1434.1" y="603.8" class="st8" width="6" height="6"/>
		<rect x="1434.1" y="614.5" class="st5" width="6" height="6"/>
		<rect x="1444.5" y="614.5" class="st5" width="6" height="6"/>
		<rect x="1444.5" y="603.8" class="st8" width="6" height="6"/>
	</g>
	<rect x="1429" y="572.8" class="st5" width="6" height="6"/>
	<rect x="1429" y="562.1" class="st5" width="6" height="6"/>
	<g>
		<rect x="1439.3" y="562.1" class="st5" width="6" height="6"/>
		<rect x="1439.3" y="572.8" class="st9" width="6" height="6"/>
		<rect x="1449.7" y="572.8" class="st9" width="6" height="6"/>
		<rect x="1449.7" y="562.1" class="st5" width="6" height="6"/>
	</g>
	<g>
		<rect x="1413.6" y="603.9" class="st8" width="6" height="6"/>
		<rect x="1413.6" y="614.5" class="st5" width="6" height="6"/>
		<rect x="1424" y="614.5" class="st5" width="6" height="6"/>
		<rect x="1424" y="603.9" class="st8" width="6" height="6"/>
	</g>
	<g>
		<rect x="1413.6" y="614.5" class="st5" width="6" height="6"/>
		<rect x="1413.6" y="625.1" class="st5" width="6" height="6"/>
		<rect x="1424" y="625.1" class="st5" width="6" height="6"/>
		<rect x="1424" y="614.5" class="st5" width="6" height="6"/>
		<g>
			<rect x="1321.7" y="561.4" class="st5" width="6" height="6"/>
			<rect x="1321.7" y="572" class="st6" width="6" height="6"/>
			<rect x="1332.1" y="572" class="st6" width="6" height="6"/>
			<rect x="1332.1" y="561.4" class="st5" width="6" height="6"/>
		</g>
		<rect x="1344.5" y="572" class="st6" width="6" height="6"/>
		<rect x="1344.5" y="561.4" class="st5" width="6" height="6"/>
		<g>
			<rect x="1354.7" y="561.4" class="st5" width="6" height="6"/>
			<rect x="1354.7" y="572" class="st5" width="6" height="6"/>
			<rect x="1365.1" y="572" class="st5" width="6" height="6"/>
			<rect x="1365.1" y="561.4" class="st5" width="6" height="6"/>
		</g>
		<g>
			<rect x="1342.2" y="583.8" class="st5" width="6" height="6"/>
			<rect x="1342.2" y="594.4" class="st5" width="6" height="6"/>
			<rect x="1352.6" y="594.4" class="st5" width="6" height="6"/>
			<rect x="1352.6" y="583.8" class="st5" width="6" height="6"/>
		</g>
		<rect x="1337.1" y="552.7" class="st5" width="6" height="6"/>
		<rect x="1337.1" y="542" class="st5" width="6" height="6"/>
		<g>
			<rect x="1347.4" y="542" class="st5" width="6" height="6"/>
			<rect x="1347.4" y="552.7" class="st5" width="6" height="6"/>
			<rect x="1357.8" y="552.7" class="st5" width="6" height="6"/>
			<rect x="1357.8" y="542" class="st5" width="6" height="6"/>
		</g>
		<g>
			<rect x="1321.7" y="583.8" class="st5" width="6" height="6"/>
			<rect x="1321.7" y="594.4" class="st5" width="6" height="6"/>
			<rect x="1332.1" y="594.4" class="st5" width="6" height="6"/>
			<rect x="1332.1" y="583.8" class="st5" width="6" height="6"/>
		</g>
		<rect x="1321.7" y="594.4" class="st5" width="6" height="6"/>
		<rect x="1332.1" y="594.4" class="st5" width="6" height="6"/>
		<g>
			<rect x="1432.7" y="680.8" class="st5" width="6" height="6"/>
			<rect x="1432.7" y="691.4" class="st10" width="6" height="6"/>
			<rect x="1443.1" y="691.4" class="st10" width="6" height="6"/>
			<rect x="1443.1" y="680.8" class="st5" width="6" height="6"/>
		</g>
		<rect x="1455.5" y="691.4" class="st10" width="6" height="6"/>
		<rect x="1455.5" y="680.8" class="st5" width="6" height="6"/>
		<g>
			<rect x="1465.7" y="680.8" class="st5" width="6" height="6"/>
			<rect x="1465.7" y="691.4" class="st10" width="6" height="6"/>
			<rect x="1476.1" y="691.4" class="st10" width="6" height="6"/>
			<rect x="1476.1" y="680.8" class="st5" width="6" height="6"/>
		</g>
		<g>
			<rect x="1453.2" y="703.1" class="st5" width="6" height="6"/>
			<rect x="1453.2" y="713.7" class="st5" width="6" height="6"/>
			<rect x="1463.6" y="713.7" class="st5" width="6" height="6"/>
			<rect x="1463.6" y="703.1" class="st5" width="6" height="6"/>
		</g>
		<rect x="1448.1" y="672" class="st5" width="6" height="6"/>
		<rect x="1448.1" y="661.4" class="st5" width="6" height="6"/>
		<g>
			<rect x="1458.4" y="661.4" class="st5" width="6" height="6"/>
			<rect x="1458.4" y="672" class="st5" width="6" height="6"/>
			<rect x="1468.8" y="672" class="st5" width="6" height="6"/>
			<rect x="1468.8" y="661.4" class="st5" width="6" height="6"/>
		</g>
		<g>
			<rect x="1432.7" y="703.1" class="st5" width="6" height="6"/>
			<rect x="1432.7" y="713.8" class="st5" width="6" height="6"/>
			<rect x="1443.1" y="713.8" class="st5" width="6" height="6"/>
			<rect x="1443.1" y="703.1" class="st5" width="6" height="6"/>
		</g>
		<rect x="1432.7" y="713.8" class="st5" width="6" height="6"/>
		<rect x="1443.1" y="713.8" class="st5" width="6" height="6"/>
	</g>
	<g>
		<path class="st5" d="M1416.8,642.9h-0.2c-1.6,0-2.9-1.3-2.9-2.9v-0.2c0-1.6,1.3-2.9,2.9-2.9h0.2c1.6,0,2.9,1.3,2.9,2.9v0.2
			C1419.6,641.6,1418.3,642.9,1416.8,642.9z"/>
		<path class="st5" d="M1416.8,653.5h-0.2c-1.6,0-2.9-1.3-2.9-2.9v-0.2c0-1.6,1.3-2.9,2.9-2.9h0.2c1.6,0,2.9,1.3,2.9,2.9v0.2
			C1419.6,652.2,1418.3,653.5,1416.8,653.5z"/>
		<path class="st5" d="M1427.1,653.5h-0.2c-1.6,0-2.9-1.3-2.9-2.9v-0.2c0-1.6,1.3-2.9,2.9-2.9h0.2c1.6,0,2.9,1.3,2.9,2.9v0.2
			C1430,652.2,1428.7,653.5,1427.1,653.5z"/>
		<path class="st5" d="M1427.1,642.9h-0.2c-1.6,0-2.9-1.3-2.9-2.9v-0.2c0-1.6,1.3-2.9,2.9-2.9h0.2c1.6,0,2.9,1.3,2.9,2.9v0.2
			C1430,641.6,1428.7,642.9,1427.1,642.9z"/>
	</g>
	<g>
		<path class="st5" d="M1416.8,653.5h-0.2c-1.6,0-2.9-1.3-2.9-2.9v-0.2c0-1.6,1.3-2.9,2.9-2.9h0.2c1.6,0,2.9,1.3,2.9,2.9v0.2
			C1419.6,652.2,1418.3,653.5,1416.8,653.5z"/>
		<rect x="1413.6" y="658.1" class="st5" width="6" height="6"/>
		<rect x="1424" y="658.1" class="st5" width="6" height="6"/>
		<path class="st5" d="M1427.1,653.5h-0.2c-1.6,0-2.9-1.3-2.9-2.9v-0.2c0-1.6,1.3-2.9,2.9-2.9h0.2c1.6,0,2.9,1.3,2.9,2.9v0.2
			C1430,652.2,1428.7,653.5,1427.1,653.5z"/>
	</g>
	<g>
		<path class="st5" d="M1416.6,675.9L1416.6,675.9c-1.7,0-3-1.3-3-3l0,0c0-1.7,1.3-3,3-3l0,0c1.7,0,3,1.3,3,3l0,0
			C1419.6,674.5,1418.3,675.9,1416.6,675.9z"/>
		<path class="st5" d="M1416.6,686.5L1416.6,686.5c-1.7,0-3-1.3-3-3l0,0c0-1.7,1.3-3,3-3l0,0c1.7,0,3,1.3,3,3l0,0
			C1419.6,685.2,1418.3,686.5,1416.6,686.5z"/>
		<path class="st5" d="M1427,686.5L1427,686.5c-1.7,0-3-1.3-3-3l0,0c0-1.7,1.3-3,3-3l0,0c1.7,0,3,1.3,3,3l0,0
			C1430,685.2,1428.7,686.5,1427,686.5z"/>
		<path class="st5" d="M1427,675.9L1427,675.9c-1.7,0-3-1.3-3-3l0,0c0-1.7,1.3-3,3-3l0,0c1.7,0,3,1.3,3,3l0,0
			C1430,674.5,1428.7,675.9,1427,675.9z"/>
	</g>
	<g>
		<path class="st5" d="M1416.6,686.5L1416.6,686.5c-1.7,0-3-1.3-3-3l0,0c0-1.7,1.3-3,3-3l0,0c1.7,0,3,1.3,3,3l0,0
			C1419.6,685.2,1418.3,686.5,1416.6,686.5z"/>
		<path class="st5" d="M1416.6,697.1L1416.6,697.1c-1.7,0-3-1.3-3-3l0,0c0-1.7,1.3-3,3-3l0,0c1.7,0,3,1.3,3,3l0,0
			C1419.6,695.8,1418.3,697.1,1416.6,697.1z"/>
		<path class="st10" d="M1427,697.1L1427,697.1c-1.7,0-3-1.3-3-3l0,0c0-1.7,1.3-3,3-3l0,0c1.7,0,3,1.3,3,3l0,0
			C1430,695.8,1428.7,697.1,1427,697.1z"/>
		<path class="st5" d="M1427,686.5L1427,686.5c-1.7,0-3-1.3-3-3l0,0c0-1.7,1.3-3,3-3l0,0c1.7,0,3,1.3,3,3l0,0
			C1430,685.2,1428.7,686.5,1427,686.5z"/>
	</g>
	<g>
		<path class="st5" d="M1416.6,708.9L1416.6,708.9c-1.7,0-3-1.3-3-3l0,0c0-1.7,1.3-3,3-3l0,0c1.7,0,3,1.3,3,3l0,0
			C1419.6,707.5,1418.3,708.9,1416.6,708.9z"/>
		<path class="st5" d="M1416.6,719.5L1416.6,719.5c-1.7,0-3-1.3-3-3l0,0c0-1.7,1.3-3,3-3l0,0c1.7,0,3,1.3,3,3l0,0
			C1419.6,718.2,1418.3,719.5,1416.6,719.5z"/>
		<path class="st5" d="M1427,719.5L1427,719.5c-1.7,0-3-1.3-3-3l0,0c0-1.7,1.3-3,3-3l0,0c1.7,0,3,1.3,3,3l0,0
			C1430,718.2,1428.7,719.5,1427,719.5z"/>
		<path class="st5" d="M1427,708.9L1427,708.9c-1.7,0-3-1.3-3-3l0,0c0-1.7,1.3-3,3-3l0,0c1.7,0,3,1.3,3,3l0,0
			C1430,707.5,1428.7,708.9,1427,708.9z"/>
	</g>
</g>
<polygon class="st11" points="389,591.8 368.7,570.5 395.5,565.8 "/>
<polygon class="st12" points="429.2,244.5 404.4,260.3 404.9,233.2 "/>
<polygon class="st13" points="1470.5,511.5 1424.5,490.7 1464.1,466 "/>
<circle class="st13" cx="1142.9" cy="215.2" r="11.7"/>
<circle class="st14" cx="614.9" cy="413.2" r="11.7"/>
</svg>
