<?xml version="1.0" encoding="utf-8"?>
<!-- Generator: Adobe Illustrator 22.0.1, SVG Export Plug-In . SVG Version: 6.00 Build 0)  -->
<svg version="1.1" id="Lager_1" xmlns="http://www.w3.org/2000/svg" xmlns:xlink="http://www.w3.org/1999/xlink" x="0px" y="0px"
	 viewBox="0 0 1000 1000" style="enable-background:new 0 0 1000 1000;" xml:space="preserve">
<style type="text/css">
	.st0{opacity:0.4;}
	.st1{fill:#E8E8E8;}
	.st2{fill:#A0A0A0;}
	.st3{fill:#999999;}
	.st4{fill:#B3B3B3;}
	.st5{fill:#FFD369;}
	.st6{fill:#FFFFFF;stroke:#FFFFFF;stroke-miterlimit:10;}
	.st7{opacity:0.8;fill:#FFD369;}
	.st8{opacity:0.5;fill:#FFD369;}
</style>
<g class="st0">
	<path class="st1" d="M816.7,945.7l-630.1-1c-27.3-0.1-49.5-22.2-49.1-49.6l10-823.7c0.4-27.4,22.7-50,50-49.8l630.1,1
		c27.3,0.1,49.5,22.2,49.1,49.6l-10,823.7C866.3,923.3,844,945.8,816.7,945.7z"/>
	<path class="st2" d="M876.9,38.5l-4,335.1l-729.2-0.8l4.1-329.7c0.2-11.4,9.8-21,21.2-21l692.4,1.2C869.9,23,876.6,29.8,876.9,38.5
		z"/>
	<path class="st3" d="M687.8,867L245,866.8c-22.7-0.1-40.7-18.5-39.8-41l0.3-6c0.4-22.8,18.8-41,41.2-40.4l442.7,0.2
		c22.7,0.1,40.7,18.5,39.8,41l-0.3,6C728.5,848.6,710,866.8,687.8,867z"/>
	<path class="st4" d="M760.8,752.1l-515.5-0.6c-22.7-0.1-40.7-18.5-39.8-41l0.3-6c0.4-22.8,18.8-41,41.2-40.4l515.5,0.6
		c22.7,0.1,40.7,18.5,39.8,41l-0.3,6C802,734,783.6,752.2,760.8,752.1z"/>
	<path class="st5" d="M449.2,636.6l-201.8,0.2c-22.7-0.1-40.7-18.5-39.8-41l0.3-6c0.4-22.8,18.8-41,41.2-40.4l201.3-0.5
		c22.7,0.1,40.7,18.5,39.8,41l-0.3,6C490.4,618.5,472,636.7,449.2,636.6z"/>
	<polygon class="st6" points="806.1,520.5 209.7,520.2 209.7,520.2 	"/>
</g>
<circle class="st5" cx="708" cy="224" r="127.3"/>
<rect x="198" y="111" class="st5" width="250" height="34"/>
<rect x="198" y="154" class="st7" width="191" height="34"/>
<rect x="198" y="197" class="st8" width="175" height="34"/>
<rect x="195" y="297" class="st4" width="128" height="34"/>
</svg>
