<?xml version="1.0" encoding="utf-8"?>
<!-- Generator: Adobe Illustrator 22.0.1, SVG Export Plug-In . SVG Version: 6.00 Build 0)  -->
<svg version="1.1"
	 id="svg2" xmlns:cc="http://creativecommons.org/ns#" xmlns:dc="http://purl.org/dc/elements/1.1/" xmlns:rdf="http://www.w3.org/1999/02/22-rdf-syntax-ns#" xmlns:svg="http://www.w3.org/2000/svg"
	 xmlns="http://www.w3.org/2000/svg" xmlns:xlink="http://www.w3.org/1999/xlink" x="0px" y="0px" viewBox="0 0 1124 804.4"
	 style="enable-background:new 0 0 1124 804.4;" xml:space="preserve">
<style type="text/css">
	.st0{fill:#000225;}
</style>
<path id="path2987" class="st0" d="M102.9,554.1c0-0.2,0.5-0.9,1-1.5c1-1.1,0.9-1.2-0.2-2.1c-1.3-1-1.8-4.1-1.1-6.4
	c0.5-1.6,1.4-1.7,2.3-0.3c0.4,0.5,1.1,0.8,1.6,0.6c0.7-0.3,0.9-1.3,0.9-4.8c-0.1-6-0.8-7-4.9-6.6c-3.3,0.3-4.5-0.5-2.8-2
	c1.1-0.9,2.8-4.4,2.4-5.1c-0.2-0.3-1.4-0.8-2.8-1.3c-1.4-0.4-3.1-1-3.9-1.3c-2.9-1.1-5.5-0.1-5.2,2.1c0.2,1.2,2.7,3.3,3.4,2.9
	c0.4-0.2,0.6-0.2,0.4,0.1c-0.2,0.3-0.1,0.9,0.2,1.4c0.3,0.5,0.3,1.1-0.1,1.6c-0.5,0.6-0.5,1.1,0,1.8c0.9,1.5-1,2.5-5.5,2.8
	c-2.8,0.2-3.9,0.1-4.5-0.6c-1.5-1.5-5-3.4-5.5-3.1c-0.3,0.2-0.4,0.9-0.3,1.6c0.2,1-0.3,1.7-2.1,2.9c-1.3,0.9-2.3,2.1-2.4,2.6
	c0,2.3-3.4,4.8-5.1,3.7c-0.6-0.4-0.4-0.9,0.9-2.5c1.5-1.7,1.7-2.5,1.8-5.8c0.1-2.5,0.5-4.1,1.1-4.8c1-1.1,1.4-2.3,1.4-4.1
	c0-0.6,0.2-1,0.4-1c0.2,0,1.3-0.8,2.4-1.8c2.1-2,1.8-2.8-1.2-2.8c-1.1,0-1.5-0.3-1.3-0.8c0.4-1-0.7-1.8-1.2-0.9
	c-0.5,0.7-1.5,0.8-1.5,0.1c0-0.3,0.9-1.1,2.1-1.8c3.4-2,7.8-5.9,7.5-6.7c-0.2-0.4-0.9-1.1-1.7-1.5c-0.8-0.4-1.3-1.1-1.1-1.5
	c0.2-0.5,0-0.7-0.6-0.5c-0.5,0.2-1,0.7-1.2,1.2c-0.4,1.1-4.1,2.6-6.4,2.5c-1,0-2.4,0.2-3.1,0.6c-1.1,0.6-3.8,0.5-4.9-0.2
	c-0.2-0.1-0.2-1.3,0.1-2.6c0.7-2.9,0.4-4.4-0.9-5.9c-1.2-1.4-0.9-2,0.7-1.1c0.6,0.3,1.8,0.6,2.5,0.6c1.4,0,8.4-3.1,8.9-3.9
	c0.4-0.7-0.3-1.6-1.5-2.1c-0.6-0.2-1-1-1-2c0-2.1,1.3-3.9,2.5-3.5c1.1,0.4,2.4-1,2-2.2c-0.2-0.6-1.2-0.9-3-0.9h-2.7l0.2-3.1
	c0.2-2.8,0.3-3.1,1.6-3.3c0.8-0.1,1.8-0.7,2.2-1.3c0.4-0.6,1.5-1.1,2.4-1.1c2.2,0,2.5-0.5,1.2-1.8c-0.6-0.6-1-1.4-0.8-1.7
	c0.2-0.3-0.5-0.9-1.6-1.4c-1.5-0.6-2.2-1.4-2.9-3.3c-1.6-4.2-1.7-5.5-0.8-6.3c0.9-0.7,4.1-0.6,6.3,0.3c1.7,0.7,1.2-1.4-0.8-3.3
	c-1-0.9-2.1-1.7-2.4-1.7c-0.3,0-0.4-0.3-0.2-0.6c0.2-0.3,0-0.6-0.4-0.6c-0.4,0-0.6-0.1-0.4-0.3c0.2-0.2,1.3,0.3,2.5,0.9
	c2.2,1.3,6.4,1.7,7.4,0.7c0.5-0.5-1.5-4.9-2.6-5.5c-2.9-1.7-2.9-1.9-1.3-3.8c1.7-2,1.9-3.1,0.8-4.1c-0.5-0.5-0.5-0.9,0-1.5
	c0.8-1-0.6-2.4-3-3c-1-0.2-1.7-0.9-2-1.8c-0.3-1.1-0.8-1.5-1.8-1.5c-1.9,0-1.5-1.2,0.8-2.4c2.3-1.2,1.8-2-2.1-3.4
	c-4-1.4-5.4-2.7-5.1-4.8c0.1-1.2-0.2-2.1-1-2.8c-1.2-1.1-1.2-1.1,0.5-1.4c1.8-0.4,5.4-0.8,11.7-1.3c3-0.3,4.5-0.1,5.1,0.4
	c0.7,0.6,1.5,0.6,4.2,0c3.7-0.9,4.5-2,2.6-3.4c-1.2-0.9-1.2-1.1-0.4-1.7c1.3-1,1-3.5-0.6-5.5c-0.7-0.9-1.3-2-1.3-2.4
	c0-0.4-0.5-1.1-1.1-1.6c-2.7-1.9-1.1-2.6,2.5-1.1c3.4,1.4,4.8,1.5,5.2,0.1c0.4-1.3-0.1-3.6-0.7-3.6c-0.3,0-0.4-2-0.2-4.5
	c0.1-1.1,1.7-0.3,2,1c0.2,0.8,0.8,1.1,2.1,1.1c1,0,2.2,0.2,2.8,0.4c0.9,0.3,1,0.3,0.3-0.5c-0.6-0.8-0.6-1,0.4-1.3
	c0.7-0.2,1.2-0.6,1.2-1s0.7-1.2,1.6-2c1.1-1,1.4-1.6,0.9-1.8c-0.5-0.2-0.5-0.5,0.1-1.2c0.5-0.5,0.9-1.6,0.9-2.4
	c0.1-2.5,0.2-2.7,1.5-4.2c0.7-0.8,1.5-1.9,1.6-2.4s0.7-0.9,1.1-0.7s0.9-0.1,1.1-0.6c0.2-0.6,1.1-0.9,2.3-0.9c1.7,0,2.1-0.3,2.7-1.7
	c0.4-0.9,1.1-1.9,1.5-2c0.5-0.2,0.8-0.9,0.8-1.6c0-0.7,0.5-1.9,1.2-2.7c0.6-0.8,1-1.7,0.9-1.9c-0.1-0.2,0.4-0.3,1.2-0.2
	c0.8,0.2,1.8-0.1,2.4-0.7c0.5-0.5,1.4-0.9,2-0.9c1.2,0,2.4-2.2,2.4-4.4c0-1.8,1-2.1,3.4-1.1c1.1,0.4,2,0.8,2.1,0.8
	c0.3,0,3.8-3.4,3.8-3.7c0-0.2-0.7-0.2-1.5,0c-1,0.3-1.5,0.1-1.5-0.4c0-0.6-0.1-0.6-0.6,0.1c-0.5,0.7-0.6,0.7-0.9-0.2
	c-0.2-0.6-0.2-1.2-0.1-1.4c0.2-0.2,0.1-0.8-0.2-1.4c-0.4-0.8-0.3-1.1,0.9-1.4c0.8-0.2,1.3-0.6,1.1-0.9c-0.2-0.3,0.2-0.6,0.8-0.6
	c1.3,0,2.3-1.1,1.5-1.7c-0.9-0.6-0.9-1.8,0-1.8c1.4,0,5-3.6,5.6-5.7c0.4-1.1,0.5-2.6,0.3-3.3c-0.3-1,0.1-1.6,1.4-2.6
	c1.1-0.8,1.7-1.8,1.7-2.7c0-1,0.3-1.4,1.1-1.4c0.6,0,1.5-0.5,2.1-1.1c0.6-0.6,1.9-1.3,3-1.5c1.5-0.3,2.1-0.8,2.6-2.1
	c0.3-1,0.9-1.7,1.2-1.7c0.3,0,1-1.1,1.6-2.3c0.9-2.3,1-2.3,3.7-2.3c2.3,0,3.1-0.3,4.6-1.7c1-0.9,3.2-2.1,5-2.7
	c1.8-0.6,3.4-1.3,3.6-1.6s1.1-0.5,2.1-0.5c1.3,0,1.9-0.4,2.4-1.5c0.4-0.8,1-1.5,1.3-1.5c0.4,0,1-0.5,1.4-1.2
	c0.4-0.6,1.1-1.2,1.5-1.2c1,0,1.6-1.9,0.9-3c-0.6-1-0.7-2.4-0.1-2.1c0.2,0.1,1,0,1.8-0.2c1.5-0.6,1.9-3.5,0.4-3.5
	c-1,0-1.2-1.5-0.3-2c0.3-0.2,0.4-0.7,0.2-1.2c-0.2-0.5,0-0.9,0.4-0.9c0.4,0,0.5-0.3,0.3-0.7c-0.2-0.4-0.2-0.5,0.1-0.3
	c0.7,0.4,4.9-3.2,4.9-4.1c0-0.6-2.7-2.4-3.5-2.3c-0.8,0.1-4.7-1.6-4.7-2c0-0.2,0.7-0.4,1.6-0.2c0.9,0.1,1.3,0.1,0.9-0.1
	c-0.4-0.1-0.7-0.6-0.7-1c0-1,1.8-1.7,2.3-0.9c0.2,0.4,1.5,0.8,2.7,1c2.9,0.4,5.3-1.2,4.1-2.6c-0.6-0.7-0.3-0.8,2.2-0.4
	c6.1,1,11.3-0.4,11.4-3.1c0-0.9,0.1-0.8,0.9,0.2c0.5,0.6,0.9,0.9,0.9,0.6c0-0.3,0.4,0,0.8,0.6c0.5,0.6,0.7,1.7,0.5,2.4
	c-0.2,0.9,0,1.5,0.8,1.9c1.3,0.7,5.2,0.7,6.6,0c0.6-0.3,1.4-0.1,2.2,0.4c1.5,1.1,6.3,1.6,6.8,0.8c0.2-0.3,0.1-0.6-0.3-0.6
	c-1.5,0-4.4-2.6-4.2-3.7c0.1-0.6-0.2-1.3-0.7-1.6c-1.2-0.7-1.2-1.5,0.1-2.2c0.7-0.4,2-0.3,3.9,0.2c1.6,0.4,2.5,0.8,2,0.9
	c-0.6,0.1-0.6,0.2-0.2,0.4c0.8,0.3,4.3-1.4,4.3-2.1c0-0.3,0.7-0.4,1.6-0.2c0.9,0.2,2.4,0.4,3.4,0.5c1,0.1,1.9,0.2,2.1,0.2
	c0.2,0,0.5,0.7,0.7,1.5c0.4,1.8,1.7,2.5,4.7,2.7l2.3,0.2l0-2.3c0-1.3-0.2-2.5-0.6-2.7c-0.4-0.3-0.3-0.9,0.1-1.8c0.4-1,0.4-1.6,0-2.4
	c-1.1-1.7,0.2-2.2,4.2-1.3c2,0.4,4,1.1,4.5,1.4c1.4,1.2,8.5-0.6,8.5-2.1c0-0.5-0.8-1.3-1.7-1.9c-1-0.5-1.7-1.2-1.8-1.5
	c0-0.3-0.2-0.3-0.5-0.1c-0.3,0.2-0.7,0-1-0.3c-0.3-0.5,0-0.6,1.1-0.4c0.8,0.2,1.6,0.1,1.7-0.1c0.3-0.7,4.5-1.3,4.5-0.6
	c0,0.9,2.2,2.9,3.1,2.9c0.4,0,0.9,0.5,1.1,1.2c0.2,0.6,0.8,1.2,1.3,1.2c0.7,0,0.9,0.3,0.6,0.9c-0.2,0.5-0.4,1.2-0.4,1.5
	c0,0.3-0.5,0.5-1.2,0.5c-1.8,0-3.2,1.6-2.3,2.6c0.4,0.5,1,0.7,1.4,0.5c0.4-0.2,1.4,0.1,2.3,0.5c1.5,0.8,1.5,0.8,0.4,1.1
	c-1.8,0.5-1.4,2,0.7,3.3c2.3,1.4,3.6,1.5,3.1,0.3c-0.3-0.7,0.1-0.9,1.7-0.9c1.4,0,2-0.3,2-0.8c0-1.5,2.9-3.3,4.6-2.9
	c1.6,0.4,4.7,3.2,4.7,4.2c0,0.4,1.1,0.6,2.8,0.6c1.5,0,6,0,9.9,0c6.2,0.1,13.6-0.8,13.6-1.5c0-0.1-0.5-0.8-1.2-1.4
	c-0.6-0.6-1.2-1.4-1.2-1.8c0-0.9,1.9-0.7,3.4,0.3c1.2,0.8,1.4,0.8,3-1c1-1.1,1.8-2.1,1.8-2.4c0-0.2,0.3-0.4,0.6-0.4s0.5,0.2,0.3,0.5
	c-0.2,0.3,0,0.7,0.3,0.9c0.5,0.3,0.4,0.6-0.1,0.9c-1.4,0.9,1.5,0.6,3.7-0.3c3.1-1.3,3.7-2.3,2-3.5c-1.6-1.1-1.8-3.2-0.3-3.1
	c0.6,0,1.5,0.6,2.1,1.4c0.6,0.7,1.3,1.1,1.5,1s0.9,0.1,1.6,0.6l1.3,0.9l-1.6,0.6c-0.9,0.3-1.8,0.6-2.1,0.6s-0.5,0.6-0.5,1.4
	c0,1.2,0.4,1.4,2.5,1.8c1.4,0.2,3.2,0.2,4.1-0.1c1.8-0.5,7.1-5.4,8.7-8c1-1.7,1-1.7-0.2-2.5c-1.3-0.7-1.3-0.7,0.4-0.7
	c2,0,6.9-4.5,8-7.3c1.7-4.6,2.5-5.6,4.9-6.2c3.2-0.8,5.5-1.9,5.5-2.5c0-1.3,5.1-4.8,8.2-5.5c3.5-0.8,4.7-0.7,4.7,0.4
	c0,0.6,0.2,0.7,0.4,0.3c0.3-0.4,2.1-0.7,4.4-0.7c3.1,0,4.3,0.2,5.2,1.1c0.8,0.8,1.7,1,3.1,0.8c1.1-0.2,3.5,0,5.4,0.4
	c3.3,0.7,3.6,0.6,7.4-1.2c3-1.4,4.9-1.9,7.8-2c3-0.1,3.9,0,3.9,0.7c0,0.4-0.3,0.7-0.6,0.5c-0.4-0.2-0.4,0.2-0.2,1
	c0.2,0.8,0.4,1.9,0.4,2.4c0,1.6,2.8,1.3,3.5-0.3c0.3-0.7,0.5-1,0.6-0.7c0,0.4,1.5,0.8,3.2,1c1.7,0.2,3.8,0.8,4.7,1.3
	c1.6,1,3,4.9,2.5,6.8c-0.3,1.3,1.1,2.1,2.1,1.2c0.4-0.4,1-0.5,1.8,0c0.8,0.4,3.1,0.5,6.8,0.2c3.1-0.2,8.4-0.4,11.8-0.4l6.2,0
	l4.4,2.7c3.6,2.2,5,2.7,7.1,2.7c1.8,0,2.6-0.2,2.5-0.7c-0.2-0.9,1.9-0.6,3.1,0.5c0.5,0.5,2.2,0.8,4,0.8c3.4,0,8.4,1.1,8,1.7
	c-0.4,0.7,7.9,0.6,10.5,0c3.6-0.9,10.6-4.4,11.8-5.9c0.6-0.7,1.8-1.9,2.7-2.6c1.6-1.2,1.7-1.2,2.4-0.3c0.6,0.9,0.5,1.2-1,2
	c-1.4,0.9-2,1.9-1.8,3.4c0,0.4-10.9,5.9-13,6.6c-0.6,0.2-4.1,0.5-7.6,0.7s-6.5,0.4-6.7,0.6c-0.8,0.8,1.5,1.6,4.3,1.6
	c2.1,0,3,0.2,2.7,0.6c-0.3,0.3-0.6,0.8-0.6,1c0,0.7,3.2,1.5,4.9,1.1l1.7-0.3l-1.4-0.7c-0.8-0.4-1.9-0.8-2.6-1
	c-0.6-0.2,0.1-0.2,1.8,0c1.6,0.2,3.8,0.6,4.9,0.9c2.4,0.7,9.9,0.2,10.9-0.9c0.2-0.2,1-0.4,1.6-0.4c0.7,0,1.7-0.4,2.3-0.9
	c0.6-0.5,1.5-0.9,2-0.9c0.5,0,1.6-0.4,2.5-0.9c1.4-0.7,1.7-0.7,1.9,0c0.4,1-1.4,3.6-2.8,4.1c-0.5,0.2-2,0.4-3.3,0.4
	c-1.3,0.1-2.1,0.3-1.7,0.5s0.5,0.8,0.3,1.3c-0.3,0.7-1.2,0.9-4.2,0.9c-2.8,0-4.4,0.3-5.7,1.1c-1,0.6-2.8,1.4-4,1.8
	c-2,0.6-2.2,0.9-2,2.5c0.3,2.7,1.5,3.2,5.8,2.3c2-0.4,4.2-1.2,5-1.7c0.9-0.6,2.1-0.8,3.7-0.6c1.3,0.2,3.2,0.1,4.4-0.2
	c3.4-0.8,2.9,0.4-0.7,1.5c-1.8,0.6-3.6,1.2-3.9,1.5c-0.3,0.2-2.3,0.9-4.4,1.5c-5.1,1.4-5.6,2-1.6,2c6.1,0,22.1-5,24.4-7.7
	c0.5-0.6,1.5-1.1,2.2-1.1c1.8,0,10.5-5.2,10.5-6.2c0-0.6,0.3-0.8,0.9-0.5c0.5,0.2,2.3-0.1,3.9-0.6c4-1.3,6.6-0.6,8.1,2.1
	c0.6,1.1,1.7,2.6,2.4,3.3c0.7,0.7,1.7,1.9,2.3,2.8c1.7,2.5,4.6,3.3,11.8,3.3c4.2,0,8.3,0.4,12.1,1.2c6,1.3,8,1.2,13.3-0.5
	c3.9-1.2,8.8-1.4,14-0.5c2.2,0.4,4.9,0.6,5.9,0.4c3.8-0.6,7.4-0.2,7.3,0.7c-0.1,0.3-0.9,1-1.9,1.6c-1,0.5-1.6,1.1-1.5,1.2
	c0.4,0.3-1.5,2.2-2.3,2.2c-0.3,0-0.6,0.3-0.6,0.6c0,0.8-2.2,1.8-4.1,1.9c-0.9,0-1.6,0.2-1.4,0.5c0.5,0.8-8.2,0.5-11.2-0.4
	c-1.7-0.5-4-1.5-5.2-2.4c-2.1-1.4-2.5-1.5-6.9-1.1c-2.6,0.2-6,0.7-7.6,1.2c-4.1,1.1-10.3,1-13.6-0.1c-3.8-1.3-8.6-4.3-9.7-6.1
	c-1.2-2-6.2-7.1-8.1-8.4c-2.4-1.5-4.3-0.7-8.9,3.8c-3.2,3.1-3.9,4.1-3.2,4.5c0.7,0.4,0.4,0.8-1.2,1.6c-2.9,1.5-6,4.7-5.5,5.5
	c0.3,0.5,0.1,0.6-0.6,0.3c-2.3-0.9-3.5,2.2-1.7,4c0.5,0.5,1,1.5,1.1,2.2c0,0.7,0.3,1.8,0.5,2.6c0.3,1,0.2,1.3-0.5,1.3
	c-0.5,0-0.9-0.3-0.9-0.7s-0.2-0.5-0.4-0.3c-0.2,0.2,0.4,1,1.3,1.8c1.6,1.3,1.7,1.5,1,2.7c-0.9,1.5-1,1.3,1.6,2.6c2,1,4,0.8,3.3-0.3
	c-0.2-0.4,0.2-0.4,1.2,0c1.5,0.6,4.9-0.1,6.4-1.3c0.3-0.3,1.4-0.5,2.4-0.5s2.6-0.3,3.5-0.7c1.8-0.7,6.7-0.7,7.2,0
	c0.2,0.2,1.6,0.8,3.1,1.2c2.3,0.6,3.1,0.6,4.2,0c1.2-0.6,1.6-0.6,2.7,0.2c0.7,0.5,2.1,0.9,3,0.9c1.5,0,1.6,0.1,0.9,0.9
	c-0.7,0.9-0.5,0.9,1.7,0.7c1.9-0.2,2.4-0.1,2.2,0.5c-0.2,0.4,0.1,0.9,0.6,1.1s0.9,0.7,0.9,1.1c0,0.8,2.2,1.1,4.5,0.5
	c1.2-0.3,1.2-0.4,0.4-2.1c-0.9-1.8-0.5-3.2,0.4-1.6c0.3,0.5,0.5,0.6,0.6,0.3c0-0.3,0.5,0,1.1,0.7c1.5,1.7,3.2,1.6,6.8-0.5
	c8.2-4.6,21.3-5.8,21.3-2c0,0.5,0.6,0.8,1.5,0.8c0.9,0,1.5-0.3,1.5-0.8c0-0.9,1.6-1.7,1.9-0.9c0.1,0.3,0.8,0.6,1.6,0.6
	c8.3,0.1,12.3-0.2,17-1.2c8.4-1.8,19.8-1.3,22.3,1c0.8,0.8,2.2,0.9,7.6,0.8c3.6-0.1,7.7-0.2,9.2-0.2c2.5,0,9.2,1.1,11.1,1.9
	c0.5,0.2,9.1,0.4,19.3,0.4c19.4,0.1,37.1,0.6,37.8,1.1c0.3,0.2,4.1,0.3,8.6,0.2c4.5,0,22.2-0.1,39.3-0.2c33.6-0.1,37.1-0.2,36.7-0.6
	c-0.1-0.1-5.1-0.7-11-1.2c-5.9-0.5-11.8-1-13.1-1.1c-1.3-0.1-8.6-0.3-16.3-0.4c-7.7-0.1-14.8-0.3-15.8-0.5c-1.7-0.4-1.7-0.4,1-1.1
	c1.5-0.4,4.1-0.7,5.8-0.7c1.7,0,5.5-0.4,8.3-0.9c5.4-0.9,14.7-0.8,32.7,0.2c7.8,0.5,19.1,0.4,28.9-0.2c5.6-0.3,11.6-0.5,31.2-1.2
	c14.8-0.5,35.4-1.4,40.3-1.8c4.2-0.3,4.6,0.1,1.3,1.3c-1.2,0.4-1.9,1.1-2,1.9c-0.2,1-0.7,1.3-3.6,1.6c-1.9,0.2-3.5,0.6-3.5,0.8
	s-1.4,0.6-3.1,0.9c-1.7,0.2-2.7,0.6-2.2,0.7s1.3,0.8,1.9,1.5c0.9,1.2,1.5,1.2,7.3,1.1c3.5-0.1,9.6-0.4,13.6-0.6
	c4-0.2,9.3-0.2,11.7,0c2.5,0.3,5.5,0.2,7-0.1c1.4-0.3,5-1,7.9-1.5c2.9-0.5,7-1.2,9-1.5c2.1-0.4,4.3-0.6,5-0.6
	c2.1,0.1,6.9-1.2,11.7-3.2c4.7-2,6.5-2.4,5.9-1.4c-0.2,0.3-1.2,0.9-2.3,1.5c-3.4,1.6-2.2,2.5,3.8,2.6c5.9,0.1,7.2,0.4,6.7,1.6
	c-0.2,0.6-0.1,0.8,0.6,0.5c1.1-0.4,1.2,0.6,0.1,1.2c-0.7,0.4-2.9,4.3-2.6,4.6c0.1,0.1,1.6,0.3,3.4,0.5l3.3,0.4l2.5-2.9
	c1.4-1.7,3.3-3.2,4.4-3.6c1.1-0.4,2.3-1.1,2.7-1.6c0.6-0.8,0.6-1-0.4-1.7c-1.8-1.3,0-2.2,4.2-2c0.7,0,1.3,0.4,1.3,0.9
	c0,1.1,2.5,2.7,4.2,2.7c1.2,0,1.2-0.1,0.3-1.1c-0.9-1-0.9-1.1,0.9-2c1.1-0.5,3-1.1,4.2-1.3c1.6-0.3,2.1-0.6,1.5-0.9
	c-0.6-0.4-0.4-0.7,0.8-1.1c1.1-0.4,1.5-0.9,1.3-1.5c-0.4-1-0.3-1,1.5-0.4c1.7,0.6,4-0.2,4-1.4c0-0.9,2.8-2.7,4.3-2.7
	c0.5,0,1.5-0.5,2.2-1.1c0.8-0.6,2.1-1.3,3-1.5s1.6-0.6,1.6-1s0.7-0.6,1.5-0.6c0.8,0,1.5,0.2,1.5,0.5c0,0.5-3.1,2.2-5.2,2.8
	c-2.4,0.7-0.1,1.4,3.2,1.1c1.9-0.2,3.5-0.1,4.3,0.4c1.4,0.7,1.4,0.7,0.2,1.7c-1.7,1.4-2.1,3.5-0.7,4.2c0.6,0.3,1.1,1,1.1,1.5
	c0,1.1-2.5,1.1-6.3,0.2c-2-0.5-2.8-0.5-2.9,0c-0.1,0.4-0.9,1.5-1.8,2.4c-1.2,1.4-2,1.8-3.7,1.8c-1.4,0-2.1,0.3-2.1,0.7
	c0.1,0.4-0.5,1-1.2,1.4l-1.3,0.7l1.4,1.7c3.5,4.2,1.4,5.4-4.3,2.5c-3.3-1.7-7.9-4.5-8.7-5.2c-0.3-0.4-1.4-0.7-3.7-1
	c-1.6-0.3-1.7-0.2-1.3,1.2c0.3,1.1,0.1,1.7-0.6,2.1c-0.9,0.5-0.9,0.6,0.3,0.6c1.8,0,1.7,1-0.1,1.4c-1.1,0.3-1.5,0.7-1.5,2.1
	c0,1.5-0.2,1.7-2.5,2.1c-3.9,0.6-4.6,0.9-4.4,1.9c0.1,0.8-0.4,1-3.7,1.1c-3.3,0.1-4.1,0.3-5.4,1.6c-1.9,1.9-3,3.8-2.4,4.3
	c0.5,0.5,4,0.6,17.8,0.9c5.6,0.1,11,0.5,11.9,0.9c0.9,0.3,1.9,0.6,2.2,0.6c1.4,0,0.3,1.1-1.4,1.3c-1,0.2-2.9,0.6-4.2,0.9
	c-1.3,0.3-8.3,0.7-15.7,0.9c-11.7,0.3-13.5,0.5-14.1,1.4c-0.4,0.6-0.7,1.1-0.6,1.2c0.3,0.3,3.1,0.8,6.1,1c3.7,0.3,5.4,1.4,4.2,2.9
	c-0.5,0.7-0.6,0.9-0.1,0.9c0.4,0,0.5,0.3,0.3,0.6c-0.2,0.3-1.1,0.6-2,0.6c-1.4,0-1.7,0.2-1.6,1.3c0.2,2.6,1.1,3.3,4.9,3.6
	c2,0.2,3.9,0.4,4.1,0.6c0.4,0.3,5,0.4,12.9,0.3c1.8,0,4,0,5,0.1c1,0.1,3.1,0,4.7-0.1c1.7-0.1,2.9,0,2.9,0.4c0,0.3,0.2,0.9,0.5,1.3
	c0.6,0.9-0.3,0.9-3,0.2c-1-0.3-1.9-0.4-1.8-0.1c0.3,1.9-0.3,3-1.9,3.6c-1,0.4-1.6,0.9-1.2,1c0.4,0.1,0.5,0.8,0,2.3
	c-0.5,1.8-0.4,2.2,0.5,2.9c0.9,0.7,0.9,0.8-0.7,0.8c-0.9,0-2.7,0.3-3.8,0.6c-3.6,1-7,1.1-7.3,0.2c-0.2-0.5-1.1-0.8-2.1-0.8
	c-1.6,0-1.7,0.1-0.6,0.5c0.7,0.3,1.4,0.8,1.6,1.1c0.5,0.8-0.2,2.4-1,2.4c-0.6,0-2.4,3-2,3.2c0.1,0,0.8,0.3,1.6,0.7
	c1.3,0.5,1.2,0.6-1.2,0.7c-4.9,0.2-9.2,0.8-10.2,1.6c-0.7,0.5-1,1.6-1.1,3.6c0,2.1-0.3,3-1.1,3.5c-1.6,0.9-0.6,1.3,5,1.7
	c3.4,0.3,5.1,0.2,5.4-0.3c0.5-0.8,3.1-0.9,3.5-0.1c0.6,0.9,2.9,0.3,2.8-0.8c-0.1-0.6,0.4-1,1.2-1c0.7,0,1.6-0.2,2.1-0.5
	c0.7-0.4,0.5-0.7-0.7-1.3c-0.9-0.4-1.6-1.1-1.6-1.5c0-0.6,1-0.7,4.2-0.4c2.3,0.2,4.4,0.6,4.6,0.9c0.2,0.3,1.1,0.7,2,1
	c1.1,0.3,1.7,0.8,1.7,1.6c0,0.6,0.4,1.8,0.8,2.7c0.9,1.8,0.1,3.4-1.8,3.4c-0.6,0-1.1,0.4-1.1,0.9s0.3,0.9,0.6,0.9
	c1,0,0.6,3.3-0.4,4.2c-0.6,0.5-2.2,1.2-3.6,1.6c-4.3,1.2-7.3,3.7-7.9,6.7l-0.3,1.7l-13.6-0.3c-11-0.3-13.8-0.2-15,0.5
	c-0.9,0.5-3.3,0.8-6.3,0.8c-4.6,0-4.9,0.1-5.4,1.5c-0.3,0.8-0.9,1.5-1.4,1.5c-1.4,0-1.8,1.3-0.7,2.1c0.6,0.5,2.1,0.6,4,0.5
	c2.3-0.2,3.1,0,3.7,0.8c0.6,0.9,1.7,1,6.6,1.1c6.5,0.1,10.1,1.2,10.1,3.2c0,1.1-0.8,1.4-3.1,1.2c-0.6-0.1-0.9,0.2-0.7,0.5
	c0.3,0.5-0.7,0.7-7.8,1.5c-1.7,0.2-4.3,0.8-5.8,1.4l-2.7,1.1l2.3,0.4c6,0.9,12,2.1,13.4,2.7c2,0.8,1.9,1.6-0.3,1.4
	c-6.9-0.5-25.8-0.9-26.8-0.5c-0.7,0.2-1.5,0.9-1.9,1.6c-0.5,0.9-0.4,1.3,0.4,2c0.9,0.7,0.3,0.8-5.1,0.9c-3.4,0.1-6.5,0-7,0
	c-0.5-0.1-4.8-0.1-9.7-0.2c-6.3,0-9.9,0.2-12.5,0.9c-5.1,1.3-9.6,3.1-9.3,3.7c0.2,0.3-0.4,0.6-1.2,0.7c-0.8,0.1-1.8,0.7-2.3,1.4
	l-0.8,1.2l6-0.4c3.3-0.2,8.3-0.9,11-1.5c9.6-2.2,11.7-2.5,13-1.8c1.3,0.7,8.6,0.6,8.2-0.1c-0.5-0.7,5.8-0.8,12.9-0.1
	c3.9,0.4,7.8,0.7,8.8,0.7c1.7,0,1.7,0-0.6-1.1c-1.3-0.6-2.6-0.9-2.9-0.7c-0.3,0.2-0.4,0-0.2-0.3c0.3-0.6,2.1-0.9,10.5-1.7
	c3.8-0.4,7.1,0.6,6.6,2c-0.2,0.5-0.3,1.2-0.3,1.7c0,0.5-0.4,0.8-0.8,0.8c-1.7,0-1.5,1.2,0.3,2.7c1.8,1.6,1.9,1.6,0.5,2.1
	c-0.7,0.3-2.8,0.4-4.6,0.4c-1.8-0.1-4.3,0.2-5.5,0.6c-1.9,0.6-2.1,0.9-1.8,2c0.2,0.7,0.4,1.3,0.5,1.4c0.1,0.1,1.9,0.4,4.1,0.7
	c2.2,0.3,4.3,0.8,4.6,1.2c0.8,0.8,0.3,0.8-9.5,0.9c-7.1,0-8,0.2-9.1,1.2c-1.8,1.8-2.2,3.2-0.8,3.2c0.6,0,1.1,0.3,1.1,0.7
	s-0.2,0.5-0.4,0.3c-0.4-0.4-1.2,0.2-3.2,2.2c-0.6,0.6-1.1,0.8-1.1,0.4c0-0.4-0.3-0.7-0.6-0.7c-0.3,0-0.5,0.3-0.3,0.6
	c0.2,0.3,0.1,0.6-0.3,0.6c-0.4,0-0.5-0.8-0.3-2c0.2-1.2,0-2.2-0.4-2.4c-0.9-0.5-3.5,0.9-3.5,1.9c0,0.4-0.6,0.8-1.2,0.8
	c-0.8,0-1.1,0.3-0.9,0.8c0.2,0.6-0.3,1.1-1.7,1.5c-2.1,0.7-3.8,3.1-2.8,4c0.3,0.3,3.4,0.7,6.8,0.9c3.4,0.2,6.3,0.6,6.3,0.8
	s0.8,0.3,1.7,0.1c1-0.1,2.7-0.1,3.9,0.2c2,0.4,2.1,0.5,1,1.1c-0.7,0.4-1.1,1-1,1.4c0.2,0.5-0.4,0.7-1.9,0.7c-4.4,0-1,0.9,4,1.1
	c2.1,0.1,3.2,1.2,1.2,1.2c-0.6,0-1.5,0.5-2.1,1.2c-0.9,1.1-1.5,1.2-4.7,0.9c-2-0.2-6.7-0.5-10.5-0.7c-6-0.3-6.9-0.2-6.9,0.5
	c0,1.9-2.1,2.2-6.1,1c-3.2-1-3.9-1-4.4-0.3c-0.5,0.5-2,0.8-4.6,0.8c-5.6,0-6.5,0.5-3.5,1.8c1.3,0.6,3,1.1,3.8,1.1
	c0.7,0,1.4,0.2,1.5,0.5c0.2,0.6,6.3,1.2,6.3,0.7c0-0.2,1.6-0.5,3.6-0.5c2-0.1,3.8-0.2,4-0.3c0.2-0.1,0.7,0,1.1,0.2
	c0.4,0.3-0.7,0.6-2.7,0.8c-3.8,0.4-6.7,1.4-6.2,2.2c0.2,0.3-0.1,0.5-0.6,0.5c-0.5,0-0.8,0.2-0.6,0.5c0.2,0.3-0.6,0.7-1.7,0.9
	c-1.2,0.2-2,0.7-2,1.2c0,0.7-1.1,0.8-5.5,0.8c-3.1,0-5.7,0.3-5.9,0.6c-0.2,0.4-3.2,0.5-8.4,0.2l-8-0.4l-6.4,2.5
	c-3.5,1.4-8.9,3.3-11.8,4.3c-7.5,2.5-6.4,3.1,3.5,2.3c6-0.5,17.8-0.6,19.7-0.2c0.2,0-0.1,0.3-0.6,0.6c-1,0.6-6.2,1.1-17.5,1.5
	c-13.4,0.5-16.9,1-16.9,2.6c0,1.2-2.1,1.4-19.8,2.1c-10.9,0.4-22.1,1.3-28.8,2.3c-3.1,0.5-5.9,0.8-6.1,0.8c-0.4-0.1-8.3,0.6-11.5,1
	c-2.2,0.3-21.9,0.4-39.7,0.3c-7.4,0-14.1,0-14.9,0.2c-7.7,1.5-39.3,2.7-46.7,1.9c-1.1-0.1-3.2-0.4-4.7-0.6c-4-0.5-23.4-1.2-30.9-1.1
	c-3.7,0.1-8.5,0.4-10.6,0.7c-7.4,1.2-49.9,0.5-56.3-0.9c-1.7-0.4-10.8,1.1-12.2,2c-0.3,0.2-2.8,0.4-5.5,0.5s-6.4,0.2-8.3,0.4
	c-3,0.3-3.3,0.2-3.7-0.9c-0.5-1.5-2.7-1.6-5.2-0.3c-1.8,0.9-5.8,0.6-13.6-1c-2.4-0.5-3.4-0.5-4.5,0.1c-1.6,0.8-1.4,1.5,0.5,2.4
	c0.9,0.4-0.4,0.5-4.2,0.3c-3.8-0.2-5.6,0-6.1,0.5c-0.6,0.6-9.1,1.6-12.7,1.6c-4.2-0.1-15-1.4-17.7-2.1c-1.9-0.5-4.3-0.9-5.4-0.9
	c-1.6,0-5.8,1.7-8.4,3.4c-0.1,0.1,0.1,0.7,0.5,1.4c1,1.6,0.6,1.9-2.5,1.4c-1.7-0.3-2.7-0.7-2.7-1.2c0-0.6-0.7-0.8-2.2-0.8
	c-1.2,0-3.1-0.4-4-0.9c-1.9-1-7-0.9-7.6,0.2c-0.2,0.3-1.6,0.7-3,0.9c-1.4,0.2-3.3,0.5-4.1,0.7c-4.4,1-8.4,0.5-14.2-1.9l-5.8-2.4
	l-3,1.2c-1.7,0.7-4.2,1.6-5.6,2.2c-1.4,0.5-2.9,1.1-3.2,1.3c-0.3,0.2-1.6,0.7-2.8,1.1c-2.3,0.7-2.9,1.7-1.2,1.9
	c0.6,0,1.4,0.1,1.8,0.2c0.4,0,1.1,0.5,1.5,0.9c0.5,0.6,1.7,0.9,3.8,0.8c1.7,0,3.2,0.2,3.4,0.4c1.1,1.8-15.1,1.1-26.3-1.1
	c-4.8-1-10.6-1.9-12.9-2.1c-5.2-0.4-10.3-1.4-10.7-2c-1.3-2-8-2.7-9.8-1.1c-0.7,0.6-2.1,1-3.6,1c-1.4,0-3.3,0.2-4.3,0.5
	c-3.4,1-7.7,1.5-9.7,1.2c-4-0.8-10.9-1.1-11.5-0.5c-1,1-3.8,0-3.4-1.2c0.5-1.7-2.3-2.2-7-1.4c-2.2,0.4-4.2,1-4.3,1.3
	s-0.7,0.6-1.2,0.6s-1.7,0.5-2.5,1.1c-1.3,1-1.9,1.1-5.1,0.6c-3.2-0.5-4-0.4-6,0.7c-2.4,1.2-2.5,1.2-7.1-0.5c-4.9-1.9-6.5-2-9.5-0.7
	c-1.5,0.6-3.8,1.1-5.1,1.1c-2.1,0-5-0.1-11.8-0.1c-3.7,0-5,0.5-6.4,2.8c-1.5,2.5-1.2,2.7,3.7,2.8c1.8,0,3.2,0.3,3.2,0.5
	s-0.2,0.4-0.4,0.5c-0.8,0-5.1,0.6-7,0.9c-1.1,0.2-1.9,0.6-1.9,1.1c0,1.3-4.2,2.1-10.1,2c-13.8-0.2-42.9,0.5-45,1.2
	c-1,0.3-3.3,0.7-5.3,0.9c-1.9,0.2-3.8,0.6-4.2,0.9c-0.4,0.3-2.5,0.6-4.7,0.7l-4.1,0.1l1.4,1.3c0.8,0.7,1.4,1.5,1.4,1.8
	c0,1.3-4.9,2-15.1,2.3c-10,0.3-10.7,0.4-10.4,1.3c0.2,0.8-0.2,1.2-1.3,1.5c-2.3,0.7-2.4,0.6-3.2-0.9c-0.7-1.3-1.1-1.5-4.7-1.6
	c-3.7-0.2-4.1-0.1-6.9,1.9c-2.9,2.1-5.6,2.6-5.3,1c0.1-0.4-0.4-0.9-1-1.1c-0.7-0.2-1.2-0.5-1.2-0.8c0-0.6-4.7-0.6-10.2,0
	c-2.2,0.3-4.3,0.3-4.7,0c-0.8-0.6-11,0.1-10.4,0.7c0.3,0.3,1.5,0.7,2.8,1c2.1,0.5,2.2,0.5,0.6,0.6c-4,0.2-5.8,1.4-2.9,2.1
	c1.9,0.5,3,2.3,1.7,2.8c-1.7,0.6-3.7,0.4-3.7-0.5c0-0.9-2-1.8-2.9-1.2c-1.2,0.8-0.6,3,1,3.8c1.4,0.6,1.5,0.8,0.6,1.3
	c-0.6,0.3-0.9,0.8-0.7,1.1c0.7,1.1-1.1,2.3-3.3,2.3c-1.6,0-2.5,0.3-3.1,1.2c-0.7,1.1-1,1.1-1.7,0.4c-0.4-0.4-1-1.3-1.2-1.8
	c-0.5-1.4-4-1.6-5.5-0.3c-0.9,0.8-8.7,0.2-9.8-0.7c-1-0.8-2.9,0.1-3.8,1.8c-0.3,0.6-1,1.2-1.5,1.2c-0.5,0-0.9,0.5-0.9,1.2
	c0,0.7-0.5,1.3-1.5,1.5c-0.8,0.2-1.5,0.7-1.5,1.1c0,0.4-0.8,1-1.8,1.4C103,554.6,102.9,554.6,102.9,554.1L102.9,554.1z M113.1,544.3
	c0.8-0.6,0.9-0.9,0.3-0.9c-1.3,0,1.2-1.7,2.5-1.8c1.7,0,0.9-0.4-1.9-0.8c-2.4-0.4-2.5-0.4-2.4,1.2c0.1,0.9-0.1,2-0.3,2.3
	C110.8,545.4,111.8,545.3,113.1,544.3z M126.1,544.7c0.7-0.2,1.3-0.7,1.3-1.1c0-0.9-2.3-2-3.4-1.6c-0.4,0.1-0.7,0.5-0.7,0.9
	c0,0.3-0.5,1-1,1.4c-0.9,0.7-0.9,0.8,0.7,0.8C124,545.1,125.4,544.9,126.1,544.7z M127.1,540.5c0.2-0.3,1.1-0.3,2.2,0
	c1,0.3,1.9,0.5,2,0.5c0.6,0,1.9-3.8,1.6-4.6c-0.2-0.5-0.4-2.1-0.5-3.4c-0.1-1.9-0.3-2.5-1.1-2.5c-0.5,0-1.7-0.3-2.5-0.7
	c-2.1-1-5.8,0.8-5.3,2.5c0.3,0.9,0.1,1.2-0.8,1.5c-1.6,0.4-1.5,1,0.1,1.8l1.3,0.6l-1.3,0.4c-1,0.3-1.2,0.7-0.9,1.6
	c0.2,0.7,0.4,1.3,0.5,1.3C123.9,540.9,126.5,541.4,127.1,540.5L127.1,540.5z M90,532.3c2-1.5,2.3-3.1,0.5-2.9
	c-0.8,0.1-1.3-0.1-1.2-0.5c0.2-0.9-3.2-2.7-3.6-2c-0.2,0.3-0.2,0.9,0,1.5c0.2,0.5,0.1,0.9-0.3,0.9c-0.4,0-0.5,0.3-0.3,0.6
	c0.2,0.3,0.1,0.6-0.3,0.6c-0.8,0-0.6,2.5,0.3,3.1C85.9,534.2,88.3,533.6,90,532.3L90,532.3z M112.8,527.3c1.4-0.8,1.4-0.8-1-0.9
	c-2,0-2.4,0.2-2.1,0.9C110.1,528.4,110.9,528.4,112.8,527.3z M85,524.3c0.7-1.7,0.4-2.6-0.7-2.2c-2,0.7-2.6,3.1-0.8,3.1
	C84.2,525.3,84.8,524.9,85,524.3z M81.3,522.6c0-0.5-0.3-0.9-0.6-0.9c-0.3,0-0.6,0.4-0.6,0.9s0.3,0.9,0.6,0.9
	C81,523.5,81.3,523.1,81.3,522.6z M273.3,517.2c5-0.1,5.6-0.3,6.2-2.6c0.3-1.1,0.2-1.6-0.1-1.3c-0.3,0.2-4.6,0.6-9.6,1
	c-4.9,0.3-9.4,0.7-9.9,0.8s-1.9,0.4-3,0.7c-1.2,0.2-2.5,0.8-2.8,1.2c-0.5,0.7,0.6,0.8,7.1,0.6C265.4,517.3,270.9,517.2,273.3,517.2z
	 M288.8,517.1c0,0,0.4-0.8,0.8-1.8c0.6-1.5,0.6-1.9,0-2.3c-0.4-0.3-1.1-0.3-1.4-0.1s-1.7,0.4-2.9,0.4c-2,0-2.4,0.2-2.5,1.3
	c-0.1,0.8,0.2,1.5,0.7,1.7c0.5,0.2,0.8,0.6,0.6,0.9C283.8,517.6,288,517.6,288.8,517.1L288.8,517.1z M98,509.8
	c1.5-1.1,3.2-1.1,4.8,0c1.7,1.2,5,0.9,5.3-0.4c0.1-0.6-0.5-1.4-1.3-2c-1.7-1.1-5.6-1.7-5.6-0.8c0,0.3-0.3,0.6-0.6,0.6
	s-0.4-0.4-0.2-0.9c0.2-0.5,0.1-0.9-0.2-0.8c-2.4,0.4-3.1-1.6-0.9-2.5l1.6-0.7l-1.5-0.2c-1.6-0.2-3.3-2.5-2.6-3.6
	c0.2-0.3,1.5-0.5,3-0.3c2.7,0.3,5.2-0.5,4.8-1.6c-0.1-0.3-1.5-0.7-3.1-0.8s-3.7-0.3-4.6-0.6c-2-0.5-3.7,0.7-5,3.4
	c-0.5,0.9-1.2,1.9-1.7,2.1c-0.5,0.2-1.5,0.7-2.2,1.1c-0.7,0.4-2,0.7-2.9,0.7c-0.9,0-2.4,0.5-3.4,1.2c-1,0.6-1.5,1.2-1.1,1.2
	c0.4,0,1.5,0.8,2.5,1.9c1.5,1.5,2.7,2,6.6,2.9C95.8,510.8,96.6,510.9,98,509.8L98,509.8z M381.4,507.9c0.4-0.4,0-1.1-1.1-2.1
	c-1.8-1.7-2.3-1.8-2.8-0.9c-0.2,0.3-1.5,0.6-2.9,0.6c-3.1,0-3.9,1-2,2.5c1.2,0.9,2,1.1,4.8,0.8C379.3,508.6,381.1,508.2,381.4,507.9
	L381.4,507.9z M385.3,506.7c0-0.3,0.9-0.7,1.9-0.9c1.8-0.4,1.8-0.4,0.8-1.2c-1.7-1.3-3.4-1.1-3,0.3c0.3,0.8,0.1,1.2-0.5,1.2
	c-0.5,0-1,0.3-1.2,0.6c-0.2,0.3,0.2,0.6,0.8,0.6S385.3,506.9,385.3,506.7z M473.6,506.2c0.9-0.2,1.5-0.5,1.3-0.8
	c-0.2-0.3,0.6-0.6,1.7-0.9c1.1-0.2,2-0.6,2-0.9c0-1-2.6-1.2-3.9-0.3c-0.7,0.5-1.3,0.7-1.3,0.6s-0.7,0-1.6,0.3l-1.6,0.6l1.6-1.4
	c0.9-0.8,1.6-1.6,1.6-1.9c0-0.7-2.9-1.9-4.4-1.9c-0.6,0-2-0.2-3-0.4c-1.3-0.3-2.6,0-4.8,1.1c-3.7,1.9-4,2.3-2,3.3
	c0.9,0.4,2,1.2,2.6,1.8c0.8,0.8,1.5,0.9,3.5,0.5c1.4-0.3,3-0.7,3.5-0.9c0.6-0.2,1-0.1,1,0.3c0,0.4-0.4,0.6-0.9,0.6s-0.9,0.3-0.9,0.6
	c0,0.4,0.7,0.5,1.9,0.3C471.2,506.7,472.7,506.4,473.6,506.2L473.6,506.2z M107.6,505.1c0.9-0.5,1.1-0.8,0.6-0.8
	c-1.5,0-3.5,0.7-3.5,1.2C104.6,506.2,105.9,506.1,107.6,505.1z M426.6,504.6c2.7-0.6,8.3-3,8.3-3.6c0-0.9-6.3-3.3-8-2.9
	c-0.9,0.2-1.2,0-1-0.5c0.5-1.4-2-1.2-5.5,0.4c-1.4,0.6-2.7,1.1-3.1,1.1s-0.6,0.3-0.6,0.6s-0.7,0.6-1.5,0.6s-1.5,0.3-1.5,0.6
	c0,0.3,0.3,0.6,0.6,0.6c0.3,0,0.6,0.3,0.6,0.6c0,0.3-0.8,0.6-1.7,0.6c-1.8,0-2.8,0.8-1.8,1.4c0.3,0.2,2.4,0.4,4.7,0.6
	s4.3,0.4,4.5,0.6C421.2,505.5,423,505.3,426.6,504.6L426.6,504.6z M436.4,502.5c0.2-0.3,0-0.6-0.5-0.6c-0.5,0-1,0.3-1.2,0.6
	c-0.2,0.3,0,0.6,0.5,0.6C435.7,503.1,436.2,502.8,436.4,502.5z M414,499.4c1.8-0.9,3.5-1.6,3.7-1.6s1.1-0.5,1.9-1.2l1.5-1.2
	l-2.9-0.1c-1.6-0.1-4-0.2-5.5-0.2c-1.4-0.1-4.1-0.5-6-1c-5.7-1.6-7.8-0.9-7.7,2.3c0,1.5-0.2,1.7-1.3,1.6c-0.7-0.1-1.3,0.1-1.3,0.4
	s0.6,0.6,1.3,0.6c0.7,0,2.8,0.5,4.5,1.2C406.3,501.6,409.8,501.4,414,499.4L414,499.4z M441.4,500.8c0.7-0.4,0.5-0.6-0.7-0.6
	c-0.9,0-1.6,0.3-1.6,0.6C439,501.5,440.2,501.5,441.4,500.8z M526.2,500.2c0.4-0.4,0.2-1-0.5-1.7c-0.6-0.6-1.2-2-1.4-3.1
	c-0.3-1.7-0.6-1.9-2.1-1.9c-2.4,0.1-8.6,1.4-9.3,2c-0.3,0.3-1.9,0.2-3.6-0.1c-2.7-0.5-3.1-0.5-4.2,0.6c-1.4,1.4-1.1,1.9,1.2,1.9
	c1.1,0,1.7-0.3,1.7-0.9c0-0.5,0.4-0.9,0.9-0.9c0.5,0,0.9,0.5,0.9,1.2c0,1.1,0.2,1.2,3.1,0.8c2.7-0.4,2.9-0.3,2,0.4
	c-1.2,0.9-0.9,1.3,1.9,2.2C518.5,501.4,525.4,501,526.2,500.2L526.2,500.2z M107,498.9c0-0.7-0.8-0.6-2.7,0.1
	c-1.2,0.5-1.4,0.7-0.8,1.1C104.3,500.7,107,499.7,107,498.9z M491.7,499.2c3.8-1.9,3.8-1.9,2.7-2.6c-0.6-0.4-0.3-0.6,1.2-0.6
	c1.1,0,2.9-0.5,4-1.1c2.7-1.4,1.4-2.3-3.3-2.1c-2,0.1-3.6,0.1-3.6,0c0-0.1,0.9-0.7,1.9-1.4c1-0.7,1.4-1.1,0.7-0.9
	c-3,1-11.9,4.7-12.9,5.4c-1.6,1.2-0.5,1.7,1.6,0.9c7.2-2.9,7.4-3,7.4-1.8c0,0.6,0.3,1.2,0.7,1.4c0.4,0.2-0.1,0.3-1,0.3
	c-2.2,0.1-8,2.1-8.3,2.9c-0.2,0.6,1.4,1,4.4,1.2C488.1,500.7,490.1,500.1,491.7,499.2L491.7,499.2z M540.1,497.7
	c1.8-0.8,3.2-1.6,3-1.8c-0.2-0.2-1.6-0.4-3.1-0.4c-1.5,0-3-0.2-3.3-0.6c-0.3-0.3-1.6-0.7-2.9-0.9c-1.9-0.3-2.7-0.1-3.8,0.8
	c-1.2,0.9-1.3,1.3-0.7,2c0.4,0.5,0.5,1,0.3,1.2c-0.2,0.2,0.1,0.4,0.6,0.4c0.6,0,0.8,0.3,0.6,0.7
	C530.2,500.2,536.3,499.3,540.1,497.7L540.1,497.7z M532.3,497.8c0.4-0.4,0.9-0.6,1-0.4c0.2,0.2-0.1,0.5-0.7,0.7
	C531.8,498.4,531.7,498.3,532.3,497.8L532.3,497.8z M578.9,495c1.2-0.7,3.1-1.5,4.1-2c2.6-1,2.4-1.9-0.3-1.4c-4.8,0.8-7,1-11.5,1.2
	c-2.8,0.1-5.4,0.6-6.5,1.1l-1.7,0.9l2.2,0.4c1.2,0.2,2.6,0.3,3.1,0.1c0.6-0.2,0.9,0,0.9,0.6c0,0.8,0.6,0.9,3.7,0.6
	C575,496.4,577.6,495.7,578.9,495L578.9,495z M705.2,495c10.9-0.8,50.7-1.3,59.1-0.8c4.6,0.3,8.9,0.2,13.1-0.3
	c3.5-0.4,8-0.8,10.1-0.8c7.2-0.1,19-1.2,21.3-2c3.1-1,11.8-1.7,20.1-1.5c3.7,0.1,8-0.2,9.6-0.6c4-0.9,12-1.3,12-0.6
	c0,0.3,0.5,0.5,1,0.4s2.8-0.4,4.9-0.6c7.2-0.7,23.3-3.2,24.3-3.8c0.7-0.4-0.7-0.5-4.8-0.3c-3.2,0.2-11.4,0.4-18.1,0.6
	c-11.4,0.3-15.3,0.6-28.3,2c-13.8,1.5-17.2,1.6-46.1,1.1c-15-0.3-23.5,0.3-24.8,1.6c-1.4,1.4-32.8,1.7-46.4,0.4c-18-1.6-42-1-42,1
	c0,0.3-0.7,0.6-1.6,0.6c-1.3,0.1-1.4,0.1-0.4,0.3c0.7,0.1,1.4,0.7,1.5,1.3c0.3,1.3,2.7,1.7,12.4,2.2c3.9,0.2,7.1,0.4,7.1,0.5
	C689.5,495.9,696.9,495.6,705.2,495L705.2,495z M106.5,494.5c-0.4-0.2-0.9-0.1-1.1,0c-0.2,0.2,0.2,0.3,0.8,0.3
	C106.8,494.8,107,494.7,106.5,494.5L106.5,494.5z M659.6,494c0.1-0.1-0.7-0.3-1.9-0.3c-1.2,0-2,0.2-1.8,0.5
	C656.1,494.8,659,494.6,659.6,494L659.6,494z M611.6,493.6c-0.3-0.9-3.9-1.4-3.9-0.5c0,0.7,1,1.1,2.8,1.2
	C611.4,494.3,611.8,494.1,611.6,493.6L611.6,493.6z M653.1,493.9c-1.2-0.1-3-0.1-4.1,0c-1,0.1,0,0.2,2.2,0.2
	C653.4,494.1,654.3,494,653.1,493.9L653.1,493.9z M95.9,492.4c0.6-0.3,0.5-0.3-0.2-0.2c-0.6,0.1-1.2,0.5-1.4,1
	c-0.2,0.6-0.1,0.6,0.2,0.2C94.8,493.1,95.4,492.6,95.9,492.4L95.9,492.4z M632.7,492.9c7.4-0.2,9.7-1,4.5-1.7
	c-3.6-0.4-9.3-2-14.1-3.8c-2.3-0.9-3.6-1-5.4-0.7c-2.9,0.5-3.3,0.9-2.4,2c0.6,0.7,0.6,0.9-0.2,0.9c-0.5,0-1.1-0.3-1.3-0.6
	c-0.5-0.9-4-0.7-5.2,0.2c-1,0.7-0.8,0.8,1.8,1.2c1.9,0.3,3.3,0.9,4.2,1.9c1.3,1.4,1.5,1.5,6.4,1
	C623.8,493.2,629.1,492.9,632.7,492.9z M559.8,492c0-0.3-0.4-0.4-0.9-0.2c-0.5,0.2-0.9,0.4-0.9,0.6c0,0.1,0.4,0.2,0.9,0.2
	S559.8,492.3,559.8,492z M603.4,491.9c1.1-0.4,1.9-0.9,1.9-1.1s-3.4-0.4-7.6-0.4c-6.5,0-7.5,0.1-7,0.8c0.4,0.5,2.2,0.9,4.9,1
	c2.3,0.1,4.6,0.3,5,0.3C601.1,492.5,602.4,492.3,603.4,491.9L603.4,491.9z M384.9,489.9c-0.4-0.2-1.1-0.2-1.5,0
	c-0.4,0.2-0.1,0.3,0.7,0.3C385,490.2,385.3,490,384.9,489.9z M491.6,485.5c0-0.7-1-0.6-2.4,0.1c-1.7,0.9-0.8,1.8,1,1
	C490.9,486.3,491.6,485.8,491.6,485.5L491.6,485.5z M544.8,484.3c1.9-0.7,1.9-0.7,0.4-1.1c-1.4-0.4-5.2-0.2-8,0.4
	c-0.7,0.1-1.3,0.7-1.3,1.2c0,0.8,0.5,0.9,3.5,0.5C541.3,485.1,543.8,484.6,544.8,484.3z M585.8,479.2c0.2-0.3-0.2-0.6-0.8-0.6
	c-0.7,0-1.2,0.3-1.2,0.6c0,0.3,0.4,0.6,0.8,0.6C585.1,479.7,585.6,479.5,585.8,479.2z M862.2,475c18.8-1.4,21-2.5,4.4-2.1
	c-15.2,0.4-20.7,1-20.7,2.1c0,0.6,4,1.1,6.7,0.8C853.5,475.7,857.8,475.4,862.2,475L862.2,475z M968.5,467.7c-0.4-0.2-0.9-0.1-1.1,0
	c-0.2,0.2,0.2,0.3,0.8,0.3C968.8,468,968.9,467.9,968.5,467.7L968.5,467.7z M563,450.5c2.7-1.4,2.1-2-1.1-1.1
	c-1.2,0.3-2.8,0.5-3.7,0.3c-0.9-0.2-2,0.1-2.7,0.6c-1,0.8-1.1,1-0.3,1.5C556.4,452.6,560,452,563,450.5L563,450.5z M568.7,451.7
	c1.2-0.3,2.2-0.9,2.2-1.2c0-1.2-6.3-0.2-7.8,1.3C562.3,452.5,566.1,452.4,568.7,451.7z M738,450.1c1-0.4,1-0.5,0.1-1.3
	c-1.5-1.3-17.8-1.6-17.8-0.4c0,1.1,3.2,1.6,8.1,1.2c2.8-0.2,3.6-0.1,3,0.3c-0.7,0.5-0.1,0.6,2.3,0.6
	C735.5,450.5,737.5,450.3,738,450.1L738,450.1z M579.7,447.9c2.2-0.7,4.6-0.9,7.7-0.7c4.8,0.3,5,0,1.4-1.8c-1.9-1-2.7-1-5.8-0.6
	c-2,0.3-4.4,0.8-5.4,1.1c-1,0.3-2.7,0.7-4,0.9c-2.4,0.4-2.5,1.5-0.1,1.2c0.8-0.1,1.5,0.1,1.5,0.3C575,449,576.2,448.9,579.7,447.9
	L579.7,447.9z M778.8,445.5c-0.4-0.2-0.9-0.1-1.1,0c-0.2,0.2,0.2,0.3,0.8,0.3C779.1,445.8,779.3,445.7,778.8,445.5L778.8,445.5z
	 M783.4,445.2c0-0.3-0.7-0.5-1.5-0.5s-1.3,0.2-1.2,0.5C781.1,445.9,783.4,445.9,783.4,445.2L783.4,445.2z M87.4,443.8
	c-0.3-2.4-2.1-3.2-4.1-1.8c-1,0.8-1,0.9,1.2,2C87.5,445.6,87.6,445.6,87.4,443.8L87.4,443.8z M799.4,444.7c8.3-1,8.1-1.8-0.5-1.4
	c-7.7,0.3-8.9,0.4-12.5,1.4C783.2,445.5,792.7,445.5,799.4,444.7z M868,440.9c0.8-0.9,0.6-0.9-2.6-0.6c-1.9,0.2-5.5,0.5-8,0.7
	c-2.8,0.2-4.4,0.6-4.1,1c0.2,0.4,2.8,0.5,7.1,0.2C865.5,441.9,867.3,441.6,868,440.9L868,440.9z M874.1,440.1
	c-0.2-0.3-0.9-0.6-1.5-0.6c-0.6,0-1.1,0.3-1.1,0.6c0,0.3,0.7,0.6,1.5,0.6C873.8,440.6,874.3,440.4,874.1,440.1z M600.3,437.7
	c-0.8-0.7-7.1-1.3-7.1-0.6c0,0.3,0.3,0.7,0.7,0.9C595,438.4,600.7,438.1,600.3,437.7L600.3,437.7z M665.5,437.1c0-1-1.6-1.3-4.5-0.8
	l-2.8,0.5l3.2,0.4c1.8,0.2,3.4,0.4,3.6,0.5C665.3,437.7,665.5,437.5,665.5,437.1L665.5,437.1z M513.1,436.6c1-0.7,0.7-0.8-4-1.7
	c-2.5-0.5-3.4-0.5-4.7,0.2c-1.2,0.6-1.3,0.9-0.7,1.1C506.4,437.1,511.9,437.3,513.1,436.6z M902.6,435.9c5.4-0.7,6.8-1.3,4.9-2.1
	c-0.5-0.2-3.8,0.1-7.4,0.6c-3.6,0.5-7.8,0.9-9.3,0.9c-1.8,0-3,0.3-3.5,0.9c-0.7,0.9-0.3,0.9,4.5,0.7
	C894.5,436.8,899.4,436.4,902.6,435.9L902.6,435.9z M943.9,436c0-1-0.4-1.1-3.1-0.9c-6.8,0.4-7.2,2-0.5,2.1
	C943.4,437.1,943.9,437,943.9,436L943.9,436z M951.6,436.4c-1.4-0.4-2.1-0.4-2.6,0.1c-0.5,0.5,0,0.7,1.9,0.6l2.6-0.1L951.6,436.4z
	 M604.6,435.7c0.5-1.3,0-1.6-1.8-1.1c-1.8,0.4-2,1.2-0.5,1.6C604.1,436.6,604.2,436.6,604.6,435.7L604.6,435.7z M718.8,435.6
	c0.3-0.2,2.9-0.3,5.9-0.2c4.3,0,5.6-0.1,6.2-0.9c0.7-0.8-0.3-0.9-9.7-0.5c-6.9,0.2-11.2,0.7-12.7,1.2c-1.2,0.5-2.4,0.7-2.7,0.6
	c-0.2-0.2-1.2,0-2.2,0.2c-1.1,0.3,1.3,0.4,6.5,0.2C714.6,436,718.5,435.7,718.8,435.6z M656.1,435c0-0.1-0.9-0.2-2-0.2s-2,0.2-2,0.5
	s0.9,0.4,2,0.2S656.1,435.2,656.1,435z M762.2,435c-1.5-0.1-4-0.1-5.5,0c-1.5,0.1-0.3,0.2,2.8,0.2
	C762.5,435.2,763.7,435.1,762.2,435z M697.8,434.3c-0.3-0.3-2.5-0.7-4.8-0.8c-3.4-0.2-4.2-0.1-4.2,0.5c0,0.7,1,0.8,4.8,0.8
	C696.6,434.8,698.2,434.6,697.8,434.3z M522.4,433.7c0.6-0.4,0.5-0.7-0.4-1.5c-1.2-1.1-2.2-1-5.8,0.7c-1.7,0.8-2,0.8-2.9,0
	c-0.7-0.6-1.3-0.7-1.9-0.4c-0.7,0.5-0.7,0.6,0,0.8c0.5,0.2,1.3,0.4,1.7,0.6C514.6,434.3,521.6,434.2,522.4,433.7L522.4,433.7z
	 M670.7,433.6c0-0.3-0.5-0.6-1.2-0.6c-0.7,0-1,0.3-0.8,0.6c0.2,0.3,0.7,0.6,1.2,0.6C670.4,434.2,670.7,434,670.7,433.6z
	 M787.3,432.8c0.6-0.6-4.8-0.3-5.7,0.3c-0.6,0.4,0,0.5,2.2,0.3C785.6,433.3,787.1,433,787.3,432.8z M654.4,431.8
	c2.1-0.3,4.2-0.7,4.7-0.8c0.5-0.1,1-0.2,1.2-0.2c0.2,0-0.1-0.3-0.5-0.6c-1.3-0.8-11-0.8-12.3,0l-1.2,0.7l1.2,0.6
	C649,432.5,649.8,432.5,654.4,431.8L654.4,431.8z M593.4,429.6c3.3-1.6,3.4-1.7,1.8-1.9c-1-0.1-2.7,0.1-3.8,0.5
	c-1.1,0.4-3.2,1-4.5,1.3s-2.3,0.9-2.2,1.2C585.4,431.9,589.9,431.3,593.4,429.6z M79,426.9c0.6-0.7,0.5-1.1-0.6-2
	c-1.3-1.1-3.4-1.2-6.9-0.4L70,425l1.3,0.9c1.3,0.9,3.9,1.7,5.9,1.9C77.8,427.8,78.6,427.4,79,426.9L79,426.9z M119,420.8
	c-0.2-0.3-1.1-0.6-2-0.6c-1.2,0.1-1.3,0.1-0.4,0.3c0.6,0.2,1.4,0.5,1.7,0.8C119,422.1,119.5,421.7,119,420.8z M935.5,421
	c0.2-0.5-0.6-0.7-2.7-0.7c-2.8,0-3.5,0.4-2.6,1.4C930.9,422.3,935.3,421.7,935.5,421z M133.2,414.9c0-1.3-3.4-4.7-4.4-4.4
	c-0.4,0.2-1,0-1.3-0.3c-0.8-0.8-5.6-0.7-5.8,0.1c-0.1,0.3-0.6,0.6-1,0.6c-1.1,0-1,2,0.1,3.8c0.9,1.4,1.2,1.4,6.7,1.3
	C132.5,415.9,133.2,415.8,133.2,414.9L133.2,414.9z M609.1,399.3c0.5-0.8-2-2.4-3.6-2.4c-1.5,0-1.6,0.2-0.7,1.8
	C605.4,399.9,608.5,400.3,609.1,399.3z M679.8,397.8c0-0.3-0.7-0.7-1.6-0.8c-1.2-0.1-1.6,0.1-1.6,0.8c0,0.7,0.4,0.9,1.6,0.8
	C679.1,398.4,679.8,398.1,679.8,397.8z M623.1,396.4c0.5-0.8-2.6-2.5-4.7-2.5c-1.1,0-2.9,0.3-4.1,0.7c-2,0.7-2.1,0.8-1.1,1.5
	C614.5,397,622.6,397.2,623.1,396.4L623.1,396.4z M956.3,384c-1.2-0.3-2.6-0.3-3.8,0c-1.7,0.5-1.4,0.5,1.9,0.5
	C957.7,384.5,957.9,384.4,956.3,384L956.3,384z M984.1,381.7c0-0.3-0.5-0.6-1.1-0.6s-1.3,0.3-1.5,0.6c-0.2,0.3,0.3,0.6,1.1,0.6
	C983.5,382.3,984.1,382,984.1,381.7z M580.1,362.7c2.1-0.6,1.6-1.6-0.6-1.2c-2.2,0.4-3.6,1.5-1.9,1.5
	C578.3,363,579.4,362.9,580.1,362.7L580.1,362.7z M487.5,361.3c0-0.3-0.4-0.6-0.9-0.6c-0.5,0-1.1,0-1.3,0c-0.2,0-0.5,0.3-0.6,0.6
	c-0.1,0.3,0.5,0.6,1.3,0.6C486.8,361.9,487.5,361.6,487.5,361.3z M1006.8,359.9c1.3-1,4.7-1,4.7,0c0,1,3,0.6,6.3-0.7
	c1.1-0.4,2.2-0.7,2.5-0.5c0.3,0.2,0.5,0,0.5-0.3c0-0.3,0.4-0.6,0.9-0.6c0.5,0,0.9-0.5,0.9-1.2c0-1.3,0.1-1.3-13.6-1.4
	c-8.2-0.1-9.1,0.2-6.9,2.1c0.8,0.7,1.2,0.8,1.4,0.3c0.2-0.4,0.3-0.2,0.3,0.3c0,0.6-0.3,1-0.8,1c-0.5,0-0.9,0.5-0.9,1.2
	c0,1.1,0.2,1.2,1.9,0.8C1005.2,360.7,1006.4,360.3,1006.8,359.9L1006.8,359.9z M687.5,358c1.7-0.5,1.1-1.4-0.9-1.4
	c-0.9,0-2.9-0.4-4.5-0.9c-7.5-2.3-21.1-0.9-14.2,1.4c2.3,0.8,6.6,0.8,9.3,0c2.8-0.9,5.9-0.7,6.9,0.3
	C685.1,358.4,685.5,358.5,687.5,358L687.5,358z M751.1,357.7c-1.5-0.8-19.6-1.5-18.8-0.6c0.8,0.9,3.1,1.1,12,1.2
	C750.1,358.3,751.9,358.2,751.1,357.7z M630.5,357.3c0.8-0.2,1.2-0.6,0.9-0.7c-0.3-0.2-1.6,0-2.9,0.4c-1.8,0.6-2,0.7-0.9,0.7
	C628.3,357.7,629.7,357.5,630.5,357.3L630.5,357.3z M157.7,356c0.3,0,0.3-0.5,0.2-1.2c-0.2-0.9,0-1.2,0.8-1.2c0.6,0,1.7-0.5,2.5-1.2
	c0.8-0.6,1.8-1.1,2.2-1.2c0.4,0,0.7-0.2,0.7-0.5c0-0.3,0.7-0.8,1.5-1.3s1.5-1.1,1.5-1.5c0-0.9,3-2,5.3-2c1.2,0,1.7-0.3,1.7-1.1
	c0-1.4-1.6-2.1-2.8-1.1c-0.7,0.6-0.9,0.6-1.1,0c-0.1-0.4-0.9-0.7-1.7-0.7c-0.8,0-1.4,0.3-1.5,0.7c0,0.4-0.1,1-0.2,1.3
	c-0.1,0.3-0.2,1-0.2,1.5c-0.1,0.7-1,0.9-3.7,1c-2.9,0.1-3.9,0.4-4.9,1.5c-0.7,0.7-1.7,1.7-2.2,2.1c-1.3,1.1-1.1,2.4,0.4,3
	c1.1,0.4,1.1,0.5,0.3,0.8c-0.5,0.2-1,0.7-1,1c0,0.4,0.4,0.5,0.9,0.3C156.8,356.2,157.5,356,157.7,356L157.7,356z M994.9,356.3
	c2.6-1,0.1-1.4-8.4-1.4c-6.1,0-9.3,0.2-9.3,0.6c0,0.4,1.5,0.6,3.8,0.5c2.1-0.1,4,0,4.2,0.3C985.6,356.7,993.6,356.7,994.9,356.3
	L994.9,356.3z M578.5,355c0-0.3-1-0.9-2.3-1.5c-1.3-0.6-3.6-2.2-5.1-3.6c-3-2.7-3.7-3-5.5-2c-1.1,0.6-1.1,0.6,0.1,2.3
	c1.1,1.5,1.7,1.7,3.9,1.7c2.4,0,2.5,0.1,1.5,0.8c-1.1,0.8-1.1,0.8,0.3,1.4c0.8,0.3,1.9,0.7,2.3,0.9
	C575.2,355.5,578.5,355.5,578.5,355L578.5,355z M717.4,353.7c1.3-0.1,1.4-0.1,0.3-0.6c-1.6-0.7-18.5-0.7-19.6,0
	c-0.6,0.4,0,0.6,2.3,0.6c1.8,0,4.5,0.2,6.1,0.4c1.6,0.2,4.4,0.2,6.1,0C714.5,354,716.6,353.8,717.4,353.7L717.4,353.7z M780.6,354.5
	c-0.4-0.2-1.1-0.2-1.5,0c-0.4,0.2-0.1,0.3,0.7,0.3C780.7,354.8,781,354.6,780.6,354.5z M807.4,354.5c2-0.3,2.1-0.4,1.6-1.8
	c-0.3-0.8-0.5-1.5-0.4-1.6c1.3-1,3.4-1.3,9.4-1c3.9,0.1,7.4,0.4,7.9,0.5c1.3,0.4,0.2,1-2.7,1.4c-1.5,0.2,4.8,0.4,14.1,0.5
	c11.1,0.1,16.7-0.1,16.5-0.5c-0.2-0.3-1-0.4-1.7-0.2c-0.8,0.2-2.1-0.1-3.3-0.8c-1.1-0.6-2.2-1-2.7-0.9c-0.4,0.2-0.9,0-1.2-0.4
	c-0.3-0.5,0.1-0.6,1.5-0.3c1.5,0.3,1.7,0.2,1-0.2c-0.6-0.3-2.1-0.4-3.5-0.2c-2.1,0.3-2.3,0.5-1.2,0.9c0.7,0.3,1.3,0.8,1.2,1.2
	c0,0.6-0.1,0.6-0.3,0c-0.2-0.4-0.8-0.7-1.4-0.7c-0.6,0-1.2-0.3-1.3-0.7c-0.1-0.4-2-0.7-4.6-0.9c-2.4-0.1-6.2-0.3-8.4-0.5
	c-15.1-1-23.4-1.1-25.5-0.2c-1.9,0.8-2.2,0.8-2.9,0c-0.6-0.8-1.8-0.8-7.5-0.5c-10.1,0.6-29.2,0.5-37-0.3c-7.7-0.7-10.4-0.5-9,0.9
	c0.5,0.5,2.7,0.9,6.3,1.1c3,0.2,5.6,0.4,5.7,0.5s-0.7,0.4-1.8,0.6c-2,0.4-2.8,1.2-1.3,1.4c6.1,0.9,8.9,1.1,12.1,0.8
	c2.1-0.1,5.2-0.3,7-0.3c7.7,0,8.7,0.1,9.8,1.3c0.9,1.1,1.7,1.2,11.2,1.2C800.6,354.8,806.2,354.7,807.4,354.5L807.4,354.5z
	 M611.5,353c0.6-1-1-1.7-3-1.3c-2.2,0.5-2.7,0.8-2.3,1.4C606.7,353.9,611.1,353.8,611.5,353L611.5,353z M595.6,351.4
	c2.1,0.1,8.7-1.3,10.4-2.2c1.3-0.7,1-0.8-3.5-0.5c-2.7,0.2-5.7,0.5-6.7,0.8c-1,0.3-2.5,0.7-3.4,0.9c-1.1,0.2-1.6,0.7-1.6,1.5
	c0,1.1,0.1,1.1,1.7,0.3C593.4,351.8,594.8,351.4,595.6,351.4L595.6,351.4z M631.5,351.2c2.6-1.1,3.1-1.5,2.9-2.5
	c-0.2-1.1-0.1-1.2,1.3-0.7c1.8,0.7,6.5,0.6,7.4-0.2c0.4-0.3,0.9-0.5,1.2-0.4c1.2,0.3,3.1-0.8,3.1-1.9c0-1.1-0.2-1.2-3.1-0.8
	c-1.7,0.2-3.7,0.7-4.5,1c-0.8,0.3-1.7,0.5-2,0.5c-0.3-0.1-2.3-0.3-4.4-0.4c-2.1-0.2-4-0.5-4.3-0.8c-0.9-0.9-3.4-0.6-3,0.3
	c0.5,1.2-1.7,3-2.7,2.2c-1.3-1.1-9.2-1-12.7,0.1l-2.6,0.9l2.3-0.3c1.3-0.2,3.2-0.4,4.2-0.6c1.5-0.3,2.1-0.1,3.2,1.2
	c1.8,2.1,6.5,4.2,8.9,3.9C627.6,352.5,629.8,351.9,631.5,351.2L631.5,351.2z M660.3,352.5c-1-0.9-4.7-1.7-8-1.7
	c-3.9,0-4.7,0.3-3.8,1.5c0.4,0.5,2.4,0.7,6.4,0.6C658.2,352.9,660.6,352.7,660.3,352.5L660.3,352.5z M896.6,352.5
	c1.4-0.2,2.2-0.4,1.8-0.5c-0.5-0.1-1.1-0.1-1.3-0.1c-0.2,0-0.4-0.3-0.3-0.7c0.1-0.4-0.2-0.7-0.6-0.6c-0.4,0.1-0.7-0.4-0.6-1.2
	c0.1-1.2-0.1-1.3-4.2-1.5c-4.1-0.2-4.3-0.1-4,1.1c0.2,0.9,0.1,1.2-0.5,0.9c-0.5-0.2-0.7-0.1-0.5,0.2c0.5,0.8-1.3,2-3.6,2.4
	C880,353.1,892.8,353,896.6,352.5L896.6,352.5z M890,349.2c0.4-0.2,1.1-0.2,1.5,0c0.4,0.2,0.1,0.3-0.7,0.3
	C889.9,349.5,889.6,349.4,890,349.2z M510.9,352.1c-0.4-0.2-0.9-0.1-1.1,0c-0.2,0.2,0.2,0.3,0.8,0.3
	C511.3,352.4,511.4,352.3,510.9,352.1L510.9,352.1z M583.1,351.6c0.7-0.7-0.9-1.5-2.9-1.5c-2.4,0-3.3,1.4-1.3,1.9
	C579.9,352.4,582.7,352.1,583.1,351.6L583.1,351.6z M901.3,352c0-0.7-1.1-1.4-1.6-1c-0.4,0.4,0.3,1.6,1,1.6
	C901,352.5,901.3,352.3,901.3,352z M908,351.4c-0.2-0.3-0.1-0.6,0.2-0.6c0.3,0,0.7,0.3,0.8,0.7c0.2,0.5,0.6,0.4,1.3-0.4
	c0.6-0.6,1.2-0.8,1.3-0.5c0.2,0.7,2.5,0.2,2.5-0.5c0-0.3-1-0.5-2.3-0.5c-1.3,0-2.8-0.2-3.4-0.4c-0.6-0.2-0.9-0.2-0.6,0.1
	c0.6,0.7-0.7,2.1-1.5,1.7c-0.4-0.2-0.4-0.1-0.2,0.3c0.2,0.4,0.8,0.7,1.3,0.7S908.2,351.7,908,351.4z M928.1,351.4
	c1.4,0,3-0.3,3.5-0.6c1.6-1-0.5-1.7-4.4-1.5c-1.9,0.1-5,0.3-6.9,0.4c-1.9,0.1-3.5,0.3-3.7,0.6c-0.2,0.3-0.5,0.3-0.8,0.2
	c-0.3-0.2-0.4,0.1-0.2,0.6c0.3,0.7,1.2,0.8,5.1,0.6C923.3,351.5,926.7,351.4,928.1,351.4L928.1,351.4z M974.2,349.9
	c3.5-0.4,7.4-1.8,6.8-2.4c-0.2-0.2-4,0-8.5,0.4c-6.6,0.6-8.1,0.9-7.8,1.6c0.5,1.2,2.5,1.8,4.5,1.3
	C970.2,350.5,972.4,350.1,974.2,349.9L974.2,349.9z M854.4,349.8c2.5-0.7,1.3-1.4-1.8-1.1c-1.7,0.1-3.3,0.3-3.5,0.3
	c-0.2,0-0.4,0.3-0.4,0.6C848.7,350.2,852.3,350.4,854.4,349.8L854.4,349.8z M991.6,349.8c-0.6-0.1-1.5-0.1-2,0s-0.1,0.3,1,0.3
	C991.7,350.1,992.1,349.9,991.6,349.8z M903,348.4c0-1.2-1.9-1.7-2.6-0.6c-0.2,0.3,0.2,0.4,0.8,0.2c0.8-0.2,1.2,0,1.2,0.6
	c0,0.5,0.1,0.9,0.3,0.9S903,349.1,903,348.4L903,348.4z M694.9,347.8c0.3-0.3-1.5-0.5-4.4-0.5c-4.7,0-4.8,0.1-3.2,0.9
	C689.2,349,693.9,348.8,694.9,347.8z M737,347.6c-5.3-3.2-5.6-3.3-10.7-3.2c-3.2,0.1-5,0.3-5.1,0.8c-0.2,0.5-1.9,0.7-5.6,0.6
	c-6.3-0.1-7.7,0.2-5.2,1.2c2.3,0.9,6.8,1.3,7,0.6c0.1-0.3,1.9-0.9,4.1-1.2c3.4-0.6,4.1-0.5,5.3,0.3c2.6,1.7,4.9,2.3,8.8,2.3l3.8,0.1
	L737,347.6L737,347.6z M876.3,348.6c-0.4-0.2-1.1-0.2-1.5,0c-0.4,0.2-0.1,0.3,0.7,0.3S876.7,348.8,876.3,348.6z M882.6,348.4
	c0-0.3-0.9-0.6-1.9-0.5c-1.6,0-1.7,0.1-0.7,0.5C881.6,349.1,882.6,349.1,882.6,348.4z M886.7,348.6c0-0.3-0.8-0.5-1.8-0.6
	c-1-0.1-1.8,0.1-1.8,0.5c0,0.3,0.8,0.6,1.8,0.6C885.9,349,886.7,348.8,886.7,348.6z M898.6,348.4c0.2-0.3-0.2-0.6-1-0.6
	c-1.1,0-1.2,0.1-0.5,0.6C898.3,349.1,898.2,349.1,898.6,348.4z M677.8,347.5c-0.4-0.2-0.9-0.1-1.1,0c-0.2,0.2,0.2,0.3,0.8,0.3
	C678.2,347.8,678.3,347.6,677.8,347.5L677.8,347.5z M910.6,346.9c0.1-0.1-0.6-0.2-1.6-0.1c-1,0.1-1.9,0.4-1.9,0.6
	C907.1,347.8,910,347.4,910.6,346.9L910.6,346.9z M541.3,346.5c0.3-0.9,4.5-1,4.5-0.1c0,0.4,0.9,0.7,2,0.7c2.5,0,2.6-0.5,0.1-1.9
	c-1-0.6-2.5-1.6-3.1-2.2c-1.9-1.7-4.8-1.2-6.2,1.1c-0.6,1-0.9,2.2-0.7,2.5C538.5,347.5,541,347.4,541.3,346.5L541.3,346.5z
	 M584.5,346.9c-0.4-0.2-0.9-0.1-1.1,0c-0.2,0.2,0.2,0.3,0.8,0.3C584.8,347.2,584.9,347.1,584.5,346.9L584.5,346.9z M667.3,346.9
	c-0.4-0.2-0.9-0.1-1.1,0c-0.2,0.2,0.2,0.3,0.8,0.3C667.7,347.2,667.8,347.1,667.3,346.9L667.3,346.9z M940.6,345.2
	c2.1-1.1,2.7-1.1,4,0.1c1,0.9,1.1,0.9,0.7-0.1c-0.3-0.8-0.2-1,0.3-0.7c0.4,0.2,0.7,0.2,0.7-0.1c0-0.9-2.1-1.2-6-0.9
	c-7.7,0.6-10.4,1.2-8.2,2C933.9,346.3,938.8,346.1,940.6,345.2L940.6,345.2z M974,345.2c3.1-0.3,4.4-1.2,4.7-3.2
	c0.2-1.5-1.4-1.7-4.7-0.4c-1.7,0.7-3.1,0.9-3.5,0.6c-2-1.5-6.6-1.1-9.5,0.8l-1.5,1l1.3,0.7c0.7,0.4,1.1,0.8,1,1
	C961.3,345.9,969.2,345.7,974,345.2z M554.1,344.4c0.4-0.6,1.3-1.2,1.9-1.4c0.9-0.2,0.9-0.3-0.3-0.4c-0.8,0-1.8,0.3-2.3,0.7
	c-0.5,0.4-0.6,0.5-0.4,0.1c0.2-0.4-0.3-0.8-1.2-1c-0.9-0.2-2.4-0.5-3.3-0.7l-1.7-0.4l1.3,1.3c1.3,1.3,4,2.9,4.8,2.9
	C553.2,345.5,553.7,345,554.1,344.4L554.1,344.4z M666.2,344c-0.4-0.2-1.1-0.2-1.5,0c-0.4,0.2-0.1,0.3,0.7,0.3
	C666.3,344.3,666.6,344.1,666.2,344z M983.5,343.5c-0.4-0.7-4.1-0.4-5,0.4c-0.4,0.4,0.4,0.5,2.3,0.4
	C982.6,344.1,983.7,343.8,983.5,343.5L983.5,343.5z M641.7,343.1c-0.4-0.4-2.6-0.8-4.9-0.9c-3.9-0.2-4.2-0.2-3.1,0.7
	C635,344,642.8,344.2,641.7,343.1z M496.7,341.2l1.4-0.7l-2.3-1.6c-2.2-1.5-3.9-1.9-6.4-1.2c-1.2,0.3-1.2,0.4-0.3,1.3
	C492.1,342,494.2,342.6,496.7,341.2z M922.3,334.8c4.1-0.5,11.4-1.3,14.2-1.4c1.1-0.1,1.2-0.2,0.4-0.7c-1.1-0.7-24-0.2-26.6,0.7
	c-2.7,0.8-3.8,1-9.1,1.4c-2.6,0.2-4.9,0.5-5.1,0.7C895.7,335.8,919.2,335.2,922.3,334.8L922.3,334.8z M593,334.4
	c0.9,0,0.9-0.1,0-0.6c-1.1-0.6-2.8-0.2-2.8,0.7c0,0.3,0.4,0.4,0.9,0.2S592.5,334.4,593,334.4L593,334.4z M711.3,333.9
	c0.3-0.2,6.2-0.5,13.1-0.5s13-0.3,13.6-0.5c0.6-0.2,1.3,0,1.5,0.3c0.3,0.5,2.4,0.5,8.5,0.1c4.5-0.3,8.8-0.6,9.6-0.6
	c1.3,0,1.4,0.1,0.4,0.8c-0.9,0.7-0.9,0.8-0.1,1.1c1,0.4,19.6-0.1,23.6-0.6c2.4-0.3,2.5-0.4,1.5-1.1c-1.7-1.2-6.9-2.6-11-2.9
	c-17.8-1.3-33-1.6-38.6-0.9c-10,1.3-24.1,1.5-29.8,0.5c-9.3-1.7-33.8-2.4-37.6-1.1c-3.3,1.1-7,1-12.1-0.4c-2.6-0.7-5.4-1.2-6.1-1.1
	c-1.9,0.3-2,1.6-0.1,1.9c0.9,0.2,2.6,0.6,3.8,0.9c4.4,1.2,10,1.3,13.7,0.3c5.3-1.4,14.1-1.7,17.5-0.6c1.6,0.5,3.4,0.9,4.1,0.9
	c0.7,0,1.4,0.3,1.5,0.6c0.2,0.5,4.5,1,9.8,1.1c1.3,0,2.7,0.6,3.8,1.5c1.6,1.4,2,1.5,5.3,1.1C709.1,334.5,711,334.1,711.3,333.9
	L711.3,333.9z M827.7,333.8c4.3-0.3,9.7-0.6,12-0.7c5.5,0,7.7-0.9,2.6-1.1c-2.1,0-4.3-0.2-5-0.3c-3.7-0.8-27.5,0.1-44.9,1.6
	c-0.6,0.1,2.4,0.4,6.7,0.7C808,334.8,816.2,334.7,827.7,333.8L827.7,333.8z M644.6,331.7c-0.4-0.2-0.9-0.1-1.1,0
	c-0.2,0.2,0.2,0.3,0.8,0.3C644.9,332,645,331.9,644.6,331.7L644.6,331.7z M643.3,329.6c0-1.4-1.4-2.2-3.8-2.2l-2.4,0l1.8,1.4
	C640.8,330.4,643.3,330.8,643.3,329.6L643.3,329.6z M963,329.4c-0.6-0.1-1.4-0.1-1.8,0c-0.4,0.2,0.1,0.3,1,0.3
	C963.2,329.6,963.5,329.5,963,329.4L963,329.4z M969.9,328.6c0.5,0,0.7-0.2,0.5-0.5c-0.4-0.7-3.3-0.1-3.3,0.6c0,0.3,0.4,0.4,0.9,0.2
	C968.6,328.8,969.4,328.6,969.9,328.6L969.9,328.6z M495,326.9c1.3-0.8,0.4-1.3-2.6-1.4c-1.7-0.1-2.9,0.2-3,0.6
	C489,327.2,493.6,327.8,495,326.9z M500.6,326.3c0.2-0.3,0.6-0.4,0.9-0.2c0.3,0.2,1.4,0.1,2.4-0.1c1.9-0.4,1.9-0.4,0.4-0.9
	c-1.6-0.5-5.8-0.7-5.8-0.3c0,0.1,0.2,0.7,0.4,1.2C499.3,327,500.1,327.1,500.6,326.3L500.6,326.3z M976.5,323.5
	c0.2-0.3,1.4-0.7,2.8-0.9c1.3-0.2,2.7-0.4,3-0.6c0.9-0.6,1.3-2.6,0.5-2.9c-1.9-0.7-13.8,2-13.8,3.1c0,0.3-0.6,0.7-1.3,0.9
	c-1.1,0.4-0.9,0.5,1.3,1.1C971.7,324.9,975.8,324.5,976.5,323.5L976.5,323.5z M510.8,323.6c0-0.1-0.4-0.2-0.9-0.2s-0.9,0.3-0.9,0.6
	s0.4,0.4,0.9,0.2S510.8,323.7,510.8,323.6z M881.1,321c0.2-0.3,0-0.4-0.5-0.2c-1,0.4-1.2,0.8-0.4,0.8
	C880.5,321.6,880.9,321.3,881.1,321L881.1,321z M904.2,321c0.5-0.1-1.4-0.3-4.1-0.5c-6-0.4-17.5,0-17.5,0.6
	C882.6,321.5,902.1,321.4,904.2,321z M519,319.8c0-0.3-0.4-0.6-0.9-0.6s-0.7,0.3-0.5,0.6c0.2,0.3,0.6,0.6,0.9,0.6
	S519,320.2,519,319.8z M988.4,318.4c-0.2-1.9,0.9-3.2,2.6-3.3c0.9,0,2.1-0.3,2.8-0.5c0.9-0.4,0.7-0.5-1.2-0.5
	c-1.3,0-2.9,0.3-3.5,0.8c-0.6,0.5-1.6,0.9-2.1,0.9c-0.5,0-1.4,0.5-2,1.2c-0.9,1-0.9,1.3-0.3,2.1
	C985.8,320.3,988.5,319.9,988.4,318.4L988.4,318.4z M466.6,318.9c-0.4-0.2-0.9-0.1-1.1,0c-0.2,0.2,0.2,0.3,0.8,0.3
	C466.9,319.2,467,319,466.6,318.9L466.6,318.9z M514.3,317.6c0-0.8-1.4-1.9-2.5-1.9c-1,0-1.4,1.2-0.7,1.9
	C511.8,318.3,514.3,318.2,514.3,317.6L514.3,317.6z M610.6,317c1.8-0.5,1.8-1.3,0.1-2.2c-0.7-0.3-1.8-1.1-2.4-1.7
	c-0.9-0.8-1.7-0.9-3.4-0.7c-5.7,1-7,2.8-2.3,3.1c1.9,0.1,2.7,0.4,2.7,1C605.4,317.6,607.9,317.7,610.6,317L610.6,317z M457.8,315.7
	c-2.6-1.2-4.8-1-4.8,0.4c0,0.6,0.8,0.8,3.6,0.8l3.6,0L457.8,315.7L457.8,315.7z M524,315.3c-0.9-3.2-1.1-3.6-1.6-3.6
	c-0.8,0-0.7,2.1,0.2,3.5C523.5,316.6,524.4,316.7,524,315.3z M830.6,316.1c0-0.1-0.5-0.4-1.2-0.5c-0.6-0.2-1.2-0.1-1.2,0.2
	c0,0.3,0.5,0.5,1.2,0.5C830.1,316.3,830.6,316.2,830.6,316.1z M651.1,314.3c0-0.3-1.2-1-2.5-1.5c-2.1-0.8-2.9-0.8-5.2-0.2
	c-3.7,0.9-4,2.5-0.6,2.7C646.4,315.5,651.2,315,651.1,314.3z M453,313.4c-1.2-0.7-3.5-0.7-3.5,0c0,0.3,1,0.6,2.2,0.6
	C453.4,314,453.7,313.8,453,313.4z M463.6,312.4c0-0.3-0.4-1-0.8-1.5c-0.5-0.7-0.9-0.9-1.2-0.4c-0.6,0.9-2.1,0.8-2.1-0.1
	c0-1-1.3-1.5-3.8-1.5c-2.1,0-2.3,0.3-1.5,1.7C454.9,311.6,463.6,313.4,463.6,312.4L463.6,312.4z M495.8,309c2.2-1.1,3.4-1.1,1.9,0
	c-1.4,1.1-0.8,1.1,1.8,0c2.7-1.1,3.7-1.1,3.7,0c0,0.6,0.4,0.8,1.3,0.6c0.7-0.1,1.8-0.3,2.3-0.3c1.7-0.1,1.1-1.1-0.9-1.4
	c-3.8-0.6-6-1.3-5.7-1.9c0.6-1.3-2.6-2.1-7.5-1.8c-5.1,0.3-6.1,0-10.3-2.9c-5.2-3.7-21.6-8.5-22.7-6.7c-0.2,0.3-0.2,0.6,0.1,0.6
	c0.3,0,1.5,0.7,2.8,1.5c2.5,1.6,2,1.6-3.3-0.1c-2.8-0.8-3.6-0.9-5.1-0.3c-2.1,0.9-2.2,1.4-0.6,2.8c1.2,1.1,5.8,2.6,6.5,2.2
	c0.4-0.2,2.2,0,13.1,1.5c12.9,1.8,14.7,2.4,10.7,3.4c-1,0.3-2,0.9-2.1,1.4c-0.1,0.7,0.8,1.1,4.4,1.8
	C491.1,310.5,493.1,310.4,495.8,309L495.8,309z M442.7,306.9c0.2-0.5,1-0.6,3.6-0.1c1.8,0.3,3.5,0.4,3.6,0.2
	c0.3-0.5-5.8-3.5-7.2-3.5c-0.6,0-1.9,0.2-2.9,0.4c-1.6,0.3-1.7,0.5-1.2,1.6C439.7,307.6,442.2,308.4,442.7,306.9L442.7,306.9z
	 M455.4,304.7c0-0.3-0.5-0.6-1.2-0.6s-1,0.3-0.8,0.6c0.2,0.3,0.7,0.6,1.2,0.6C455,305.3,455.4,305,455.4,304.7z M264.5,302.3
	c0-0.3-0.2-0.6-0.5-0.6s-0.7,0.3-0.9,0.6c-0.2,0.3,0,0.6,0.5,0.6C264.1,302.9,264.5,302.7,264.5,302.3z M429.7,300.1
	c0.4-0.8,0.5-1.6,0.4-1.7c-0.6-0.6-4.7-0.4-4.6,0.2c0.1,0.3,0.2,1,0.3,1.5c0.1,0.6-0.3,0.9-1.4,1.1c-1.5,0.2-2,0.7-1.3,1.4
	c0.2,0.2,1.6,0,3.2-0.3C428.3,301.7,429.2,301.2,429.7,300.1L429.7,300.1z M438.5,302.4c0-1-1.7-1.9-2.9-1.5
	c-1.7,0.5-0.8,2.1,1.2,2.1C437.7,302.9,438.5,302.7,438.5,302.4z M210.3,299.7c1.9-0.7,1.8-1-0.3-1c-2.5,0-3.2,0.2-3.2,1
	C206.8,300.8,207.5,300.8,210.3,299.7z M234.3,298.4c-0.4-0.2-0.9-0.1-1.1,0c-0.2,0.2,0.2,0.3,0.8,0.3
	C234.6,298.8,234.8,298.6,234.3,298.4L234.3,298.4z M275,297.3c1.2-1.2-5.1-1.9-10-1.1c-2.3,0.4-2.9,1.1-1.2,1.5
	C265.2,298.2,274.6,297.8,275,297.3z M311.1,297.3c-0.6-0.1-1.4-0.1-1.8,0c-0.4,0.2,0.1,0.3,1,0.3
	C311.3,297.5,311.6,297.4,311.1,297.3L311.1,297.3z M432,296.1c0-1-0.8-1-2.5-0.1c-1.2,0.7-1.2,0.7-0.1,1.1
	C430.9,297.6,432,297.2,432,296.1L432,296.1z M339,296.6c1.5-0.3,2.3-0.7,2.3-1.3c0-0.7-1-0.9-5.4-0.9c-3,0-5.6-0.2-5.8-0.4
	c-0.2-0.2-1.6-0.4-3-0.4c-2.1,0-2.5,0.2-2.4,1c0.2,0.8,0.7,1,2.1,0.8c1.1-0.1,2.2,0.2,2.8,0.7C330.6,297.2,334.8,297.3,339,296.6z
	 M304.9,295.5c-0.4-0.2-0.9-0.1-1.1,0c-0.2,0.2,0.2,0.3,0.8,0.3C305.2,295.8,305.4,295.7,304.9,295.5L304.9,295.5z M314.7,295.4
	c0-0.8-3.2-1.8-4.6-1.4c-1.4,0.4-1.6,1.1-0.5,1.5C310.9,296,314.7,295.9,314.7,295.4L314.7,295.4z M428.9,295.1l1.6-0.9l-2.6-1.2
	c-1.4-0.6-2.9-1.2-3.3-1.2c-0.9,0-0.9,1.4-0.1,2.9C425.2,296.1,426.6,296.2,428.9,295.1L428.9,295.1z M383.2,292.4
	c2.8-1.3,4.1-1.7,4.8-1.3c0.6,0.3,2.1,0.6,3.3,0.7c1.9,0.1,2.2-0.1,2.2-1.1c0-2.9-2.7-5.8-3.8-4.1c-0.2,0.3-1.1,0.6-2,0.6
	s-2.1,0.4-2.6,0.9c-0.5,0.5-1.4,0.9-1.9,0.8c-0.6-0.1-1.8,0.2-2.8,0.6s-2.1,0.8-2.5,0.9s-0.7,1.1-0.7,2
	C377.2,294.7,378.3,294.7,383.2,292.4L383.2,292.4z M398.2,290.7c0-0.8-1-1.3-1.4-0.7c-0.3,0.6,0.2,1.3,0.9,1.3
	C398,291.2,398.2,291,398.2,290.7L398.2,290.7z M415.9,290.9c1.5-0.6,1-1.4-0.9-1.4c-1,0-2.3-0.3-2.9-0.6c-0.9-0.5-1.1-0.4-1.1,0.2
	C411,290.9,413.6,291.8,415.9,290.9z M255.2,288.5c0-0.5-4.1-2.5-4.1-2.1c0,0.1,0.3,0.8,0.6,1.4
	C252.3,288.9,255.2,289.4,255.2,288.5z M265.7,287.7c0-0.3-0.3-0.5-0.6-0.5c-0.3,0-0.6,0.3-0.6,0.6c0,0.3-0.3,0.4-0.7,0.2
	c-0.4-0.3-0.5-0.2-0.3,0.2C264,288.9,265.7,288.5,265.7,287.7z M257.1,287.9c-0.4-0.2-0.9-0.1-1.1,0c-0.2,0.2,0.2,0.3,0.8,0.3
	C257.4,288.3,257.5,288.1,257.1,287.9L257.1,287.9z M414.5,287.7c0-0.3-0.5-0.6-1-0.6c-0.9,0-0.9,0.1-0.1,0.6
	C414.5,288.5,414.5,288.5,414.5,287.7z M450.3,287.4c4-0.7,4.5-0.8,4.5-1.9c0-0.6-0.5-1.2-1.3-1.4c-1.7-0.4-9.2,1.9-9.2,2.9
	c0,1,1.1,1.4,2.8,1.1C447.9,287.8,449.3,287.6,450.3,287.4L450.3,287.4z M330.5,287.3c0-0.1-0.4-0.6-0.8-1.1
	c-0.8-0.8-1.9-0.2-1.3,0.8C328.7,287.5,330.5,287.8,330.5,287.3z M230.1,286c0-0.3-0.3-0.5-0.6-0.3c-0.3,0.2-0.6,0.5-0.6,0.6
	s0.3,0.3,0.6,0.3S230.1,286.3,230.1,286z M459.3,283.1c-0.2-1.3-1.9-1.2-1.8,0.1c0,0.6-0.2,1-0.4,1c-0.3,0-0.5,0.3-0.5,0.6
	c0,0.3,0.6,0.3,1.5-0.1C458.9,284.3,459.4,283.6,459.3,283.1z M257,283.7c0-0.9-3.2-1.6-4.7-1l-1.5,0.6l1.9,0.4
	c1.1,0.2,2.1,0.6,2.2,0.8C255.4,284.8,257,284.2,257,283.7L257,283.7z M267.9,281.2c1.1-1.1,0.8-2.1-0.5-2.5
	c-1.4-0.5-2.9,0.6-2.9,2.1C264.5,282.1,266.8,282.3,267.9,281.2L267.9,281.2z M477.8,281.3c-0.2-0.3-0.6-0.6-0.9-0.6
	c-0.3,0-0.4,0.3-0.2,0.6c0.2,0.3,0.6,0.6,0.9,0.6S478,281.6,477.8,281.3z M256.4,279.6c0-0.3-0.5-0.6-1.1-0.6
	c-0.6,0-1.3,0.3-1.5,0.6c-0.2,0.3,0.3,0.6,1.1,0.6C255.7,280.2,256.4,279.9,256.4,279.6z M261.8,279.8c-0.4-0.2-1.1-0.2-1.5,0
	s-0.1,0.3,0.7,0.3C261.8,280.1,262.2,279.9,261.8,279.8z M469.6,276.7c0.2-0.3-0.3-0.7-1-0.9c-1.9-0.5-2.2-0.5-2.2,0.5
	C466.5,277.3,469.1,277.6,469.6,276.7z M462.8,275.5c0.2-0.9-5.3-3.2-6.2-2.6c-0.3,0.2-1.2,0.1-2-0.2c-2.2-0.8-2.5,0.3-0.4,1.4
	c1,0.5,2.3,0.9,3,0.9s1.6,0.4,2.1,0.9C460.4,276.9,462.6,276.7,462.8,275.5L462.8,275.5z M481.6,274.8c0-0.2-1-0.4-2.3-0.4
	c-1.3,0-2.3,0.2-2.3,0.5c0,0.3,1,0.5,2.3,0.4C480.6,275.2,481.6,275,481.6,274.8L481.6,274.8z M403.5,273.4c3.9-1.4,6.9-2.8,6.9-3.2
	c0-1.5-5.2-1.4-8.3,0.1c-3.7,1.9-4.1,2.2-3.3,3.2C399.7,274.5,400.4,274.5,403.5,273.4L403.5,273.4z M370,269.3
	c0.7-0.2,1.3-0.7,1.3-1c0-0.4,0.7-1.4,1.5-2.2c1.7-1.9,1.9-2.8,0.4-2.8c-1.2,0-2.6,1.4-2,2c0.2,0.2-0.2,0.6-0.9,0.8s-1.7,1.1-2.2,2
	C367.2,269.8,367.4,270,370,269.3z M396.6,261.1c0.5-0.5-1.3-3.1-2.3-3.1c-0.7,0-2,1.7-2,2.5c0,0.3,1.5,0.6,3.3,0.9
	C396,261.4,396.4,261.3,396.6,261.1z M402,258.7c2.3-1.1,2.5-1.5,1.2-2.5c-0.6-0.5-1.4-0.5-2.9-0.1c-1.1,0.3-2.2,0.5-2.3,0.3
	c-0.1-0.1-0.6,0.2-1,0.7c-0.6,0.8-0.6,1,0.5,1.2c0.7,0.2,1.3,0.6,1.3,0.8C398.8,260,399.7,259.8,402,258.7L402,258.7z M55.2,520.6
	c0-0.6,0.4-1.3,0.9-1.4c0.5-0.2,0.3-0.2-0.6-0.1c-0.9,0.1-1.6-0.1-1.6-0.4c0-0.3-0.7-0.4-1.7-0.2c-1.2,0.2-1.8,0.1-2.1-0.6
	c-0.2-0.5-0.1-1.2,0.2-1.5c1-1,2.8-1,3.2-0.1c0.2,0.5,0.9,0.9,1.6,0.9s1.1,0.3,0.9,0.6c-0.2,0.3,0,0.6,0.5,0.7
	c1.7,0.1,2,0.2,2.5,0.7c0.5,0.5-2,2.7-3,2.7C55.5,521.8,55.2,521.3,55.2,520.6z M82.2,402.9c-0.3-0.8-0.2-0.9,0.3-0.3
	c0.4,0.4,0.6,0.9,0.4,1C82.7,403.8,82.4,403.5,82.2,402.9L82.2,402.9z M1034.9,381.2l-1.4-0.4l1.6-1.1c1.5-1,1.8-1,3.6-0.1
	c1.1,0.5,1.8,1.2,1.6,1.5C1040,381.8,1037.1,381.8,1034.9,381.2L1034.9,381.2z M1037.2,362.4c-0.5-0.3-1.5-0.6-2.2-0.6
	c-1,0-1.2-0.3-1-1.3c0.1-0.7,0.3-1.3,0.5-1.5c0.4-0.4,5.1,2.4,4.9,2.9C1039.1,362.9,1038.2,363.1,1037.2,362.4z M1060.4,351.5
	c-0.4-1.4,0.9-2.6,1.8-1.7c0.8,0.8,0.9,2.8,0,2.8c-0.4,0-0.5-0.4-0.3-1c0.3-1,0.3-1-0.4,0C1060.8,352.5,1060.7,352.5,1060.4,351.5
	L1060.4,351.5z M129.9,345.6c-0.5-0.8-0.5-1.1,0.2-1.1c0.5,0,0.8,0.5,0.8,1.1c0,0.6-0.1,1.1-0.2,1.1
	C130.7,346.7,130.3,346.2,129.9,345.6z M1020.7,339.6c0.4-0.4,0.9-0.6,1-0.4c0.2,0.2-0.1,0.5-0.7,0.7
	C1020.2,340.3,1020.2,340.2,1020.7,339.6L1020.7,339.6z M1052.1,329.3c-0.6-0.2-1.9-0.8-2.7-1.4c-0.9-0.6-1.9-1.1-2.4-1.1
	c-0.5,0-1.2-0.4-1.6-0.9c-0.4-0.5-1.3-0.9-1.9-0.9c-0.7,0-1-0.2-0.9-0.3c0.2-0.2,1.9-0.1,3.7,0.1c1.9,0.2,3.1,0.5,2.7,0.7
	c-1,0.3-0.9,1.3,0.1,1.3c0.5,0,0.9,0.3,0.9,0.6c0,0.3,0.6,0.6,1.3,0.6c2.1,0,4,0.7,3.6,1.2C1054.7,329.8,1054,329.8,1052.1,329.3
	L1052.1,329.3z M1047.1,321c-2.1-0.2-4.1-0.5-4.3-0.7s-0.1-0.9,0.3-1.6c0.8-1.6,4.1-2.5,5.2-1.4c0.4,0.4,0.7,0.9,0.6,1
	c-0.1,0.1,0.5,0.8,1.2,1.5c0.8,0.7,1.3,1.3,1.2,1.4C1051.1,321.2,1049.2,321.2,1047.1,321z M1069.7,315.4c-0.2-0.2-1.7-0.8-3.4-1.4
	c-2.7-0.9-3.1-1.2-3.1-2.7c0-1.4,0.3-1.7,2-2.1c2.5-0.5,4.8-0.1,4.5,0.9c-0.1,0.4,0.8,1.7,2,2.9s2.2,2.3,2.2,2.5
	C1074,315.9,1070.2,315.8,1069.7,315.4z M576.4,313.1c-1-0.4-2.1-0.8-2.3-1.1c-0.2-0.2-0.8-0.4-1.3-0.4c-0.8,0-0.8,0.1,0,0.6
	c0.5,0.3,0.6,0.6,0.3,0.6c-0.7,0-2.9-2.3-3.4-3.6c-0.4-1.2,0.5-1.4,1.2-0.2c0.5,0.8,3,2.4,4,2.5c0.3,0,1.5,0.4,2.6,0.9
	C579.8,313.4,579,314.1,576.4,313.1L576.4,313.1z M172.9,309.6c-0.4-0.5-0.6-1-0.4-1.2c0.4-0.4,2.8,0.8,2.8,1.5
	C175.3,310.8,173.7,310.6,172.9,309.6z M581.9,307.2c-3-0.3-2.8-1.3,0.2-1.3c1.5,0,2.7-0.3,3.1-0.9c0.6-0.8,0.8-0.8,2.1,0.2
	c0.8,0.6,1.3,1.3,1,1.6C587.8,307.3,584.6,307.5,581.9,307.2z M1058.2,306c0-0.5-0.2-0.8-0.4-0.6s-0.8-0.1-1.2-0.8
	c-0.6-0.8-1.2-1.1-1.9-0.8c-1,0.3-1.1,0.1-1-2.3c0.2-2.7,1-4.5,1-2.2c0,0.7,0.8,1.9,2,2.8c1.1,0.9,1.9,1.8,1.7,2s0.2,0.6,0.9,0.8
	c1.5,0.5,1.5,2,0,2C1058.7,307,1058.2,306.6,1058.2,306L1058.2,306z M168.2,304.1c0-0.3,0.8-1.1,1.7-1.6c1-0.5,1.7-1.4,1.8-2
	c0-0.8,0.5-0.9,3.7-0.7c6.1,0.5,6.5,2.4,0.6,2.8c-1.4,0.1-3.1,0.6-3.6,1.1C171.2,304.8,168.2,305,168.2,304.1L168.2,304.1z
	 M592.6,303.3c-1.2-0.7-1.2-0.9-0.4-1.2c0.5-0.2,2.1-0.2,3.5,0c1.4,0.2,3.3,0.1,4.2-0.2c1.5-0.5,1.7-0.4,1.8,0.5
	c0.1,0.7-0.3,1.1-0.9,1.1c-0.5,0-2.3,0.1-3.9,0.3C595,304,593.5,303.8,592.6,303.3L592.6,303.3z M918.3,299.7
	c-1-0.5-1.1-0.8-0.6-1.1c0.4-0.2-0.1-0.3-1.1-0.2c-1.2,0.1-1.9-0.1-1.9-0.5c0-0.4-0.5-0.8-1-0.9c-0.6-0.1,0.2-0.2,1.7-0.2
	c1.5,0,2.6,0.2,2.5,0.5c-0.2,0.3,0.1,0.3,0.6,0.1c0.5-0.2,0.9-0.6,0.9-0.9c0-0.3,0.6-0.4,1.5-0.2c1,0.2,1.5,0.1,1.5-0.3
	c0-0.6,0.2-0.6,0.7,0c0.9,0.9,2.4,0.9,1.9,0c-0.3-0.5,0-0.6,0.7-0.4c0.7,0.2,1.4-0.1,1.8-0.8c0.9-1.4,0.4-1.6-3.6-1.8
	c-2.4-0.1-3.3-0.4-3.3-0.9c0-0.7,3.3-2.3,4.2-2c0.2,0.1,1.8-0.3,3.5-0.7c1.7-0.5,2.6-0.8,2.1-0.9c-0.6,0-1-0.3-1-0.5
	c0-0.3,1.7-0.5,3.8-0.6c5.4-0.2,7.7-0.5,9.8-1.5c1-0.5,3.4-1,5.4-1.2c4.4-0.5,5.7-1.1,4.2-2.3c-0.6-0.4-1-0.9-1-1
	c0-0.1,1.5-0.1,3.4,0.1c4.5,0.4,10.7-0.3,13-1.4c2.1-1.1,6-1.6,5.5-0.8c-0.3,0.5,2.4,0.3,6.8-0.4c1.1-0.2,1,0-0.7,0.9
	c-1.2,0.6-2.2,1.4-2.2,1.7c0,0.3,1.3,0.7,2.9,0.9c3.3,0.4,3.3,0.8,0.1,1.7c-1.2,0.3-2.1,0.9-2,1.3c0.1,0.5-0.9,0.7-3.1,0.7
	c-1.8,0-4.2,0.4-5.4,0.8s-3.5,1-5.1,1.3c-1.6,0.2-3.2,0.5-3.5,0.6c-0.3,0.1-2.2,0.4-4.1,0.8c-1.9,0.4-3.8,0.9-4.1,1.2
	s-1.5,0.6-2.6,0.8c-9.2,1.3-11.5,1.7-12.5,2.2c-1.1,0.6-1.1,0.6,0,1.2c1.5,0.9,10.2,0.6,14.1-0.4c1.9-0.5,6.3-1.4,9.8-2.1
	c3.5-0.7,7.7-1.6,9.3-2.1c1.6-0.5,3-0.8,3.2-0.8c0.2,0-1.5,1.2-3.7,2.6c-2.2,1.4-4.6,2.6-5.2,2.6c-1.7,0-8.2,2.1-9.8,3.1
	c-0.7,0.5-2.9,1-4.8,1.2c-1.9,0.2-4.9,0.5-6.7,0.7C937.2,300.5,919.7,300.4,918.3,299.7L918.3,299.7z M1022.6,297.1c0-0.3,0-0.8,0-1
	s0.3-0.4,0.7-0.4c0.4,0,0.9-0.3,1.2-0.6c0.3-0.4,0.6-0.4,0.9,0c0.2,0.3,1,1,1.7,1.5c1.3,0.9,1.2,0.9-1.6,1
	C1023.9,297.6,1022.6,297.4,1022.6,297.1L1022.6,297.1z M706.3,293.9c-0.7-0.7-3.3-1.3-6.9-1.6c-1-0.1-3.1-1.9-3.3-2.9
	c-0.1-0.4,0.6-0.8,1.4-0.8c2-0.1,6.3-0.7,11.5-1.7c4.4-0.8,21.6-0.8,26.1,0c1.4,0.2,3.4,0.5,4.5,0.6c3.8,0.3,5.8,0.9,5.4,1.6
	c-0.2,0.4,0,0.3,0.5-0.1c0.8-0.6,1.1-0.6,1.7,0c0.4,0.5,1.5,0.7,2.5,0.5l1.8-0.2l-1.3,1.2c-1.3,1.2-4.9,1.4-6.5,0.5
	c-0.4-0.2-1-0.2-1.3,0c-0.4,0.2-3.1,0.5-6,0.5c-2.9,0-5.6,0.3-6,0.5c-1.1,0.7-11.3,1-11.3,0.3c0-0.3-0.4-0.2-1,0.4
	c-0.6,0.6-1.5,0.9-2.5,0.7c-0.9-0.2-2.3,0.1-3.2,0.5C710.4,295,707.4,295,706.3,293.9L706.3,293.9z M916.6,293.2
	c-1-0.4-0.9-2.5,0-2.5c0.4,0,0.8,0.7,0.9,1.5c0.1,0.8,0.1,1.4,0,1.4C917.4,293.5,917,293.4,916.6,293.2L916.6,293.2z M759.4,292.8
	c-0.1-0.1-1.6-0.4-3.2-0.5c-1.6-0.2-3.5-0.5-4.3-0.8c-1.3-0.5-1.3-0.6,1-1.5c2.6-1,5-1.2,9.9-0.6c2.9,0.3,4.3,1.4,1.9,1.4
	c-0.6,0-1.3,0.3-1.5,0.6c-0.2,0.3,0,0.6,0.4,0.6c0.6,0,0.5,0.2-0.1,0.6C762.7,293,759.9,293.2,759.4,292.8z M882,291.8
	c0-1,0.2-1.1,1.2-0.5c1,0.5,1.1,0.8,0.4,1.2C882.4,293.3,882,293.1,882,291.8L882,291.8z M891.3,292.4c0-0.3,0.4-0.6,0.9-0.6
	s0.7,0.3,0.5,0.6c-0.2,0.3-0.6,0.6-0.9,0.6C891.6,293,891.3,292.7,891.3,292.4z M896.4,292.6c-1.5-0.4-1.3-1.2,0.4-1.5
	c0.8-0.2,1.5-0.1,1.5,0.2c0,0.3,2.2,0.4,4.9,0.4c3.6-0.1,4.8,0.1,4.4,0.6C907.1,292.9,898.5,293.2,896.4,292.6L896.4,292.6z
	 M912.8,292.6c-1.5-0.2-2.4-1.9-1-1.9c0.3,0,0.5,0.3,0.3,0.6c-0.2,0.3,0,0.6,0.5,0.6c0.5,0,1-0.3,1.2-0.6c0.2-0.3,0.6-0.6,1-0.6
	c0.4,0,0.4,0.2,0,0.8c-0.4,0.4-0.5,1-0.3,1.2c0.2,0.2,0.3,0.3,0.1,0.3C914.5,292.9,913.7,292.7,912.8,292.6L912.8,292.6z
	 M652.5,291.8c0.4-0.4,0.9-0.6,1-0.4c0.2,0.2-0.1,0.5-0.7,0.7C652,292.4,651.9,292.3,652.5,291.8L652.5,291.8z M868.6,291.8
	c-0.5-0.3-0.6-0.6-0.2-0.6c0.4,0,0.9,0.3,1.1,0.6C869.9,292.6,869.7,292.6,868.6,291.8z M871.6,292c-2.2-0.3-1.5-1.1,0.9-0.9
	c1.2,0.1,2.3,0.3,2.4,0.4C875.2,291.8,873,292.2,871.6,292z M875.9,291.8c-0.2-0.3-0.1-0.6,0.3-0.6c0.3,0,0.6,0.3,0.6,0.6
	c0,0.3-0.1,0.6-0.3,0.6C876.3,292.4,876.1,292.1,875.9,291.8L875.9,291.8z M877.3,292c0-0.3,0.4-0.7,0.9-0.9
	c0.5-0.2,0.9-0.2,0.9-0.1c0,0.1-0.4,0.5-0.9,0.9C877.7,292.2,877.3,292.3,877.3,292z M1023.2,291.9c0-0.3-1.2-0.8-2.6-1
	c-1.4-0.2-2.6-0.6-2.6-0.8c0-0.6,5.2-1.6,6.9-1.3c1.9,0.3,1.6,3.2-0.3,3.5C1023.8,292.4,1023.2,292.2,1023.2,291.9L1023.2,291.9z
	 M655.3,291.3c-0.2-0.3,0-0.4,0.5-0.2c1,0.4,1.2,0.8,0.4,0.8C655.9,291.8,655.5,291.6,655.3,291.3L655.3,291.3z M864.9,291.1
	c-0.2-0.4,0.2-0.8,0.8-0.8c0.6,0,1.2,0.3,1.4,0.8c0.2,0.5-0.1,0.8-0.8,0.8C865.7,291.8,865.1,291.5,864.9,291.1z M842,290.1
	c-0.2-0.3-0.8-0.6-1.3-0.5c-1.4,0.1-4.7-0.7-5.1-1.3c-0.4-0.6,0.2-0.7,4.7-0.5c3.5,0.1,4.5,0.7,4,2.2
	C843.9,290.8,842.5,290.9,842,290.1L842,290.1z M849.6,289.9c-0.6-1.5-0.2-1.6,3.2-0.6c3.5,1,3.8,1.6,0.5,0.8
	c-1.3-0.3-2.4-0.3-2.7,0.1C850.1,290.7,849.8,290.6,849.6,289.9L849.6,289.9z M694.1,289.8c0-0.1,0.3-0.4,0.6-0.6
	c0.3-0.2,0.6-0.1,0.6,0.3c0,0.3-0.3,0.6-0.6,0.6C694.3,290.1,694.1,290,694.1,289.8z M845.5,288.9c-0.2-0.3-0.1-0.6,0.3-0.6
	c0.3,0,0.6,0.3,0.6,0.6c0,0.3-0.1,0.6-0.3,0.6C846,289.5,845.7,289.2,845.5,288.9L845.5,288.9z M873.8,288.3c0-0.4-0.4-0.5-0.9-0.3
	c-0.5,0.2-0.9,0-0.9-0.6c0-1,2.8-1,3.7,0.1c0.3,0.4,0.6,0.3,0.8-0.1c0.2-0.4,0.5-0.6,0.8-0.4c0.8,0.5,0.7,1.2-0.2,1.2
	c-0.4,0-1.3,0.2-2,0.4C874.3,288.8,873.8,288.8,873.8,288.3L873.8,288.3z M168,287.7c-0.2-0.3,0.1-0.7,0.6-0.9
	c1.1-0.4,1.7,0,1.2,0.9C169.2,288.5,168.4,288.5,168,287.7L168,287.7z M866.9,287.8c-1.8-0.2-1.3-1.4,0.7-1.9
	c1.2-0.3,1.5-0.2,1.3,0.4c-0.2,0.5,0.1,0.7,1.1,0.6c0.9-0.1,1.4,0.1,1.4,0.6C871.5,288.2,870.4,288.3,866.9,287.8L866.9,287.8z
	 M288.8,281.9c-0.2-0.3,0-0.8,0.5-1c0.5-0.2,0.9-0.9,0.9-1.5c0-0.6,0.3-1,0.6-0.8c0.3,0.2,0.4,0.6,0.2,1c-0.2,0.3,0.2,1.1,0.9,1.6
	c1.3,1,1.3,1-0.7,1.1C290.1,282.5,289,282.3,288.8,281.9z M1041,281.1c-1-0.7-1-0.8,0.5-1.2c0.9-0.2,2.1-0.1,2.9,0.3
	c1.3,0.7,1.3,0.7,0.1,1.1C1042.8,282,1042.2,282,1041,281.1z M281.7,279.5c-0.2-0.4-1.4-1.1-2.7-1.7l-2.3-1l2.2-0.4
	c1.2-0.2,3.2-0.4,4.3-0.4c1.2,0,3.7-0.8,5.7-1.8c2.4-1.2,3.8-1.6,4.3-1.2c1.6,1.2,10.6,1.7,17.9,0.9c4.7-0.5,11.7-0.6,12.3-0.2
	c0.8,0.5-2,0.9-8.5,1.4c-6.3,0.5-7,0.7-6,1.8c0.7,0.8,0.4,0.9-2.2,0.5c-1.6-0.2-3.8-0.1-4.9,0.2c-1.3,0.4-2.2,0.4-2.7,0
	c-0.4-0.3-2.6-0.6-5-0.6c-2.4,0-6-0.1-8-0.1c-4-0.1-4.8,0.2-3.7,1.5c0.4,0.5,0.5,1,0.1,1.2C282.4,280,281.9,279.9,281.7,279.5
	L281.7,279.5z M934.9,277.7c-0.3-1-0.7-1.2-2.1-1c-1,0.1-1.9,0.1-2-0.1c-0.1-0.2-1.7-0.2-3.6,0c-2.8,0.3-18.6,0.3-27.4,0
	c-1.3,0-3.5-0.1-5-0.1c-5.2,0-6.4-0.1-6.1-0.5c0.1-0.2,1.1-0.4,2.1-0.5c1,0,2-0.3,2.2-0.6c0.4-0.6,5.3-0.6,4.9,0
	c-0.4,0.6,1.9,0.2,2.8-0.5c1.2-1,3.8-1.3,17.6-2.2c7-0.5,15-1.3,17.8-1.8c2.8-0.5,5.6-1,6.2-1.1c7.2-0.9,12.6-2.1,19.5-4.2
	c0.5-0.1,1,0.1,1.3,0.5c0.7,1.1-1.9,3.4-3.8,3.4c-0.9,0-3.6,0.9-5.8,2c-2.3,1.1-5.4,2.2-7,2.4c-3.9,0.5-6.9,1-7.4,1.3
	c-0.8,0.4,1,1.8,2,1.6c0.6-0.1,1.2,0,1.3,0.3c0.2,0.3,0.9,0.3,1.7,0c1.4-0.5,3.3,0.1,2.3,0.8c-0.7,0.4-4,1-8.1,1.3
	C935.6,279,935.2,278.8,934.9,277.7L934.9,277.7z M936.6,277.9c-0.2-0.3,0-0.7,0.4-0.8c0.4-0.2,0.3-0.3-0.3-0.3c-0.6,0-1,0.3-1,0.8
	c0,0.5,0.3,0.9,0.6,0.9C936.6,278.4,936.8,278.2,936.6,277.9z M949.8,276.6c-0.8-0.3-1.2-0.7-1-0.9c0.6-0.6,3.3-0.7,3.3-0.1
	c0,0.4,0.3,0.3,0.8-0.1c0.6-0.5,0.9-0.5,1.2-0.1c0.2,0.3,0.7,0.4,1,0.2c0.4-0.2,0.5-0.1,0.2,0.3c-0.2,0.4-0.8,0.6-1.2,0.4
	c-0.4-0.2-1-0.1-1.1,0.3C952.5,277.4,951.6,277.3,949.8,276.6L949.8,276.6z M522.9,275.2c0.4-0.2,0.6-0.7,0.4-1.1
	c-0.2-0.5,0.3-0.9,1.3-1.1c0.9-0.2,1.7-0.3,1.8-0.2c0.4,0.4-1.5,2-2.8,2.3C522.9,275.3,522.5,275.3,522.9,275.2L522.9,275.2z
	 M873,275c-0.2-0.3,0.2-0.4,0.8-0.2c1.4,0.4,1.5,0.8,0.3,0.8C873.7,275.5,873.2,275.2,873,275z M878.8,267.4
	c-0.8-0.8-0.1-1.7,1.2-1.7c1.1,0,1.4,0.2,1.2,0.9c-0.3,0.7-0.1,0.7,0.4,0.3c0.9-0.7,3.2-1.2,9.8-2c5.9-0.7,4.5-0.6,13.1-0.6
	c3.9,0,7.5,0,8,0c0.6,0,1.2-0.3,1.3-0.6c0.4-0.7,6.1-0.7,7.2,0c0.5,0.3,1.6,0.3,2.6,0c2.3-0.7,4.6-1,8.2-1.1c1.6-0.1,5.9-0.5,9.6-1
	c8.5-1.1,10.5-1.2,10.2-0.7c-0.2,0.2-1.6,0.8-3.3,1.3c-3,0.9-5.1,1.2-11.8,1.9c-1.9,0.2-4.6,0.6-5.8,0.8c-1.3,0.3-4.6,0.5-7.3,0.5
	c-2.7,0-6.2,0.3-7.7,0.5c-1.5,0.3-3,0.3-3.4,0.1c-0.4-0.2-1.8,0-3.3,0.5c-1.8,0.6-3,0.7-3.9,0.3c-0.7-0.3-2.9-0.4-4.8-0.3
	s-6.4,0.3-9.9,0.5s-7.5,0.3-8.9,0.4C880.2,267.6,878.9,267.5,878.8,267.4L878.8,267.4z M416.3,251c0-0.3,0.1-0.6,0.3-0.6
	s0.4,0.3,0.6,0.6s0.1,0.6-0.3,0.6C416.6,251.6,416.3,251.3,416.3,251z"/>
</svg>
